<svg id="svg" version="1.1" xmlns="http://www.w3.org/2000/svg" xmlns:xlink="http://www.w3.org/1999/xlink" width="400" height="400" viewBox="0, 0, 400,400"><g id="svgg"><path id="path0" d="M324.900 0.296 C 323.525 0.374,322.400 0.610,322.400 0.819 C 322.400 1.029,321.421 1.200,320.224 1.200 C 319.027 1.200,317.936 1.380,317.800 1.600 C 317.664 1.820,316.843 2.000,315.976 2.000 C 315.109 2.000,314.400 2.180,314.400 2.400 C 314.400 2.620,313.770 2.800,313.000 2.800 C 312.230 2.800,311.600 2.980,311.600 3.200 C 311.600 3.420,311.060 3.600,310.400 3.600 C 309.740 3.600,309.200 3.780,309.200 4.000 C 309.200 4.220,308.660 4.400,308.000 4.400 C 307.340 4.400,306.800 4.580,306.800 4.800 C 306.800 5.020,306.260 5.200,305.600 5.200 C 304.940 5.200,304.400 5.380,304.400 5.600 C 304.400 5.820,303.860 6.000,303.200 6.000 C 302.540 6.000,302.000 6.180,302.000 6.400 C 302.000 6.620,301.640 6.800,301.200 6.800 C 300.760 6.800,300.400 6.980,300.400 7.200 C 300.400 7.420,299.860 7.600,299.200 7.600 C 298.540 7.600,298.000 7.780,298.000 8.000 C 298.000 8.220,297.735 8.400,297.411 8.400 C 296.672 8.400,292.247 10.457,292.067 10.884 C 291.993 11.058,291.588 11.200,291.167 11.200 C 290.745 11.200,290.400 11.380,290.400 11.600 C 290.400 11.820,290.040 12.000,289.600 12.000 C 289.160 12.000,288.800 12.180,288.800 12.400 C 288.800 12.620,288.564 12.800,288.275 12.800 C 287.987 12.800,287.364 13.160,286.892 13.600 C 286.420 14.040,285.756 14.400,285.417 14.400 C 285.078 14.400,284.800 14.580,284.800 14.800 C 284.800 15.020,284.564 15.200,284.275 15.200 C 283.987 15.200,283.364 15.560,282.892 16.000 C 282.420 16.440,281.891 16.800,281.717 16.801 C 281.543 16.801,280.770 17.341,280.000 18.000 C 279.230 18.659,278.415 19.199,278.188 19.199 C 277.962 19.200,277.517 19.560,277.200 20.000 C 276.883 20.440,276.469 20.800,276.280 20.800 C 276.092 20.800,275.246 21.520,274.400 22.400 C 273.554 23.280,272.675 24.000,272.445 24.000 C 271.516 24.000,261.242 34.102,259.400 36.826 C 258.741 37.802,257.706 39.077,257.100 39.660 C 256.495 40.244,256.000 40.911,256.000 41.142 C 256.000 41.374,255.595 41.988,255.100 42.506 C 253.726 43.944,252.015 46.162,252.007 46.517 C 252.003 46.691,251.640 47.220,251.200 47.692 C 250.760 48.164,250.400 48.787,250.400 49.075 C 250.400 49.364,250.220 49.600,250.000 49.600 C 249.780 49.600,249.600 49.878,249.600 50.217 C 249.600 50.556,249.240 51.220,248.800 51.692 C 248.360 52.164,248.000 52.787,248.000 53.075 C 248.000 53.364,247.820 53.600,247.600 53.600 C 247.380 53.600,247.200 53.960,247.200 54.400 C 247.200 54.840,247.020 55.200,246.800 55.200 C 246.580 55.200,246.400 55.560,246.400 56.000 C 246.400 56.440,246.220 56.800,246.000 56.800 C 245.780 56.800,245.600 57.160,245.600 57.600 C 245.600 58.589,244.473 58.665,244.115 57.700 C 243.972 57.315,243.528 56.709,243.128 56.353 C 242.727 55.997,242.400 55.489,242.400 55.225 C 242.400 54.960,242.175 54.510,241.900 54.225 C 241.625 53.940,240.680 52.829,239.800 51.756 C 237.714 49.213,232.067 43.567,230.842 42.800 C 230.315 42.470,229.286 41.615,228.555 40.900 C 227.825 40.185,226.990 39.600,226.702 39.600 C 226.413 39.600,225.917 39.240,225.600 38.800 C 225.283 38.360,224.859 38.000,224.659 38.000 C 224.458 38.000,224.003 37.684,223.647 37.297 C 223.291 36.911,222.505 36.340,221.900 36.030 C 221.295 35.719,220.800 35.315,220.800 35.132 C 220.800 34.950,220.522 34.800,220.183 34.800 C 219.844 34.800,219.180 34.440,218.708 34.000 C 218.236 33.560,217.613 33.200,217.325 33.200 C 217.036 33.200,216.800 33.020,216.800 32.800 C 216.800 32.580,216.440 32.400,216.000 32.400 C 215.560 32.400,215.200 32.220,215.200 32.000 C 215.200 31.780,214.840 31.600,214.400 31.600 C 213.960 31.600,213.600 31.420,213.600 31.200 C 213.600 30.980,213.240 30.800,212.800 30.800 C 212.360 30.800,212.000 30.620,212.000 30.400 C 212.000 30.180,211.640 30.000,211.200 30.000 C 210.760 30.000,210.400 29.820,210.400 29.600 C 210.400 29.380,210.045 29.200,209.612 29.200 C 209.179 29.200,208.183 28.840,207.400 28.400 C 206.617 27.960,205.632 27.600,205.211 27.600 C 204.791 27.600,204.326 27.404,204.178 27.165 C 204.031 26.926,203.539 26.827,203.085 26.946 C 202.631 27.065,202.067 26.929,201.830 26.644 C 201.340 26.055,196.313 24.800,194.443 24.800 C 193.759 24.800,193.200 24.620,193.200 24.400 C 193.200 24.178,192.133 24.000,190.800 24.000 C 189.467 24.000,188.400 23.822,188.400 23.600 C 188.400 23.049,148.540 23.049,148.200 23.600 C 148.064 23.820,147.695 24.000,147.381 24.000 C 146.258 24.000,142.000 28.130,142.000 29.220 C 142.000 29.561,141.805 30.035,141.566 30.274 C 140.416 31.424,141.880 54.693,143.128 55.109 C 143.385 55.195,143.475 55.725,143.344 56.380 C 143.218 57.009,143.313 57.623,143.560 57.775 C 143.802 57.925,144.000 58.577,144.000 59.224 C 144.000 59.871,144.180 60.400,144.400 60.400 C 144.620 60.400,144.800 60.940,144.800 61.600 C 144.800 62.260,144.980 62.800,145.200 62.800 C 145.420 62.800,145.600 63.340,145.600 64.000 C 145.600 64.660,145.780 65.200,146.000 65.200 C 146.220 65.200,146.400 65.560,146.400 66.000 C 146.400 66.440,146.580 66.800,146.800 66.800 C 147.020 66.800,147.200 67.239,147.200 67.776 C 147.200 68.313,147.380 68.864,147.600 69.000 C 147.820 69.136,148.000 69.597,148.000 70.024 C 148.000 70.451,148.180 70.800,148.400 70.800 C 148.620 70.800,148.800 71.160,148.800 71.600 C 148.800 72.040,148.946 72.400,149.125 72.400 C 149.304 72.400,149.698 73.030,150.000 73.800 C 150.302 74.570,150.696 75.200,150.875 75.200 C 151.054 75.200,151.200 75.520,151.200 75.912 C 151.200 76.303,151.560 76.883,152.000 77.200 C 152.440 77.517,152.800 78.097,152.800 78.488 C 152.800 78.880,152.980 79.200,153.200 79.200 C 153.420 79.200,153.600 79.436,153.600 79.725 C 153.600 80.013,153.960 80.636,154.400 81.108 C 154.840 81.580,155.200 82.154,155.200 82.383 C 155.200 82.612,155.380 82.800,155.600 82.800 C 155.820 82.800,156.000 83.004,156.000 83.253 C 156.000 83.502,156.315 83.998,156.700 84.354 C 157.085 84.711,157.670 85.472,158.000 86.045 C 159.335 88.366,167.591 97.200,168.425 97.200 C 168.629 97.200,169.715 98.100,170.839 99.200 C 171.962 100.300,173.093 101.200,173.352 101.200 C 173.611 101.200,174.083 101.560,174.400 102.000 C 174.717 102.440,175.192 102.800,175.455 102.800 C 175.718 102.800,175.993 102.945,176.067 103.123 C 176.252 103.573,179.856 106.000,180.339 106.000 C 180.556 106.000,180.793 106.157,180.867 106.349 C 181.047 106.821,185.019 108.800,185.787 108.800 C 186.124 108.800,186.400 108.980,186.400 109.200 C 186.400 109.420,186.760 109.600,187.200 109.600 C 187.640 109.600,188.000 109.780,188.000 110.000 C 188.000 110.220,188.360 110.400,188.800 110.400 C 189.240 110.400,189.600 110.580,189.600 110.800 C 189.600 111.020,190.140 111.200,190.800 111.200 C 191.460 111.200,192.001 111.335,192.003 111.500 C 192.007 111.906,193.986 112.800,194.880 112.800 C 195.276 112.800,195.600 112.980,195.600 113.200 C 195.600 113.420,196.140 113.600,196.800 113.600 C 197.460 113.600,198.000 113.780,198.000 114.000 C 198.000 114.220,198.540 114.400,199.200 114.400 C 199.860 114.400,200.400 114.580,200.400 114.800 C 200.400 115.020,201.120 115.200,202.000 115.200 C 202.880 115.200,203.600 115.380,203.600 115.600 C 203.600 115.820,204.309 116.000,205.176 116.000 C 206.043 116.000,206.864 116.180,207.000 116.400 C 207.136 116.620,208.317 116.800,209.624 116.800 C 210.941 116.800,212.000 116.978,212.000 117.200 C 212.000 117.457,216.067 117.600,223.400 117.600 L 234.800 117.600 234.800 128.829 C 234.800 141.837,235.087 140.985,230.585 141.335 C 226.146 141.679,221.058 142.626,220.887 143.139 C 220.805 143.384,220.262 143.472,219.620 143.344 C 218.991 143.218,218.377 143.313,218.225 143.560 C 218.075 143.802,217.434 144.000,216.800 144.000 C 216.166 144.000,215.536 144.180,215.400 144.400 C 215.264 144.620,214.724 144.800,214.200 144.800 C 213.676 144.800,213.136 144.980,213.000 145.200 C 212.864 145.420,212.401 145.600,211.971 145.600 C 211.216 145.600,210.826 145.744,208.905 146.738 C 208.413 146.992,207.738 147.200,207.405 147.200 C 207.072 147.200,206.800 147.380,206.800 147.600 C 206.800 147.820,206.361 148.000,205.824 148.000 C 205.287 148.000,204.736 148.180,204.600 148.400 C 204.464 148.620,204.003 148.800,203.576 148.800 C 203.149 148.800,202.800 148.980,202.800 149.200 C 202.800 149.420,202.440 149.600,202.000 149.600 C 201.560 149.600,201.200 149.780,201.200 150.000 C 201.200 150.220,200.840 150.400,200.400 150.400 C 199.960 150.400,199.600 150.580,199.600 150.800 C 199.600 151.020,199.240 151.200,198.800 151.200 C 198.360 151.200,198.000 151.380,198.000 151.600 C 198.000 151.820,197.640 152.000,197.200 152.000 C 196.760 152.000,196.400 152.180,196.400 152.400 C 196.400 152.620,196.122 152.800,195.783 152.800 C 195.444 152.800,194.780 153.160,194.308 153.600 C 193.836 154.040,193.213 154.400,192.925 154.400 C 192.636 154.400,192.400 154.580,192.400 154.800 C 192.400 155.020,192.130 155.200,191.800 155.200 C 191.470 155.200,191.200 155.380,191.200 155.600 C 191.200 155.820,190.880 156.000,190.488 156.000 C 190.097 156.000,189.517 156.360,189.200 156.800 C 188.883 157.240,188.380 157.600,188.083 157.600 C 187.786 157.600,187.292 157.825,186.985 158.100 C 185.700 159.252,185.215 159.600,184.892 159.600 C 184.705 159.600,184.200 159.927,183.771 160.327 C 183.342 160.727,182.692 161.222,182.327 161.427 C 180.597 162.399,166.000 176.336,166.000 177.015 C 166.000 177.137,165.558 177.678,165.018 178.218 C 163.979 179.258,158.000 179.753,158.000 178.800 C 158.000 178.255,138.937 178.255,138.600 178.800 C 138.464 179.020,136.833 179.200,134.976 179.200 C 132.992 179.200,131.600 179.365,131.600 179.600 C 131.600 179.820,130.621 180.000,129.424 180.000 C 128.227 180.000,127.136 180.180,127.000 180.400 C 126.864 180.620,125.953 180.800,124.976 180.800 C 123.999 180.800,123.200 180.980,123.200 181.200 C 123.200 181.420,122.491 181.600,121.624 181.600 C 120.757 181.600,119.936 181.780,119.800 182.000 C 119.664 182.220,118.933 182.400,118.176 182.400 C 117.419 182.400,116.800 182.580,116.800 182.800 C 116.800 183.020,116.170 183.200,115.400 183.200 C 114.630 183.200,114.000 183.380,114.000 183.600 C 114.000 183.820,113.471 184.000,112.824 184.000 C 112.177 184.000,111.536 184.180,111.400 184.400 C 111.264 184.620,110.713 184.800,110.176 184.800 C 109.639 184.800,109.200 184.980,109.200 185.200 C 109.200 185.420,108.840 185.600,108.400 185.600 C 107.960 185.600,107.600 185.780,107.600 186.000 C 107.600 186.220,107.060 186.400,106.400 186.400 C 105.740 186.400,105.200 186.580,105.200 186.800 C 105.200 187.020,104.851 187.200,104.424 187.200 C 103.997 187.200,103.536 187.380,103.400 187.600 C 103.264 187.820,102.713 188.000,102.176 188.000 C 101.639 188.000,101.200 188.180,101.200 188.400 C 101.200 188.620,100.840 188.800,100.400 188.800 C 99.960 188.800,99.600 188.980,99.600 189.200 C 99.600 189.420,99.240 189.600,98.800 189.600 C 98.360 189.600,98.000 189.780,98.000 190.000 C 98.000 190.220,97.640 190.400,97.200 190.400 C 96.760 190.400,96.400 190.580,96.400 190.800 C 96.400 191.020,96.040 191.200,95.600 191.200 C 95.160 191.200,94.800 191.380,94.800 191.600 C 94.800 191.820,94.429 192.000,93.976 192.000 C 93.523 192.000,93.254 192.163,93.377 192.363 C 93.500 192.562,93.241 192.631,92.801 192.516 C 92.259 192.374,92.000 192.503,92.000 192.916 C 92.000 193.328,91.741 193.457,91.200 193.316 C 90.753 193.199,90.400 193.304,90.400 193.553 C 90.400 193.799,90.040 194.000,89.600 194.000 C 89.160 194.000,88.800 194.180,88.800 194.400 C 88.800 194.620,88.440 194.800,88.000 194.800 C 87.560 194.800,87.200 194.980,87.200 195.200 C 87.200 195.420,86.840 195.600,86.400 195.600 C 85.960 195.600,85.600 195.780,85.600 196.000 C 85.600 196.220,85.240 196.400,84.800 196.400 C 84.360 196.400,84.000 196.580,84.000 196.800 C 84.000 197.020,83.640 197.200,83.200 197.200 C 82.760 197.200,82.400 197.380,82.400 197.600 C 82.400 197.820,82.040 198.000,81.600 198.000 C 81.160 198.000,80.800 198.180,80.800 198.400 C 80.800 198.620,80.440 198.800,80.000 198.800 C 79.560 198.800,79.200 198.980,79.200 199.200 C 79.200 199.420,78.840 199.600,78.400 199.600 C 77.960 199.600,77.600 199.746,77.600 199.925 C 77.600 200.104,76.970 200.498,76.200 200.800 C 75.430 201.102,74.800 201.496,74.800 201.675 C 74.800 201.854,74.440 202.000,74.000 202.000 C 73.560 202.000,73.200 202.180,73.200 202.400 C 73.200 202.620,72.840 202.800,72.400 202.800 C 71.960 202.800,71.600 202.980,71.600 203.200 C 71.600 203.420,71.240 203.600,70.800 203.600 C 70.360 203.600,70.000 203.780,70.000 204.000 C 70.000 204.220,69.640 204.400,69.200 204.400 C 68.760 204.400,68.400 204.580,68.400 204.800 C 68.400 205.020,68.040 205.200,67.600 205.200 C 67.160 205.200,66.800 205.380,66.800 205.600 C 66.800 205.820,66.440 206.000,66.000 206.000 C 65.560 206.000,65.200 206.180,65.200 206.400 C 65.200 206.620,64.840 206.800,64.400 206.800 C 63.960 206.800,63.600 206.980,63.600 207.200 C 63.600 207.420,63.240 207.600,62.800 207.600 C 62.360 207.600,62.000 207.780,62.000 208.000 C 62.000 208.220,61.720 208.400,61.377 208.400 C 61.034 208.400,59.948 208.850,58.963 209.400 C 57.978 209.950,56.908 210.400,56.586 210.400 C 56.264 210.400,56.000 210.580,56.000 210.800 C 56.000 211.062,47.750 211.200,32.049 211.200 C 4.674 211.200,6.628 210.956,2.661 214.874 L 0.200 217.304 0.094 269.279 C -0.017 323.993,-0.017 324.000,1.646 324.000 C 1.841 324.000,2.000 324.204,2.000 324.453 C 2.000 325.029,4.037 326.799,4.700 326.800 C 4.975 326.800,5.200 326.980,5.200 327.200 C 5.200 327.420,5.560 327.600,6.000 327.600 C 6.440 327.600,6.800 327.780,6.800 328.000 C 6.800 328.220,7.419 328.400,8.176 328.400 C 8.933 328.400,9.664 328.580,9.800 328.800 C 10.122 329.322,13.600 329.322,13.600 328.800 C 13.600 328.538,21.600 328.400,36.800 328.400 C 52.000 328.400,60.000 328.538,60.000 328.800 C 60.000 329.051,62.467 329.200,66.600 329.200 C 70.733 329.200,73.200 329.349,73.200 329.600 C 73.200 329.831,74.467 330.000,76.200 330.000 C 77.933 330.000,79.200 330.169,79.200 330.400 C 79.200 330.620,80.179 330.800,81.376 330.800 C 82.573 330.800,83.664 330.980,83.800 331.200 C 83.936 331.420,84.746 331.600,85.600 331.600 C 86.454 331.600,87.264 331.780,87.400 332.000 C 87.536 332.220,88.447 332.400,89.424 332.400 C 90.401 332.400,91.200 332.580,91.200 332.800 C 91.200 333.020,91.830 333.200,92.600 333.200 C 93.370 333.200,94.000 333.380,94.000 333.600 C 94.000 333.820,94.540 334.000,95.200 334.000 C 95.860 334.000,96.400 334.180,96.400 334.400 C 96.400 334.620,97.019 334.800,97.776 334.800 C 98.533 334.800,99.242 334.944,99.351 335.121 C 99.460 335.297,100.472 335.693,101.600 336.000 C 102.728 336.307,103.740 336.703,103.849 336.879 C 103.958 337.056,104.487 337.200,105.024 337.200 C 105.561 337.200,106.000 337.380,106.000 337.600 C 106.000 337.820,106.272 338.000,106.604 338.000 C 106.937 338.000,107.972 338.339,108.904 338.754 C 111.780 340.033,114.938 341.183,116.300 341.447 C 117.015 341.586,117.600 341.858,117.600 342.050 C 117.600 342.243,118.140 342.400,118.800 342.400 C 119.460 342.400,120.000 342.580,120.000 342.800 C 120.000 343.020,120.540 343.200,121.200 343.200 C 121.860 343.200,122.400 343.380,122.400 343.600 C 122.400 343.820,122.940 344.000,123.600 344.000 C 124.260 344.000,124.800 344.180,124.800 344.400 C 124.800 344.620,125.250 344.800,125.800 344.800 C 126.350 344.800,126.800 344.980,126.800 345.200 C 126.800 345.420,127.329 345.600,127.976 345.600 C 128.623 345.600,129.264 345.780,129.400 346.000 C 129.536 346.220,130.267 346.400,131.024 346.400 C 131.781 346.400,132.400 346.580,132.400 346.800 C 132.400 347.020,133.030 347.200,133.800 347.200 C 134.570 347.200,135.200 347.380,135.200 347.600 C 135.200 347.820,136.010 348.000,137.000 348.000 C 137.990 348.000,138.800 348.180,138.800 348.400 C 138.800 348.620,139.520 348.800,140.400 348.800 C 141.280 348.800,142.000 348.980,142.000 349.200 C 142.000 349.420,142.990 349.600,144.200 349.600 C 145.410 349.600,146.400 349.780,146.400 350.000 C 146.400 350.222,147.459 350.400,148.776 350.400 C 150.083 350.400,151.264 350.580,151.400 350.800 C 151.536 351.020,152.976 351.200,154.600 351.200 C 156.224 351.200,157.664 351.380,157.800 351.600 C 157.963 351.864,183.871 352.000,234.224 352.000 C 284.741 352.000,310.400 351.865,310.400 351.600 C 310.400 351.380,310.694 351.200,311.053 351.200 C 311.412 351.200,312.000 350.885,312.359 350.500 C 312.718 350.115,313.357 349.608,313.779 349.373 C 314.201 349.139,314.739 348.604,314.973 348.185 C 315.208 347.767,315.895 346.942,316.500 346.352 C 317.105 345.762,317.600 345.063,317.600 344.800 C 317.600 344.537,318.140 343.817,318.800 343.200 C 319.460 342.583,320.000 341.896,320.000 341.673 C 320.000 341.449,320.150 341.207,320.333 341.133 C 320.811 340.941,325.200 335.133,325.200 334.691 C 325.200 334.488,325.740 333.817,326.400 333.200 C 327.060 332.583,327.600 331.863,327.600 331.600 C 327.600 331.337,328.140 330.617,328.800 330.000 C 329.460 329.383,330.000 328.663,330.000 328.400 C 330.000 328.137,330.540 327.417,331.200 326.800 C 331.860 326.183,332.400 325.573,332.400 325.444 C 332.400 325.211,333.335 324.000,334.300 322.984 C 334.575 322.694,334.800 322.353,334.800 322.225 C 334.800 322.097,335.340 321.428,336.000 320.737 C 336.660 320.046,337.200 319.326,337.200 319.137 C 337.200 318.948,337.740 318.228,338.400 317.537 C 339.060 316.846,339.600 316.120,339.600 315.922 C 339.600 315.725,340.050 315.114,340.600 314.564 C 341.150 314.014,341.600 313.324,341.600 313.030 C 341.600 312.737,342.320 311.755,343.200 310.848 C 344.080 309.941,344.800 309.111,344.800 309.004 C 344.800 308.805,345.797 307.535,346.700 306.584 C 346.975 306.294,347.200 305.953,347.200 305.825 C 347.200 305.697,347.740 305.028,348.400 304.337 C 349.060 303.646,349.600 302.926,349.600 302.737 C 349.600 302.548,350.140 301.828,350.800 301.137 C 351.460 300.446,352.000 299.726,352.000 299.537 C 352.000 299.348,352.540 298.628,353.200 297.937 C 353.860 297.246,354.400 296.526,354.400 296.337 C 354.400 296.148,354.940 295.428,355.600 294.737 C 356.260 294.046,356.800 293.320,356.800 293.122 C 356.800 292.925,357.250 292.314,357.800 291.764 C 358.350 291.214,358.800 290.619,358.800 290.441 C 358.800 290.264,359.340 289.554,360.000 288.863 C 360.660 288.172,361.200 287.426,361.200 287.204 C 361.200 286.982,361.380 286.800,361.600 286.800 C 361.820 286.800,362.000 286.618,362.000 286.396 C 362.000 286.174,362.540 285.428,363.200 284.737 C 363.860 284.046,364.400 283.326,364.400 283.137 C 364.400 282.948,364.940 282.228,365.600 281.537 C 366.260 280.846,366.800 280.126,366.800 279.937 C 366.800 279.748,367.340 279.028,368.000 278.337 C 368.660 277.646,369.200 276.931,369.200 276.748 C 369.200 276.564,369.644 275.916,370.187 275.307 C 371.503 273.830,373.657 271.119,374.400 270.003 C 374.730 269.507,375.225 268.867,375.500 268.580 C 375.775 268.292,376.000 267.847,376.000 267.589 C 376.000 267.332,376.540 266.617,377.200 266.000 C 377.860 265.383,378.400 264.719,378.400 264.524 C 378.400 264.328,379.120 263.372,380.000 262.400 C 380.880 261.428,381.600 260.482,381.600 260.298 C 381.600 260.114,382.005 259.553,382.500 259.051 C 382.995 258.549,383.850 257.539,384.400 256.806 C 384.950 256.073,385.625 255.245,385.900 254.965 C 386.175 254.686,386.400 254.346,386.400 254.210 C 386.400 254.075,386.850 253.514,387.400 252.964 C 387.950 252.414,388.400 251.820,388.400 251.644 C 388.400 251.468,388.861 250.801,389.423 250.162 C 389.986 249.523,390.733 248.460,391.083 247.800 C 391.432 247.140,392.052 246.309,392.459 245.953 C 392.867 245.597,393.200 245.078,393.200 244.800 C 393.200 244.522,393.516 244.003,393.903 243.647 C 394.289 243.291,394.860 242.505,395.170 241.900 C 395.481 241.295,395.885 240.800,396.068 240.800 C 396.250 240.800,396.400 240.530,396.400 240.200 C 396.400 239.870,396.580 239.600,396.800 239.600 C 397.020 239.600,397.200 239.240,397.200 238.800 C 397.200 238.360,397.380 238.000,397.600 238.000 C 397.820 238.000,398.000 237.460,398.000 236.800 C 398.000 236.140,398.180 235.600,398.400 235.600 C 398.620 235.600,398.800 235.186,398.800 234.680 C 398.800 234.174,399.025 233.535,399.300 233.260 C 399.674 232.886,399.800 230.195,399.800 222.600 C 399.800 215.005,399.674 212.314,399.300 211.940 C 399.025 211.665,398.800 211.026,398.800 210.520 C 398.800 210.014,398.620 209.600,398.400 209.600 C 398.180 209.600,398.000 209.150,398.000 208.600 C 398.000 208.050,397.820 207.600,397.600 207.600 C 397.380 207.600,397.200 207.240,397.200 206.800 C 397.200 206.360,397.020 206.000,396.800 206.000 C 396.580 206.000,396.400 205.680,396.400 205.288 C 396.400 204.897,396.040 204.317,395.600 204.000 C 395.160 203.683,394.800 203.143,394.800 202.800 C 394.800 202.457,394.440 201.917,394.000 201.600 C 393.560 201.283,393.200 200.774,393.200 200.470 C 393.200 199.360,386.317 193.060,384.300 192.323 C 383.695 192.103,383.200 191.759,383.200 191.561 C 383.200 191.362,382.840 191.200,382.400 191.200 C 381.960 191.200,381.600 191.020,381.600 190.800 C 381.600 190.580,381.240 190.400,380.800 190.400 C 380.360 190.400,380.000 190.220,380.000 190.000 C 380.000 189.780,379.460 189.600,378.800 189.600 C 378.140 189.600,377.600 189.420,377.600 189.200 C 377.600 188.980,377.240 188.800,376.800 188.800 C 376.360 188.800,376.000 188.620,376.000 188.400 C 376.000 188.180,375.280 188.000,374.400 188.000 C 373.520 188.000,372.800 187.820,372.800 187.600 C 372.800 187.347,369.867 187.200,364.800 187.200 C 359.733 187.200,356.800 187.347,356.800 187.600 C 356.800 187.820,356.080 188.000,355.200 188.000 C 354.320 188.000,353.600 188.180,353.600 188.400 C 353.600 188.620,353.060 188.800,352.400 188.800 C 351.740 188.800,351.200 188.980,351.200 189.200 C 351.200 189.420,350.840 189.600,350.400 189.600 C 349.960 189.600,349.600 189.780,349.600 190.000 C 349.600 190.220,349.195 190.404,348.700 190.409 C 348.205 190.414,347.350 190.770,346.800 191.200 C 346.250 191.630,345.622 191.986,345.403 191.991 C 345.185 191.996,344.063 192.650,342.909 193.445 C 340.567 195.058,339.942 195.022,339.149 193.231 C 338.850 192.554,338.469 192.000,338.302 192.000 C 338.136 192.000,338.000 191.680,338.000 191.288 C 338.000 190.897,337.640 190.317,337.200 190.000 C 336.760 189.683,336.400 189.103,336.400 188.712 C 336.400 188.320,336.250 188.000,336.068 188.000 C 335.885 188.000,335.481 187.505,335.170 186.900 C 334.860 186.295,334.289 185.509,333.903 185.153 C 333.516 184.797,333.200 184.301,333.200 184.049 C 333.200 183.798,332.660 183.028,332.000 182.337 C 331.340 181.646,330.800 180.922,330.800 180.727 C 330.800 180.533,330.215 179.765,329.500 179.022 C 328.785 178.278,327.480 176.834,326.600 175.812 C 323.877 172.650,317.472 166.238,316.000 165.200 C 315.230 164.657,314.009 163.625,313.287 162.907 C 312.564 162.188,311.818 161.600,311.629 161.600 C 311.440 161.600,310.720 161.073,310.030 160.428 C 309.340 159.784,308.241 159.020,307.588 158.730 C 306.935 158.441,306.400 158.069,306.400 157.902 C 306.400 157.736,306.130 157.600,305.800 157.600 C 305.470 157.600,305.200 157.420,305.200 157.200 C 305.200 156.980,304.930 156.800,304.600 156.800 C 304.270 156.800,304.000 156.620,304.000 156.400 C 304.000 156.180,303.730 156.000,303.400 156.000 C 303.070 156.000,302.800 155.820,302.800 155.600 C 302.800 155.380,302.480 155.200,302.088 155.200 C 301.697 155.200,301.117 154.840,300.800 154.400 C 300.483 153.960,299.903 153.600,299.512 153.600 C 299.120 153.600,298.800 153.420,298.800 153.200 C 298.800 152.980,298.440 152.800,298.000 152.800 C 297.560 152.800,297.200 152.620,297.200 152.400 C 297.200 152.180,296.840 152.000,296.400 152.000 C 295.960 152.000,295.600 151.820,295.600 151.600 C 295.600 151.380,295.240 151.200,294.800 151.200 C 294.360 151.200,294.000 151.020,294.000 150.800 C 294.000 150.580,293.640 150.400,293.200 150.400 C 292.760 150.400,292.400 150.220,292.400 150.000 C 292.400 149.780,292.040 149.600,291.600 149.600 C 291.160 149.600,290.799 149.465,290.797 149.300 C 290.793 148.894,288.814 148.000,287.920 148.000 C 287.524 148.000,287.200 147.820,287.200 147.600 C 287.200 147.380,286.851 147.200,286.424 147.200 C 285.997 147.200,285.536 147.020,285.400 146.800 C 285.264 146.580,284.713 146.400,284.176 146.400 C 283.639 146.400,283.200 146.220,283.200 146.000 C 283.200 145.780,282.660 145.600,282.000 145.600 C 281.340 145.600,280.800 145.420,280.800 145.200 C 280.800 144.980,280.260 144.800,279.600 144.800 C 278.940 144.800,278.400 144.640,278.400 144.444 C 278.400 144.081,276.366 143.615,274.200 143.483 C 273.540 143.442,272.873 143.229,272.717 143.008 C 272.385 142.538,267.550 141.709,263.015 141.344 C 258.512 140.981,258.800 141.836,258.800 128.829 L 258.800 117.600 271.000 117.600 C 278.867 117.600,283.200 117.458,283.200 117.200 C 283.200 116.975,284.325 116.800,285.776 116.800 C 287.193 116.800,288.464 116.620,288.600 116.400 C 288.736 116.180,289.726 116.000,290.800 116.000 C 291.874 116.000,292.864 115.820,293.000 115.600 C 293.136 115.380,293.957 115.200,294.824 115.200 C 295.691 115.200,296.400 115.020,296.400 114.800 C 296.400 114.580,297.019 114.400,297.776 114.400 C 298.533 114.400,299.264 114.220,299.400 114.000 C 299.536 113.780,300.177 113.600,300.824 113.600 C 301.471 113.600,302.000 113.420,302.000 113.200 C 302.000 112.980,302.540 112.800,303.200 112.800 C 303.860 112.800,304.400 112.620,304.400 112.400 C 304.400 112.180,304.839 112.000,305.376 112.000 C 305.913 112.000,306.464 111.820,306.600 111.600 C 306.736 111.380,307.287 111.200,307.824 111.200 C 308.361 111.200,308.800 111.020,308.800 110.800 C 308.800 110.580,309.160 110.400,309.600 110.400 C 310.040 110.400,310.400 110.220,310.400 110.000 C 310.400 109.780,310.940 109.600,311.600 109.600 C 312.260 109.600,312.800 109.420,312.800 109.200 C 312.800 108.980,313.104 108.800,313.476 108.800 C 314.324 108.800,321.234 105.430,323.472 103.924 C 324.392 103.306,325.337 102.800,325.572 102.800 C 325.807 102.800,326.000 102.642,326.000 102.449 C 326.000 102.255,326.540 101.873,327.200 101.600 C 327.860 101.327,328.400 100.945,328.400 100.751 C 328.400 100.558,328.672 100.400,329.004 100.400 C 329.336 100.400,330.172 99.860,330.863 99.200 C 331.554 98.540,332.322 98.000,332.571 98.000 C 332.820 98.000,333.283 97.640,333.600 97.200 C 333.917 96.760,334.407 96.400,334.688 96.400 C 334.970 96.400,335.200 96.220,335.200 96.000 C 335.200 95.780,335.386 95.600,335.613 95.600 C 335.841 95.600,336.617 95.015,337.338 94.300 C 338.060 93.585,339.159 92.640,339.780 92.200 C 341.313 91.114,351.200 81.309,351.200 80.875 C 351.200 80.684,352.010 79.670,353.000 78.622 C 353.990 77.574,354.800 76.563,354.800 76.376 C 354.800 76.189,355.250 75.586,355.800 75.036 C 356.350 74.486,356.800 73.919,356.800 73.776 C 356.800 73.633,357.250 72.981,357.800 72.327 C 358.350 71.673,358.800 70.882,358.800 70.569 C 358.800 70.256,358.980 70.000,359.200 70.000 C 359.420 70.000,359.600 69.730,359.600 69.400 C 359.600 69.070,359.780 68.800,360.000 68.800 C 360.220 68.800,360.400 68.530,360.400 68.200 C 360.400 67.870,360.580 67.600,360.800 67.600 C 361.020 67.600,361.200 67.322,361.200 66.983 C 361.200 66.644,361.560 65.980,362.000 65.508 C 362.440 65.036,362.800 64.413,362.800 64.125 C 362.800 63.836,362.980 63.600,363.200 63.600 C 363.420 63.600,363.600 63.240,363.600 62.800 C 363.600 62.360,363.780 62.000,364.000 62.000 C 364.220 62.000,364.400 61.640,364.400 61.200 C 364.400 60.760,364.580 60.400,364.800 60.400 C 365.020 60.400,365.200 60.055,365.200 59.633 C 365.200 59.212,365.335 58.807,365.500 58.733 C 365.995 58.513,368.400 53.546,368.400 52.744 C 368.400 52.335,368.580 52.000,368.800 52.000 C 369.020 52.000,369.200 51.651,369.200 51.224 C 369.200 50.797,369.380 50.336,369.600 50.200 C 369.820 50.064,370.000 49.513,370.000 48.976 C 370.000 48.439,370.180 48.000,370.400 48.000 C 370.620 48.000,370.800 47.460,370.800 46.800 C 370.800 46.140,370.980 45.600,371.200 45.600 C 371.420 45.600,371.600 45.060,371.600 44.400 C 371.600 43.740,371.760 43.200,371.956 43.200 C 372.152 43.200,372.405 42.615,372.519 41.900 C 372.633 41.185,372.936 39.880,373.193 39.000 C 374.328 35.115,375.118 30.358,375.166 27.124 C 375.185 25.872,375.380 24.736,375.600 24.600 C 375.847 24.447,376.000 20.996,376.000 15.576 C 376.000 9.992,375.855 6.800,375.600 6.800 C 375.380 6.800,375.200 6.428,375.200 5.974 C 375.200 4.989,371.310 0.974,369.800 0.400 C 368.822 0.028,331.154 -0.059,324.900 0.296 M350.400 25.600 C 350.400 26.480,350.220 27.200,350.000 27.200 C 349.780 27.200,349.600 28.010,349.600 29.000 C 349.600 29.990,349.440 30.800,349.244 30.800 C 349.048 30.800,348.778 31.430,348.644 32.200 C 348.510 32.970,348.290 34.230,348.156 35.000 C 348.022 35.770,347.752 36.400,347.556 36.400 C 347.360 36.400,347.200 36.940,347.200 37.600 C 347.200 38.260,347.020 38.800,346.800 38.800 C 346.580 38.800,346.400 39.072,346.400 39.405 C 346.400 39.738,346.236 40.323,346.035 40.705 C 345.834 41.087,345.183 42.480,344.589 43.800 C 343.995 45.120,343.170 46.881,342.755 47.712 C 342.340 48.544,342.000 49.489,342.000 49.812 C 342.000 50.136,341.820 50.400,341.600 50.400 C 341.380 50.400,341.200 50.760,341.200 51.200 C 341.200 51.640,341.020 52.000,340.800 52.000 C 340.580 52.000,340.400 52.320,340.400 52.712 C 340.400 53.103,340.040 53.683,339.600 54.000 C 339.160 54.317,338.800 54.857,338.800 55.200 C 338.800 55.543,338.440 56.083,338.000 56.400 C 337.560 56.717,337.200 57.257,337.200 57.600 C 337.200 57.943,336.840 58.483,336.400 58.800 C 335.960 59.117,335.600 59.517,335.600 59.688 C 335.600 59.859,334.880 60.741,334.000 61.648 C 333.120 62.555,332.400 63.457,332.400 63.654 C 332.400 63.851,330.915 65.522,329.100 67.368 C 327.285 69.215,325.115 71.462,324.277 72.363 C 323.440 73.263,322.495 74.000,322.177 74.000 C 321.860 74.000,321.599 74.135,321.599 74.300 C 321.598 74.465,321.059 74.960,320.400 75.400 C 319.741 75.840,319.202 76.419,319.201 76.687 C 319.201 76.956,318.969 77.086,318.686 76.978 C 318.403 76.869,317.781 77.145,317.303 77.590 C 316.825 78.036,316.280 78.400,316.092 78.400 C 315.904 78.400,315.402 78.715,314.975 79.100 C 314.549 79.485,313.705 80.055,313.100 80.368 C 312.495 80.680,312.000 81.085,312.000 81.268 C 312.000 81.450,311.640 81.600,311.200 81.600 C 310.760 81.600,310.400 81.780,310.400 82.000 C 310.400 82.220,310.130 82.400,309.800 82.400 C 309.470 82.400,309.200 82.580,309.200 82.800 C 309.200 83.020,308.840 83.200,308.400 83.200 C 307.960 83.200,307.600 83.380,307.600 83.600 C 307.600 83.820,307.240 84.000,306.800 84.000 C 306.360 84.000,306.000 84.180,306.000 84.400 C 306.000 84.620,305.640 84.800,305.200 84.800 C 304.760 84.800,304.400 84.980,304.400 85.200 C 304.400 85.420,304.040 85.600,303.600 85.600 C 303.160 85.600,302.800 85.780,302.800 86.000 C 302.800 86.220,302.440 86.400,302.000 86.400 C 301.560 86.400,301.200 86.580,301.200 86.800 C 301.200 87.020,300.761 87.200,300.224 87.200 C 299.687 87.200,299.136 87.380,299.000 87.600 C 298.864 87.820,298.403 88.000,297.976 88.000 C 297.549 88.000,297.200 88.180,297.200 88.400 C 297.200 88.620,296.660 88.800,296.000 88.800 C 295.340 88.800,294.800 88.980,294.800 89.200 C 294.800 89.420,294.170 89.600,293.400 89.600 C 292.630 89.600,292.000 89.780,292.000 90.000 C 292.000 90.220,291.460 90.400,290.800 90.400 C 290.140 90.400,289.600 90.580,289.600 90.800 C 289.600 91.020,288.834 91.200,287.897 91.200 C 286.961 91.200,285.566 91.387,284.797 91.615 C 283.211 92.086,274.548 92.759,266.100 93.067 L 260.400 93.275 260.400 91.638 C 260.400 90.737,260.580 90.000,260.800 90.000 C 261.020 90.000,261.200 89.190,261.200 88.200 C 261.200 87.210,261.380 86.400,261.600 86.400 C 261.820 86.400,262.000 85.770,262.000 85.000 C 262.000 84.230,262.180 83.600,262.400 83.600 C 262.620 83.600,262.800 82.970,262.800 82.200 C 262.800 81.430,262.980 80.800,263.200 80.800 C 263.420 80.800,263.600 80.260,263.600 79.600 C 263.600 78.940,263.780 78.400,264.000 78.400 C 264.220 78.400,264.400 78.128,264.400 77.795 C 264.400 77.462,264.557 76.877,264.750 76.495 C 266.248 73.520,266.800 72.247,266.800 71.762 C 266.800 71.453,266.980 71.200,267.200 71.200 C 267.420 71.200,267.604 70.885,267.609 70.500 C 267.614 70.115,267.970 69.350,268.400 68.800 C 268.830 68.250,269.186 67.575,269.191 67.300 C 269.196 67.025,269.380 66.800,269.600 66.800 C 269.820 66.800,270.000 66.440,270.000 66.000 C 270.000 65.560,270.180 65.200,270.400 65.200 C 270.620 65.200,270.800 64.922,270.800 64.583 C 270.800 64.244,271.160 63.580,271.600 63.108 C 272.040 62.636,272.400 62.013,272.400 61.725 C 272.400 61.436,272.558 61.200,272.751 61.200 C 272.945 61.200,273.327 60.660,273.600 60.000 C 273.873 59.340,274.243 58.800,274.422 58.800 C 274.600 58.800,274.872 58.403,275.026 57.918 C 275.180 57.432,276.002 56.366,276.853 55.549 C 277.704 54.732,278.400 53.881,278.400 53.659 C 278.400 52.932,287.326 44.255,290.600 41.800 C 292.360 40.480,293.860 39.265,293.933 39.100 C 294.007 38.935,294.288 38.800,294.558 38.800 C 294.828 38.800,295.398 38.485,295.825 38.100 C 296.251 37.715,297.095 37.145,297.700 36.832 C 298.305 36.520,298.800 36.115,298.800 35.932 C 298.800 35.750,299.160 35.600,299.600 35.600 C 300.040 35.600,300.400 35.420,300.400 35.200 C 300.400 34.980,300.760 34.800,301.200 34.800 C 301.640 34.800,302.000 34.654,302.000 34.475 C 302.000 34.296,302.630 33.902,303.400 33.600 C 304.170 33.298,304.800 32.904,304.800 32.725 C 304.800 32.546,305.160 32.400,305.600 32.400 C 306.040 32.400,306.400 32.220,306.400 32.000 C 306.400 31.780,306.760 31.600,307.200 31.600 C 307.640 31.600,308.000 31.420,308.000 31.200 C 308.000 30.980,308.360 30.800,308.800 30.800 C 309.240 30.800,309.600 30.620,309.600 30.400 C 309.600 30.180,310.140 30.000,310.800 30.000 C 311.460 30.000,312.000 29.820,312.000 29.600 C 312.000 29.380,312.360 29.200,312.800 29.200 C 313.240 29.200,313.600 29.020,313.600 28.800 C 313.600 28.580,314.140 28.400,314.800 28.400 C 315.460 28.400,316.000 28.220,316.000 28.000 C 316.000 27.780,316.630 27.600,317.400 27.600 C 318.170 27.600,318.800 27.420,318.800 27.200 C 318.800 26.980,319.430 26.800,320.200 26.800 C 320.970 26.800,321.600 26.620,321.600 26.400 C 321.600 26.180,322.395 26.000,323.367 26.000 C 324.338 26.000,325.193 25.822,325.267 25.605 C 325.342 25.381,328.258 25.096,332.000 24.946 C 335.630 24.801,338.960 24.540,339.400 24.367 C 339.840 24.193,342.495 24.039,345.300 24.025 L 350.400 24.000 350.400 25.600 M176.400 47.600 C 176.400 47.843,178.200 48.000,181.000 48.000 C 183.800 48.000,185.600 48.157,185.600 48.400 C 185.600 48.620,186.500 48.800,187.600 48.800 C 188.700 48.800,189.600 48.980,189.600 49.200 C 189.600 49.420,190.219 49.600,190.976 49.600 C 191.733 49.600,192.464 49.780,192.600 50.000 C 192.736 50.220,193.287 50.400,193.824 50.400 C 194.361 50.400,194.800 50.580,194.800 50.800 C 194.800 51.020,195.239 51.200,195.776 51.200 C 196.313 51.200,196.864 51.380,197.000 51.600 C 197.136 51.820,197.597 52.000,198.024 52.000 C 198.451 52.000,198.800 52.180,198.800 52.400 C 198.800 52.620,199.053 52.800,199.362 52.800 C 200.028 52.800,203.341 54.468,203.533 54.900 C 203.607 55.065,204.012 55.200,204.433 55.200 C 204.855 55.200,205.200 55.380,205.200 55.600 C 205.200 55.820,205.545 56.000,205.967 56.000 C 206.388 56.000,206.793 56.139,206.867 56.308 C 206.940 56.477,208.080 57.324,209.400 58.189 C 210.720 59.054,212.461 60.446,213.269 61.281 C 214.076 62.116,214.931 62.800,215.169 62.800 C 215.406 62.800,215.600 62.980,215.600 63.200 C 215.600 63.420,215.793 63.600,216.029 63.600 C 216.529 63.600,217.012 64.080,218.445 66.000 C 219.019 66.770,220.324 68.284,221.345 69.364 C 222.365 70.444,223.200 71.529,223.200 71.775 C 223.200 72.022,223.560 72.483,224.000 72.800 C 224.440 73.117,224.800 73.585,224.800 73.839 C 224.800 74.094,225.070 74.526,225.400 74.800 C 225.730 75.074,226.000 75.636,226.000 76.049 C 226.000 76.463,226.280 76.800,226.624 76.800 C 226.967 76.800,227.143 76.968,227.016 77.174 C 226.889 77.380,227.148 78.195,227.592 78.986 C 228.037 79.777,228.400 80.689,228.400 81.012 C 228.400 81.335,228.580 81.600,228.800 81.600 C 229.020 81.600,229.200 81.960,229.200 82.400 C 229.200 82.840,229.380 83.200,229.600 83.200 C 229.820 83.200,230.000 83.560,230.000 84.000 C 230.000 84.440,230.180 84.800,230.400 84.800 C 230.620 84.800,230.800 85.340,230.800 86.000 C 230.800 86.660,230.980 87.200,231.200 87.200 C 231.420 87.200,231.600 87.740,231.600 88.400 C 231.600 89.060,231.780 89.600,232.000 89.600 C 232.220 89.600,232.400 90.230,232.400 91.000 C 232.400 91.770,232.580 92.400,232.800 92.400 C 233.020 92.400,233.200 92.594,233.200 92.830 C 233.200 94.034,209.071 92.004,207.757 90.690 C 207.597 90.531,206.957 90.400,206.333 90.400 C 205.710 90.400,205.200 90.220,205.200 90.000 C 205.200 89.780,204.750 89.600,204.200 89.600 C 203.650 89.600,203.200 89.420,203.200 89.200 C 203.200 88.980,202.750 88.800,202.200 88.800 C 201.650 88.800,201.200 88.620,201.200 88.400 C 201.200 88.180,200.840 88.000,200.400 88.000 C 199.960 88.000,199.600 87.820,199.600 87.600 C 199.600 87.380,199.240 87.200,198.800 87.200 C 198.360 87.200,198.000 87.020,198.000 86.800 C 198.000 86.580,197.640 86.400,197.200 86.400 C 196.760 86.400,196.400 86.220,196.400 86.000 C 196.400 85.780,196.040 85.600,195.600 85.600 C 195.160 85.600,194.800 85.420,194.800 85.200 C 194.800 84.980,194.480 84.800,194.088 84.800 C 193.697 84.800,193.117 84.440,192.800 84.000 C 192.483 83.560,192.073 83.200,191.888 83.200 C 191.530 83.200,188.597 81.003,187.600 79.989 C 187.270 79.652,186.190 78.759,185.200 78.002 C 184.210 77.246,182.860 76.022,182.200 75.282 C 181.540 74.542,180.055 72.936,178.900 71.714 C 177.745 70.492,176.800 69.286,176.800 69.035 C 176.800 68.783,176.440 68.317,176.000 68.000 C 175.560 67.683,175.200 67.114,175.200 66.735 C 175.200 66.357,175.025 65.939,174.811 65.807 C 174.597 65.674,174.115 64.899,173.740 64.083 C 173.365 63.267,172.730 62.122,172.329 61.538 C 171.928 60.954,171.600 60.189,171.600 59.838 C 171.600 59.487,171.420 59.200,171.200 59.200 C 170.980 59.200,170.800 58.840,170.800 58.400 C 170.800 57.960,170.620 57.600,170.400 57.600 C 170.180 57.600,170.000 57.251,170.000 56.824 C 170.000 56.397,169.820 55.936,169.600 55.800 C 169.380 55.664,169.200 55.113,169.200 54.576 C 169.200 54.039,169.020 53.600,168.800 53.600 C 168.580 53.600,168.400 53.060,168.400 52.400 C 168.400 51.740,168.220 51.200,168.000 51.200 C 167.780 51.200,167.600 50.480,167.600 49.600 C 167.600 48.720,167.420 48.000,167.200 48.000 C 166.980 48.000,166.800 47.820,166.800 47.600 C 166.800 47.356,168.667 47.200,171.600 47.200 C 174.533 47.200,176.400 47.356,176.400 47.600 M247.600 164.800 C 247.600 165.045,249.533 165.200,252.600 165.200 C 255.667 165.200,257.600 165.355,257.600 165.600 C 257.600 165.820,258.579 166.000,259.776 166.000 C 260.973 166.000,262.064 166.180,262.200 166.400 C 262.336 166.620,263.247 166.800,264.224 166.800 C 265.201 166.800,266.000 166.960,266.000 167.156 C 266.000 167.352,266.675 167.627,267.500 167.768 C 271.151 168.390,271.600 168.507,271.600 168.844 C 271.600 169.040,272.140 169.200,272.800 169.200 C 273.460 169.200,274.000 169.380,274.000 169.600 C 274.000 169.820,274.342 170.000,274.759 170.000 C 275.177 170.000,276.545 170.540,277.800 171.200 C 279.055 171.860,280.423 172.400,280.841 172.400 C 281.258 172.400,281.600 172.580,281.600 172.800 C 281.600 173.020,281.945 173.200,282.367 173.200 C 282.788 173.200,283.193 173.335,283.267 173.500 C 283.477 173.973,285.856 175.200,286.562 175.200 C 286.913 175.200,287.200 175.380,287.200 175.600 C 287.200 175.820,287.520 176.000,287.912 176.000 C 288.303 176.000,288.883 176.360,289.200 176.800 C 289.517 177.240,290.097 177.600,290.488 177.600 C 290.880 177.600,291.200 177.780,291.200 178.000 C 291.200 178.220,291.382 178.400,291.604 178.400 C 291.826 178.400,292.572 178.940,293.263 179.600 C 293.954 180.260,294.696 180.800,294.912 180.800 C 295.129 180.800,295.597 181.124,295.953 181.519 C 296.309 181.914,297.230 182.678,298.000 183.215 C 298.770 183.753,300.677 185.454,302.239 186.996 C 303.800 188.538,305.870 190.550,306.839 191.467 C 308.891 193.410,309.309 193.905,310.009 195.225 C 310.293 195.761,310.857 196.491,311.263 196.847 C 311.668 197.203,312.000 197.653,312.001 197.847 C 312.001 198.041,312.541 198.830,313.200 199.600 C 313.859 200.370,314.399 201.225,314.399 201.500 C 314.400 201.775,314.580 202.000,314.800 202.000 C 315.020 202.000,315.200 202.236,315.200 202.525 C 315.200 202.813,315.525 203.398,315.922 203.825 C 316.320 204.251,316.903 205.185,317.220 205.900 C 317.536 206.615,317.931 207.200,318.098 207.200 C 318.264 207.200,318.400 207.560,318.400 208.000 C 318.400 208.440,318.535 208.801,318.700 208.803 C 319.059 208.807,320.000 210.744,320.000 211.480 C 320.000 211.766,320.180 212.000,320.400 212.000 C 320.620 212.000,320.800 212.360,320.800 212.800 C 320.800 213.240,320.980 213.600,321.200 213.600 C 322.644 213.600,321.376 215.853,318.098 219.115 C 316.172 221.032,314.176 223.140,313.663 223.800 C 309.423 229.255,303.600 234.254,303.600 232.438 C 303.600 231.622,301.999 228.288,301.500 228.067 C 301.335 227.993,301.200 227.678,301.200 227.367 C 301.200 227.055,301.020 226.800,300.800 226.800 C 300.580 226.800,300.400 226.570,300.400 226.288 C 300.400 226.007,300.040 225.517,299.600 225.200 C 299.160 224.883,298.800 224.402,298.800 224.131 C 298.800 223.489,292.911 217.600,292.269 217.600 C 291.998 217.600,291.517 217.240,291.200 216.800 C 290.883 216.360,290.393 216.000,290.112 216.000 C 289.830 216.000,289.600 215.850,289.600 215.667 C 289.600 215.205,284.856 212.800,283.944 212.800 C 283.535 212.800,283.200 212.620,283.200 212.400 C 283.200 212.180,282.660 212.000,282.000 212.000 C 281.340 212.000,280.800 211.820,280.800 211.600 C 280.800 211.380,280.181 211.200,279.424 211.200 C 278.667 211.200,277.936 211.020,277.800 210.800 C 277.640 210.541,269.604 210.400,255.000 210.400 C 238.841 210.400,232.369 210.274,232.171 209.954 C 232.004 209.683,231.208 209.585,230.148 209.705 C 229.187 209.813,228.400 209.734,228.400 209.530 C 228.400 209.326,227.860 208.970,227.200 208.740 C 226.540 208.510,226.000 208.159,226.000 207.961 C 226.000 207.762,225.821 207.600,225.602 207.600 C 225.383 207.600,224.285 206.700,223.161 205.600 C 222.038 204.500,220.939 203.600,220.720 203.600 C 220.501 203.600,219.817 203.060,219.200 202.400 C 218.583 201.740,217.926 201.200,217.740 201.199 C 217.553 201.199,216.770 200.659,216.000 200.000 C 215.230 199.341,214.415 198.801,214.188 198.801 C 213.962 198.800,213.517 198.440,213.200 198.000 C 212.883 197.560,212.386 197.200,212.095 197.200 C 211.804 197.200,211.180 196.840,210.708 196.400 C 210.236 195.960,209.613 195.600,209.325 195.600 C 209.036 195.600,208.800 195.420,208.800 195.200 C 208.800 194.980,208.642 194.800,208.448 194.800 C 208.255 194.800,207.051 194.170,205.772 193.400 C 204.493 192.630,203.121 192.000,202.724 192.000 C 202.326 192.000,202.000 191.820,202.000 191.600 C 202.000 191.380,201.640 191.200,201.200 191.200 C 200.760 191.200,200.400 191.020,200.400 190.800 C 200.400 190.580,200.040 190.400,199.600 190.400 C 199.160 190.400,198.800 190.220,198.800 190.000 C 198.800 189.780,198.440 189.600,198.000 189.600 C 197.560 189.600,197.200 189.420,197.200 189.200 C 197.200 188.980,196.840 188.800,196.400 188.800 C 195.960 188.800,195.600 188.620,195.600 188.400 C 195.600 188.180,195.060 188.000,194.400 188.000 C 193.740 188.000,193.200 187.820,193.200 187.600 C 193.200 187.380,192.840 187.200,192.400 187.200 C 191.960 187.200,191.600 187.092,191.600 186.960 C 191.600 186.616,194.024 184.400,194.400 184.400 C 194.574 184.400,195.574 183.590,196.622 182.600 C 197.670 181.610,198.729 180.800,198.975 180.800 C 199.222 180.800,199.683 180.440,200.000 180.000 C 200.317 179.560,200.857 179.200,201.200 179.200 C 201.543 179.200,202.083 178.840,202.400 178.400 C 202.717 177.960,203.257 177.600,203.600 177.600 C 203.943 177.600,204.483 177.240,204.800 176.800 C 205.117 176.360,205.682 176.000,206.055 176.000 C 206.428 176.000,206.793 175.865,206.867 175.700 C 207.057 175.271,213.096 172.400,213.807 172.400 C 214.133 172.400,214.400 172.220,214.400 172.000 C 214.400 171.780,214.760 171.600,215.200 171.600 C 215.640 171.600,216.000 171.420,216.000 171.200 C 216.000 170.980,216.439 170.800,216.976 170.800 C 217.513 170.800,218.064 170.620,218.200 170.400 C 218.336 170.180,218.797 170.000,219.224 170.000 C 219.651 170.000,220.000 169.820,220.000 169.600 C 220.000 169.380,220.540 169.200,221.200 169.200 C 221.860 169.200,222.400 169.020,222.400 168.800 C 222.400 168.580,223.030 168.400,223.800 168.400 C 224.570 168.400,225.200 168.220,225.200 168.000 C 225.200 167.780,225.740 167.600,226.400 167.600 C 227.060 167.600,227.600 167.420,227.600 167.200 C 227.600 166.980,228.500 166.800,229.600 166.800 C 230.700 166.800,231.600 166.620,231.600 166.400 C 231.600 166.180,232.579 166.000,233.776 166.000 C 234.973 166.000,236.064 165.820,236.200 165.600 C 236.343 165.368,238.537 165.200,241.424 165.200 C 244.475 165.200,246.400 165.045,246.400 164.800 C 246.400 164.580,246.670 164.400,247.000 164.400 C 247.330 164.400,247.600 164.580,247.600 164.800 M156.800 204.000 C 156.800 204.231,158.067 204.400,159.800 204.400 C 161.533 204.400,162.800 204.569,162.800 204.800 C 162.800 205.020,163.689 205.200,164.776 205.200 C 165.863 205.200,166.852 205.361,166.974 205.558 C 167.095 205.755,167.871 206.010,168.697 206.126 C 170.737 206.411,172.439 206.795,173.400 207.187 C 174.957 207.821,178.502 208.800,179.246 208.800 C 179.661 208.800,180.000 208.980,180.000 209.200 C 180.000 209.420,180.540 209.600,181.200 209.600 C 181.860 209.600,182.400 209.780,182.400 210.000 C 182.400 210.220,182.760 210.400,183.200 210.400 C 183.640 210.400,184.000 210.580,184.000 210.800 C 184.000 211.020,184.360 211.200,184.800 211.200 C 185.240 211.200,185.600 211.380,185.600 211.600 C 185.600 211.820,185.960 212.000,186.400 212.000 C 186.840 212.000,187.200 212.180,187.200 212.400 C 187.200 212.620,187.560 212.800,188.000 212.800 C 188.440 212.800,188.800 212.980,188.800 213.200 C 188.800 213.420,189.160 213.600,189.600 213.600 C 190.040 213.600,190.400 213.780,190.400 214.000 C 190.400 214.220,190.760 214.400,191.200 214.400 C 191.640 214.400,192.000 214.536,192.000 214.702 C 192.000 214.869,192.585 215.264,193.300 215.580 C 194.015 215.897,194.949 216.480,195.375 216.878 C 195.802 217.275,196.304 217.600,196.492 217.600 C 196.680 217.600,197.220 217.960,197.692 218.400 C 198.164 218.840,198.787 219.200,199.075 219.200 C 199.364 219.200,199.600 219.350,199.600 219.532 C 199.600 219.715,200.095 220.120,200.700 220.432 C 201.305 220.745,202.213 221.405,202.718 221.900 C 203.223 222.395,203.789 222.800,203.976 222.800 C 204.163 222.800,204.857 223.295,205.518 223.900 C 206.180 224.505,207.221 225.360,207.833 225.800 C 208.444 226.240,209.354 227.005,209.854 227.500 C 210.354 227.995,210.952 228.400,211.182 228.400 C 211.412 228.400,211.600 228.580,211.600 228.800 C 211.600 229.020,211.870 229.200,212.200 229.200 C 212.530 229.200,212.800 229.380,212.800 229.600 C 212.800 229.820,213.078 230.000,213.417 230.000 C 213.756 230.000,214.420 230.360,214.892 230.800 C 215.364 231.240,216.167 231.600,216.675 231.600 C 217.184 231.600,217.600 231.780,217.600 232.000 C 217.600 232.220,217.960 232.400,218.400 232.400 C 218.840 232.400,219.200 232.580,219.200 232.800 C 219.200 233.020,219.740 233.200,220.400 233.200 C 221.060 233.200,221.600 233.380,221.600 233.600 C 221.600 233.820,222.320 234.000,223.200 234.000 C 224.080 234.000,224.800 234.180,224.800 234.400 C 224.800 234.662,232.592 234.800,247.376 234.800 C 261.996 234.800,270.040 234.941,270.200 235.200 C 270.336 235.420,271.247 235.600,272.224 235.600 C 273.201 235.600,274.000 235.780,274.000 236.000 C 274.000 236.220,274.360 236.400,274.800 236.400 C 275.240 236.400,275.600 236.580,275.600 236.800 C 275.600 237.020,275.801 237.200,276.046 237.200 C 276.663 237.200,279.097 239.919,279.700 241.280 C 279.972 241.896,280.331 242.400,280.498 242.400 C 281.275 242.400,280.799 249.126,279.900 250.856 C 278.944 252.695,276.703 255.200,276.013 255.200 C 275.786 255.200,275.600 255.380,275.600 255.600 C 275.600 255.820,275.240 256.000,274.800 256.000 C 274.360 256.000,274.000 256.180,274.000 256.400 C 274.000 256.620,273.460 256.800,272.800 256.800 C 272.140 256.800,271.600 256.980,271.600 257.200 C 271.600 257.465,254.533 257.600,221.200 257.600 C 187.867 257.600,170.800 257.735,170.800 258.000 C 170.800 258.220,170.521 258.400,170.180 258.400 C 168.544 258.400,164.400 261.754,164.400 263.078 C 164.400 263.365,164.220 263.600,164.000 263.600 C 163.780 263.600,163.600 264.140,163.600 264.800 C 163.600 265.460,163.420 266.000,163.200 266.000 C 162.965 266.000,162.800 267.392,162.800 269.376 C 162.800 271.233,162.980 272.864,163.200 273.000 C 163.420 273.136,163.600 273.687,163.600 274.224 C 163.600 274.761,163.780 275.200,164.000 275.200 C 164.220 275.200,164.400 275.475,164.400 275.811 C 164.400 276.604,167.796 280.000,168.589 280.000 C 168.925 280.000,169.200 280.180,169.200 280.400 C 169.200 280.620,169.560 280.800,170.000 280.800 C 170.440 280.800,170.800 280.980,170.800 281.200 C 170.800 281.465,190.200 281.600,228.200 281.600 C 266.200 281.600,285.600 281.465,285.600 281.200 C 285.600 280.980,286.320 280.800,287.200 280.800 C 288.080 280.800,288.800 280.620,288.800 280.400 C 288.800 280.180,289.340 280.000,290.000 280.000 C 290.660 280.000,291.200 279.820,291.200 279.600 C 291.200 279.380,291.650 279.200,292.200 279.200 C 292.750 279.200,293.200 279.020,293.200 278.800 C 293.200 278.580,293.560 278.400,294.000 278.400 C 294.440 278.400,294.800 278.220,294.800 278.000 C 294.800 277.780,295.160 277.600,295.600 277.600 C 296.040 277.600,296.400 277.420,296.400 277.200 C 296.400 276.980,296.694 276.800,297.053 276.800 C 297.412 276.800,297.997 276.484,298.353 276.097 C 298.709 275.711,299.515 275.130,300.144 274.806 C 301.866 273.920,309.907 265.759,312.030 262.742 C 312.950 261.435,315.689 258.605,316.297 258.334 C 316.691 258.158,321.346 253.132,323.400 250.664 C 324.280 249.607,326.710 246.963,328.800 244.789 C 332.375 241.071,339.620 233.423,341.409 231.479 C 341.853 230.995,342.657 229.970,343.194 229.200 C 343.732 228.430,344.864 227.170,345.711 226.400 C 348.655 223.723,352.508 219.791,353.551 218.400 C 355.623 215.636,358.879 212.800,359.981 212.800 C 360.405 212.800,360.864 212.620,361.000 212.400 C 361.136 212.180,362.857 212.000,364.824 212.000 C 366.941 212.000,368.400 212.163,368.400 212.400 C 368.400 212.620,368.760 212.800,369.200 212.800 C 369.640 212.800,370.000 212.980,370.000 213.200 C 370.000 213.420,370.252 213.600,370.560 213.600 C 371.288 213.600,374.000 216.312,374.000 217.040 C 374.000 217.348,374.160 217.600,374.355 217.600 C 375.626 217.600,375.665 227.105,374.396 227.533 C 374.178 227.607,374.000 227.939,374.000 228.273 C 374.000 228.606,373.460 229.383,372.800 230.000 C 372.140 230.617,371.600 231.337,371.600 231.600 C 371.600 231.863,371.060 232.583,370.400 233.200 C 369.740 233.817,369.200 234.492,369.200 234.701 C 369.200 234.910,368.660 235.646,368.000 236.337 C 367.340 237.028,366.800 237.739,366.800 237.918 C 366.800 238.097,366.215 238.906,365.500 239.715 C 364.785 240.524,363.570 242.013,362.800 243.023 C 362.030 244.033,361.077 245.243,360.682 245.712 C 360.287 246.180,359.576 247.202,359.102 247.982 C 358.629 248.762,357.917 249.691,357.521 250.047 C 357.124 250.403,356.800 250.916,356.800 251.186 C 356.800 251.457,356.260 252.183,355.600 252.800 C 354.940 253.417,354.400 254.137,354.400 254.400 C 354.400 254.663,353.860 255.383,353.200 256.000 C 352.540 256.617,352.000 257.317,352.000 257.557 C 352.000 257.797,351.460 258.509,350.800 259.140 C 350.140 259.771,349.600 260.404,349.600 260.547 C 349.600 260.690,349.060 261.372,348.400 262.063 C 347.740 262.754,347.200 263.490,347.200 263.699 C 347.200 263.908,346.660 264.583,346.000 265.200 C 345.340 265.817,344.800 266.476,344.800 266.665 C 344.800 266.854,344.173 267.727,343.408 268.604 C 342.642 269.482,342.012 270.443,342.008 270.740 C 342.003 271.036,341.460 271.783,340.800 272.400 C 340.140 273.017,339.600 273.737,339.600 274.000 C 339.600 274.263,339.060 274.983,338.400 275.600 C 337.740 276.217,337.200 276.830,337.200 276.964 C 337.200 277.098,336.660 277.772,336.000 278.463 C 335.340 279.154,334.800 279.890,334.800 280.099 C 334.800 280.308,334.260 280.983,333.600 281.600 C 332.940 282.217,332.400 282.937,332.400 283.200 C 332.400 283.463,331.860 284.183,331.200 284.800 C 330.540 285.417,330.000 286.092,330.000 286.301 C 330.000 286.510,329.493 287.212,328.874 287.860 C 327.755 289.031,327.015 290.326,327.136 290.900 C 327.171 291.065,326.942 291.200,326.627 291.200 C 326.312 291.200,325.940 291.560,325.800 292.000 C 325.660 292.440,325.378 292.800,325.173 292.800 C 324.968 292.800,324.800 293.030,324.800 293.312 C 324.800 293.593,324.440 294.083,324.000 294.400 C 323.560 294.717,323.200 295.207,323.200 295.488 C 323.200 295.770,323.020 296.000,322.800 296.000 C 322.580 296.000,322.400 296.182,322.400 296.404 C 322.400 296.626,321.860 297.372,321.200 298.063 C 320.540 298.754,320.000 299.490,320.000 299.699 C 320.000 299.908,319.460 300.583,318.800 301.200 C 318.140 301.817,317.600 302.537,317.600 302.800 C 317.600 303.063,317.060 303.783,316.400 304.400 C 315.740 305.017,315.200 305.737,315.200 306.000 C 315.200 306.263,314.660 306.983,314.000 307.600 C 313.340 308.217,312.800 308.839,312.800 308.982 C 312.800 309.126,312.261 309.819,311.602 310.522 C 310.943 311.225,310.403 311.943,310.402 312.117 C 310.401 312.292,309.950 312.920,309.400 313.513 C 308.850 314.107,308.400 314.781,308.400 315.012 C 308.400 315.243,307.680 316.228,306.800 317.200 C 305.920 318.172,305.200 319.128,305.200 319.324 C 305.200 319.519,304.660 320.183,304.000 320.800 C 303.340 321.417,302.800 322.137,302.800 322.400 C 302.800 322.663,302.260 323.383,301.600 324.000 C 300.940 324.617,300.400 325.237,300.400 325.378 C 300.400 325.519,299.989 326.078,299.487 326.620 L 298.573 327.605 235.787 327.408 C 160.592 327.171,160.327 327.168,159.477 326.464 C 159.047 326.106,158.024 325.973,156.414 326.064 C 155.086 326.139,153.944 326.036,153.878 325.836 C 153.812 325.636,151.922 325.284,149.679 325.055 C 147.435 324.825,145.600 324.494,145.600 324.319 C 145.600 324.143,144.880 324.000,144.000 324.000 C 143.120 324.000,142.400 323.820,142.400 323.600 C 142.400 323.380,141.781 323.200,141.024 323.200 C 140.267 323.200,139.536 323.020,139.400 322.800 C 139.264 322.580,138.533 322.400,137.776 322.400 C 137.019 322.400,136.400 322.220,136.400 322.000 C 136.400 321.780,135.860 321.600,135.200 321.600 C 134.540 321.600,134.000 321.420,134.000 321.200 C 134.000 320.980,133.460 320.800,132.800 320.800 C 132.140 320.800,131.600 320.620,131.600 320.400 C 131.600 320.180,131.060 320.000,130.400 320.000 C 129.740 320.000,129.200 319.820,129.200 319.600 C 129.200 319.380,128.660 319.200,128.000 319.200 C 127.340 319.200,126.800 319.020,126.800 318.800 C 126.800 318.580,126.440 318.400,126.000 318.400 C 125.560 318.400,125.200 318.220,125.200 318.000 C 125.200 317.780,124.750 317.600,124.200 317.600 C 123.650 317.600,123.200 317.420,123.200 317.200 C 123.200 316.980,122.851 316.800,122.424 316.800 C 121.997 316.800,121.536 316.620,121.400 316.400 C 121.264 316.180,120.713 316.000,120.176 316.000 C 119.639 316.000,119.200 315.820,119.200 315.600 C 119.200 315.380,118.840 315.200,118.400 315.200 C 117.960 315.200,117.600 315.020,117.600 314.800 C 117.600 314.580,117.060 314.400,116.400 314.400 C 115.740 314.400,115.200 314.220,115.200 314.000 C 115.200 313.780,114.851 313.600,114.424 313.600 C 113.997 313.600,113.536 313.420,113.400 313.200 C 113.264 312.980,112.713 312.800,112.176 312.800 C 111.639 312.800,111.200 312.620,111.200 312.400 C 111.200 312.180,110.671 312.000,110.024 312.000 C 109.377 312.000,108.736 311.820,108.600 311.600 C 108.464 311.380,107.924 311.200,107.400 311.200 C 106.876 311.200,106.336 311.020,106.200 310.800 C 106.064 310.580,105.434 310.400,104.800 310.400 C 104.166 310.400,103.525 310.203,103.377 309.962 C 103.228 309.722,102.677 309.607,102.153 309.707 C 101.629 309.807,101.200 309.749,101.200 309.578 C 101.200 309.204,97.638 308.400,95.980 308.400 C 95.331 308.400,94.800 308.220,94.800 308.000 C 94.800 307.780,94.001 307.600,93.024 307.600 C 92.047 307.600,91.136 307.420,91.000 307.200 C 90.864 306.980,89.964 306.800,89.000 306.800 C 88.036 306.800,87.136 306.620,87.000 306.400 C 86.864 306.180,85.694 306.000,84.400 306.000 C 83.106 306.000,81.936 305.820,81.800 305.600 C 81.664 305.380,80.123 305.200,78.376 305.200 C 76.525 305.200,75.200 305.033,75.200 304.800 C 75.200 304.538,66.400 304.400,49.600 304.400 L 24.000 304.400 24.000 270.000 L 24.000 235.600 43.976 235.600 C 56.863 235.600,64.041 235.458,64.200 235.200 C 64.336 234.980,64.797 234.800,65.224 234.800 C 65.651 234.800,66.000 234.620,66.000 234.400 C 66.000 234.180,66.360 234.000,66.800 234.000 C 67.240 234.000,67.600 233.820,67.600 233.600 C 67.600 233.380,67.960 233.200,68.400 233.200 C 68.840 233.200,69.200 233.020,69.200 232.800 C 69.200 232.580,69.560 232.400,70.000 232.400 C 70.440 232.400,70.800 232.254,70.800 232.075 C 70.800 231.896,71.430 231.502,72.200 231.200 C 72.970 230.898,73.600 230.504,73.600 230.325 C 73.600 230.146,73.960 230.000,74.400 230.000 C 74.840 230.000,75.200 229.820,75.200 229.600 C 75.200 229.380,75.560 229.200,76.000 229.200 C 76.440 229.200,76.800 229.020,76.800 228.800 C 76.800 228.580,77.160 228.400,77.600 228.400 C 78.040 228.400,78.400 228.220,78.400 228.000 C 78.400 227.780,78.760 227.600,79.200 227.600 C 79.640 227.600,80.000 227.420,80.000 227.200 C 80.000 226.980,80.360 226.800,80.800 226.800 C 81.240 226.800,81.600 226.620,81.600 226.400 C 81.600 226.180,81.960 226.000,82.400 226.000 C 82.840 226.000,83.200 225.820,83.200 225.600 C 83.200 225.380,83.425 225.206,83.700 225.213 C 84.165 225.226,101.158 216.851,101.600 216.392 C 101.710 216.277,103.060 215.558,104.600 214.794 C 106.140 214.029,107.460 213.268,107.533 213.102 C 107.607 212.936,108.001 212.800,108.410 212.800 C 108.818 212.800,109.264 212.620,109.400 212.400 C 109.536 212.180,109.997 212.000,110.424 212.000 C 110.851 212.000,111.200 211.820,111.200 211.600 C 111.200 211.380,111.560 211.200,112.000 211.200 C 112.440 211.200,112.800 211.020,112.800 210.800 C 112.800 210.580,113.160 210.400,113.600 210.400 C 114.040 210.400,114.400 210.220,114.400 210.000 C 114.400 209.780,114.940 209.600,115.600 209.600 C 116.260 209.600,116.800 209.443,116.800 209.252 C 116.800 209.060,117.693 208.785,118.784 208.640 C 119.875 208.495,120.875 208.202,121.007 207.988 C 121.139 207.775,121.676 207.600,122.200 207.600 C 122.724 207.600,123.252 207.440,123.373 207.244 C 123.591 206.891,125.040 206.566,128.300 206.141 C 129.235 206.019,130.000 205.758,130.000 205.560 C 130.000 205.362,130.900 205.200,132.000 205.200 C 133.100 205.200,134.000 205.020,134.000 204.800 C 134.000 204.569,135.259 204.400,136.976 204.400 C 138.613 204.400,140.064 204.220,140.200 204.000 C 140.352 203.754,143.604 203.600,148.624 203.600 C 153.808 203.600,156.800 203.746,156.800 204.000 " stroke="none" fill="#14ac1c" fill-rule="evenodd"></path><path id="path1" d="M162.105 327.087 C 162.714 327.179,163.614 327.177,164.105 327.082 C 164.597 326.987,164.100 326.911,163.000 326.914 C 161.900 326.917,161.497 326.995,162.105 327.087 " stroke="none" fill="#18ac1c" fill-rule="evenodd"></path><path id="path2" d="M162.105 327.087 C 162.714 327.179,163.614 327.177,164.105 327.082 C 164.597 326.987,164.100 326.911,163.000 326.914 C 161.900 326.917,161.497 326.995,162.105 327.087 " stroke="none" fill="#18ac1c" fill-rule="evenodd"></path><path id="path3" d="M162.105 327.087 C 162.714 327.179,163.614 327.177,164.105 327.082 C 164.597 326.987,164.100 326.911,163.000 326.914 C 161.900 326.917,161.497 326.995,162.105 327.087 " stroke="none" fill="#18ac1c" fill-rule="evenodd"></path><path id="path4" d="M162.105 327.087 C 162.714 327.179,163.614 327.177,164.105 327.082 C 164.597 326.987,164.100 326.911,163.000 326.914 C 161.900 326.917,161.497 326.995,162.105 327.087 " stroke="none" fill="#18ac1c" fill-rule="evenodd"></path></g></svg>