<?xml version="1.0" encoding="utf-8"?>
<!-- Generator: Adobe Illustrator 16.0.0, SVG Export Plug-In . SVG Version: 6.00 Build 0)  -->
<!DOCTYPE svg PUBLIC "-//W3C//DTD SVG 1.1//EN" "http://www.w3.org/Graphics/SVG/1.1/DTD/svg11.dtd">
<svg version="1.1" id="svg" xmlns="http://www.w3.org/2000/svg" xmlns:xlink="http://www.w3.org/1999/xlink" x="0px" y="0px"
	 width="400px" height="400px" viewBox="0 0 400 400" enable-background="new 0 0 400 400" xml:space="preserve">
<g id="svgg">
	<path id="path0" fill="#14AC1C" d="M196.447,0.405C195.436,0.664,193,3.138,193,3.906c0,0.337-0.18,0.613-0.4,0.613
		c-0.235,0-0.4,1.4-0.4,3.4s0.165,3.4,0.4,3.4c0.22,0,0.4,0.276,0.4,0.613c0,0.796,2.591,3.387,3.387,3.387
		c0.337,0,0.613,0.18,0.613,0.4c0,0.239,1.533,0.4,3.8,0.4s3.8-0.161,3.8-0.4c0-0.22,0.278-0.4,0.618-0.4
		c0.8,0,2.582-1.782,2.582-2.582c0-0.34,0.181-0.618,0.4-0.618s0.399-0.439,0.399-0.976s0.18-1.088,0.4-1.224
		c0.221-0.136,0.4-1.036,0.4-2c0-0.964-0.18-1.864-0.4-2c-0.221-0.136-0.4-0.687-0.4-1.224c0-0.537-0.18-0.976-0.399-0.976
		s-0.4-0.294-0.4-0.653C207.8,0.796,201.07-0.781,196.447,0.405 M164.4,4.119c-0.136,0.22-0.957,0.4-1.824,0.4
		c-0.867,0-1.576,0.18-1.576,0.4c0,0.22-0.54,0.4-1.2,0.4c-0.66,0-1.2,0.18-1.2,0.4c0,0.22-0.54,0.4-1.2,0.4
		c-0.66,0-1.2,0.18-1.2,0.4c0,0.22-0.45,0.4-1,0.4c-0.55,0-1,0.18-1,0.4c0,0.22-0.54,0.4-1.2,0.4s-1.2,0.18-1.2,0.4
		s-0.216,0.4-0.48,0.4c-0.932,0-5.12,1.381-5.12,1.689c0,0.171-0.288,0.311-0.639,0.311c-0.764,0-7.503,3.224-7.694,3.681
		c-0.074,0.175-0.479,0.319-0.9,0.319c-0.422,0-0.767,0.18-0.767,0.4c0,0.22-0.36,0.4-0.8,0.4s-0.8,0.18-0.8,0.4
		c0,0.22-0.36,0.4-0.8,0.4c-0.44,0-0.8,0.18-0.8,0.4c0,0.22-0.236,0.4-0.525,0.4c-0.288,0-0.911,0.36-1.383,0.8
		c-0.472,0.44-1.136,0.8-1.475,0.8c-0.339,0-0.617,0.18-0.617,0.4c0,0.22-0.236,0.4-0.525,0.4c-0.288,0-0.911,0.36-1.383,0.8
		c-0.472,0.44-1.07,0.8-1.328,0.8c-0.259,0-0.761,0.316-1.117,0.703c-0.356,0.386-1.142,0.957-1.747,1.267
		c-0.605,0.311-1.1,0.715-1.1,0.898c0,0.182-0.188,0.332-0.417,0.332c-0.392,0-0.845,0.313-2.168,1.5
		c-0.307,0.275-0.724,0.5-0.927,0.5s-0.934,0.54-1.625,1.2c-0.691,0.66-1.416,1.2-1.611,1.2c-0.196,0-1.097,0.72-2.004,1.6
		c-0.907,0.88-1.737,1.6-1.844,1.6c-0.342,0-1.856,1.338-3.96,3.501c-3.569,3.669-6.958,7.042-8.944,8.899
		c-1.058,0.99-2.368,2.43-2.91,3.2c-0.542,0.77-1.662,2.097-2.488,2.948c-0.826,0.852-1.502,1.715-1.502,1.918
		c0,0.204-0.45,0.82-1,1.37c-0.55,0.55-1,1.145-1,1.321c0,0.282-0.447,0.894-1.993,2.726C87.183,57.868,87,58.273,87,58.502
		s-0.18,0.417-0.4,0.417c-0.22,0-0.4,0.27-0.4,0.6s-0.18,0.6-0.4,0.6c-0.22,0-0.4,0.23-0.4,0.512c0,0.281-0.36,0.771-0.8,1.088
		s-0.8,0.897-0.8,1.288c0,0.392-0.18,0.712-0.4,0.712c-0.22,0-0.4,0.236-0.4,0.525c0,0.288-0.36,0.911-0.8,1.383
		c-0.44,0.472-0.8,1.136-0.8,1.475c0,0.339-0.18,0.617-0.4,0.617s-0.4,0.278-0.4,0.617c0,0.339-0.36,1.003-0.8,1.475
		c-0.44,0.472-0.8,1.095-0.8,1.383c0,0.289-0.18,0.525-0.4,0.525c-0.22,0-0.4,0.36-0.4,0.8s-0.18,0.8-0.4,0.8
		c-0.22,0-0.4,0.345-0.4,0.767c0,0.421-0.144,0.826-0.319,0.9c-0.457,0.191-3.681,6.93-3.681,7.694c0,0.351-0.14,0.639-0.311,0.639
		c-0.308,0-1.689,4.188-1.689,5.12c0,0.264-0.18,0.48-0.4,0.48s-0.4,0.54-0.4,1.2s-0.18,1.2-0.4,1.2c-0.22,0-0.4,0.45-0.4,1
		c0,0.55-0.18,1-0.4,1c-0.22,0-0.4,0.54-0.4,1.2c0,0.66-0.18,1.2-0.4,1.2c-0.22,0-0.4,0.529-0.4,1.176s-0.18,1.288-0.4,1.424
		c-0.22,0.136-0.4,0.867-0.4,1.624c0,0.757-0.18,1.376-0.4,1.376s-0.4,0.72-0.4,1.6c0,0.88-0.18,1.6-0.4,1.6
		c-0.22,0-0.4,0.72-0.4,1.6s-0.18,1.6-0.4,1.6c-0.22,0-0.4,0.799-0.4,1.776s-0.18,1.888-0.4,2.024c-0.22,0.136-0.4,1.212-0.4,2.39
		c0,1.359-0.183,2.204-0.5,2.31c-0.731,0.244-0.731,41.556,0,41.8c0.325,0.108,0.5,0.996,0.5,2.533c0,1.311,0.178,2.367,0.4,2.367
		c0.22,0,0.4,0.9,0.4,2c0,1.1,0.18,2,0.4,2c0.22,0,0.4,0.72,0.4,1.6s0.18,1.6,0.4,1.6c0.22,0,0.4,0.72,0.4,1.6s0.18,1.6,0.4,1.6
		s0.4,0.63,0.4,1.4s0.18,1.4,0.4,1.4c0.22,0,0.4,0.54,0.4,1.2c0,0.66,0.18,1.2,0.4,1.2c0.22,0,0.4,0.54,0.4,1.2
		c0,0.66,0.18,1.2,0.4,1.2c0.22,0,0.4,0.54,0.4,1.2s0.18,1.2,0.4,1.2c0.22,0,0.4,0.54,0.4,1.2c0,0.66,0.16,1.2,0.355,1.2
		c0.196,0,0.478,0.653,0.628,1.45c0.15,0.798,0.8,2.602,1.445,4.01c0.644,1.408,1.172,2.826,1.172,3.15c0,0.325,0.18,0.59,0.4,0.59
		c0.22,0,0.4,0.36,0.4,0.8s0.18,0.8,0.4,0.8c0.22,0,0.4,0.36,0.4,0.8c0,0.439,0.18,0.8,0.4,0.8c0.22,0,0.4,0.36,0.4,0.8
		c0,0.44,0.18,0.801,0.4,0.801s0.4,0.359,0.4,0.799c0,0.44,0.18,0.801,0.4,0.801c0.22,0,0.4,0.36,0.4,0.8s0.159,0.8,0.353,0.8
		c0.195,0,0.454,0.315,0.576,0.7c0.217,0.688,1.476,2.906,1.872,3.3c0.11,0.11,0.469,0.74,0.797,1.4
		c0.328,0.659,0.913,1.491,1.299,1.847c0.387,0.355,0.703,0.901,0.703,1.212c0,0.31,0.36,0.824,0.8,1.142
		c0.44,0.316,0.8,0.856,0.8,1.199c0,0.344,0.36,0.883,0.8,1.2c0.44,0.317,0.8,0.897,0.8,1.288c0,0.393,0.135,0.712,0.3,0.713
		c0.165,0,1.02,1.08,1.9,2.399c0.88,1.319,1.735,2.399,1.9,2.399s0.3,0.209,0.3,0.463s0.72,1.168,1.6,2.03
		c0.88,0.863,1.6,1.718,1.6,1.9c0,0.53,14.994,15.606,15.522,15.606c0.263,0,0.478,0.18,0.478,0.4s0.194,0.4,0.431,0.4
		c0.238,0,1.123,0.72,1.969,1.6s1.749,1.6,2.008,1.6c0.259,0,0.975,0.541,1.592,1.2c0.617,0.66,1.327,1.2,1.579,1.2
		c0.251,0,0.894,0.438,1.428,0.971c0.534,0.534,1.516,1.293,2.182,1.687s1.211,0.856,1.211,1.028c0,0.174,0.27,0.314,0.6,0.314
		s0.6,0.18,0.6,0.4c0,0.22,0.236,0.399,0.525,0.399c0.288,0,0.911,0.36,1.383,0.8c0.472,0.44,1.136,0.801,1.475,0.801
		s0.617,0.149,0.617,0.332s0.495,0.588,1.1,0.899c2.082,1.075,7.7,6.431,7.7,7.343c0,0.344,0.145,0.625,0.323,0.625
		c0.289,0,1.178,1.812,1.816,3.7c0.13,0.386,0.397,0.7,0.593,0.7c0.196,0,0.271,0.45,0.166,1c-0.112,0.584-0.005,1,0.255,1
		c0.254,0,0.447,0.682,0.447,1.576c0,0.867,0.18,1.688,0.4,1.824c0.262,0.162,0.4,12.863,0.4,36.8s0.138,36.638,0.4,36.8
		c0.22,0.136,0.4,0.777,0.4,1.424s0.18,1.176,0.4,1.176c0.22,0,0.4,0.416,0.4,0.926c0,0.508,0.36,1.311,0.8,1.783
		c0.44,0.471,0.8,1.096,0.8,1.387s0.36,0.787,0.8,1.104s0.8,0.738,0.8,0.935c0,0.488,2.85,3.065,3.39,3.065
		c0.238,0,0.693,0.36,1.01,0.8c0.317,0.44,0.897,0.801,1.288,0.801c0.392,0,0.712,0.18,0.712,0.399s0.346,0.4,0.769,0.4
		c0.878,0,1.424,1.397,1.845,4.728c0.157,1.241,0.501,2.219,0.825,2.342c0.354,0.137,0.472,0.545,0.326,1.129
		c-0.127,0.502-0.035,1.035,0.203,1.182c0.237,0.146,0.432,0.6,0.432,1.006c0,0.798,1.609,4.129,2.1,4.348
		c0.165,0.073,0.3,0.479,0.3,0.899c0,0.422,0.18,0.767,0.4,0.767c0.22,0,0.4,0.236,0.4,0.525c0,0.288,0.36,0.911,0.8,1.383
		c0.44,0.473,0.8,1.064,0.8,1.315s0.54,0.96,1.2,1.577s1.2,1.305,1.2,1.529c0,0.488,5.449,6.07,5.925,6.07
		c0.182,0,0.936,0.54,1.675,1.2c0.739,0.659,1.542,1.2,1.784,1.2s0.699,0.359,1.016,0.8s0.897,0.8,1.288,0.8
		c0.392,0,0.712,0.18,0.712,0.4c0,0.22,0.278,0.399,0.617,0.399c0.339,0,1.003,0.36,1.475,0.8c0.472,0.44,1.275,0.801,1.783,0.801
		c0.509,0,0.925,0.18,0.925,0.399s0.36,0.4,0.8,0.4c0.44,0,0.8,0.18,0.8,0.399c0,0.221,0.54,0.4,1.2,0.4c0.66,0,1.2,0.18,1.2,0.4
		c0,0.22,0.525,0.399,1.167,0.399c0.641,0,1.241,0.226,1.333,0.5c0.128,0.385,2.892,0.5,12.013,0.5c8.944,0,11.97-0.123,12.347-0.5
		c0.275-0.274,1.004-0.5,1.62-0.5s1.12-0.18,1.12-0.399c0-0.221,0.439-0.4,0.977-0.4s1.088-0.18,1.224-0.4
		c0.136-0.22,0.597-0.399,1.024-0.399c0.426,0,0.775-0.181,0.775-0.4s0.359-0.399,0.8-0.399s0.8-0.181,0.8-0.4
		c0-0.221,0.271-0.4,0.601-0.4c0.329,0,0.6-0.18,0.6-0.399s0.36-0.4,0.8-0.4c0.44,0,0.801-0.18,0.801-0.399
		c0-0.221,0.32-0.4,0.711-0.4c0.392,0,0.972-0.359,1.289-0.8c0.316-0.44,0.82-0.8,1.117-0.8s0.785-0.226,1.086-0.5
		c0.301-0.275,1.318-1.131,2.26-1.9c3.21-2.625,6.828-6.639,7.845-8.7c0.353-0.715,0.787-1.3,0.966-1.3
		c0.18,0,0.326-0.359,0.326-0.8s0.15-0.8,0.333-0.8c0.403,0,2.867-4.689,2.867-5.457c0-0.299,0.18-0.543,0.399-0.543
		c0.221,0,0.4-0.45,0.4-1c0-0.551,0.18-1,0.4-1c0.22,0,0.399-0.631,0.399-1.4s0.181-1.4,0.4-1.4s0.399-0.72,0.399-1.6
		s0.18-1.6,0.4-1.6s0.4-0.463,0.4-1.029c0-1.157,0.826-2.171,1.771-2.171c0.347,0,0.629-0.15,0.629-0.332
		c0-0.183,0.495-0.589,1.101-0.9c1.24-0.64,1.605-0.938,4.002-3.274c0.938-0.912,1.927-2.161,2.199-2.776
		c0.271-0.614,0.629-1.117,0.797-1.117c0.166,0,0.302-0.36,0.302-0.8s0.18-0.8,0.399-0.8c0.221,0,0.4-0.439,0.4-0.976
		c0-0.537,0.18-1.089,0.4-1.225c0.22-0.136,0.399-0.957,0.399-1.824s0.181-1.576,0.4-1.576c0.264,0,0.399-12.467,0.399-36.6
		s0.137-36.6,0.4-36.6c0.221,0,0.4-0.619,0.4-1.377c0-0.756,0.18-1.487,0.399-1.623c0.22-0.137,0.4-0.598,0.4-1.024
		s0.18-0.776,0.399-0.776c0.221,0,0.4-0.359,0.4-0.8s0.18-0.8,0.4-0.8c0.22,0,0.399-0.359,0.399-0.8s0.181-0.8,0.4-0.8
		s0.399-0.276,0.399-0.613c0-0.338,0.615-1.229,1.367-1.98c0.751-0.752,1.477-1.717,1.613-2.144
		c0.136-0.427,0.557-0.884,0.934-1.015c0.59-0.203,2.051-1.279,4.991-3.674c0.388-0.316,0.933-0.574,1.211-0.574
		c0.279,0,0.767-0.36,1.084-0.801c0.317-0.439,0.857-0.8,1.2-0.8s0.883-0.36,1.2-0.8s0.856-0.8,1.2-0.8
		c0.343,0,0.883-0.36,1.199-0.8c0.317-0.44,0.825-0.801,1.129-0.801c0.303,0,1.055-0.539,1.672-1.199s1.336-1.2,1.6-1.2
		s0.982-0.54,1.6-1.2s1.258-1.2,1.422-1.2c0.166,0,0.953-0.675,1.746-1.5c0.795-0.825,2.24-2.04,3.213-2.7
		c2.783-1.887,12.138-11.377,13.233-13.426c0.263-0.49,1.179-1.559,2.032-2.372c0.855-0.813,1.554-1.614,1.554-1.78
		c0-0.164,0.54-0.805,1.2-1.422s1.2-1.336,1.2-1.6s0.54-0.982,1.2-1.6s1.199-1.369,1.199-1.672c0-0.304,0.36-0.812,0.801-1.129
		c0.439-0.316,0.8-0.856,0.8-1.199c0-0.344,0.36-0.883,0.8-1.2s0.8-0.857,0.8-1.2s0.36-0.883,0.8-1.2
		c0.44-0.317,0.801-0.897,0.801-1.288c0-0.392,0.18-0.712,0.399-0.712s0.4-0.192,0.4-0.428s0.507-1.181,1.127-2.101
		c0.618-0.92,1.438-2.392,1.819-3.271c0.688-1.588,0.824-1.854,2.291-4.467c0.42-0.747,0.763-1.712,0.763-2.145
		c0-0.433,0.18-0.788,0.399-0.788c0.221,0,0.4-0.36,0.4-0.8c0-0.44,0.18-0.8,0.4-0.8c0.22,0,0.399-0.36,0.399-0.8
		c0-0.44,0.181-0.8,0.4-0.8s0.399-0.36,0.399-0.8s0.18-0.8,0.4-0.8s0.4-0.45,0.4-1c0-0.55,0.18-1,0.399-1s0.4-0.349,0.4-0.776
		c0-0.427,0.18-0.888,0.399-1.024c0.221-0.136,0.4-0.687,0.4-1.224c0-0.537,0.18-0.976,0.4-0.976c0.22,0,0.399-0.54,0.399-1.2
		c0-0.66,0.181-1.2,0.4-1.2s0.399-0.54,0.399-1.2c0-0.66,0.18-1.2,0.4-1.2s0.4-0.54,0.4-1.2c0-0.66,0.18-1.2,0.399-1.2
		s0.4-0.529,0.4-1.176s0.18-1.288,0.399-1.424c0.221-0.136,0.4-0.766,0.4-1.4c0-0.634,0.18-1.264,0.4-1.4
		c0.22-0.136,0.399-0.856,0.399-1.6c0-0.744,0.181-1.464,0.4-1.6s0.399-1.047,0.399-2.024s0.18-1.776,0.4-1.776s0.4-0.9,0.4-2
		c0-1.1,0.164-2,0.365-2s0.465-1.125,0.586-2.5s0.432-4.21,0.69-6.3c0.851-6.864,0.485-33.6-0.472-34.58
		c-0.203-0.209-0.37-1.413-0.37-2.676s-0.181-2.408-0.4-2.544c-0.22-0.136-0.399-1.137-0.399-2.224s-0.18-1.976-0.4-1.976
		s-0.4-0.709-0.4-1.576c0-0.867-0.18-1.688-0.399-1.824s-0.4-0.856-0.4-1.6c0-0.744-0.18-1.464-0.399-1.6
		c-0.221-0.136-0.4-0.867-0.4-1.624c0-0.757-0.18-1.376-0.4-1.376c-0.22,0-0.399-0.529-0.399-1.176s-0.181-1.288-0.4-1.424
		c-0.22-0.136-0.399-0.777-0.399-1.424s-0.18-1.176-0.4-1.176s-0.4-0.54-0.4-1.2c0-0.66-0.146-1.2-0.328-1.2
		c-0.18,0-0.571-0.9-0.871-2c-0.301-1.1-0.692-2-0.873-2c-0.18,0-0.327-0.54-0.327-1.2s-0.181-1.2-0.4-1.2s-0.399-0.36-0.399-0.8
		s-0.18-0.8-0.4-0.8s-0.4-0.272-0.4-0.605c0-0.333-0.18-0.963-0.399-1.4s-0.58-1.153-0.8-1.59c-0.221-0.437-0.4-1.067-0.4-1.4
		s-0.146-0.605-0.325-0.605s-0.573-0.63-0.875-1.4c-0.302-0.77-0.696-1.4-0.875-1.4s-0.325-0.36-0.325-0.8s-0.18-0.8-0.399-0.8
		s-0.4-0.264-0.4-0.586c0-0.813-1.276-3.414-1.674-3.414c-0.179,0-0.326-0.36-0.326-0.8s-0.18-0.8-0.399-0.8
		c-0.221,0-0.4-0.236-0.4-0.525c0-0.288-0.359-0.911-0.8-1.383s-0.8-1.136-0.8-1.475c0-0.339-0.18-0.617-0.4-0.617
		s-0.4-0.236-0.4-0.525c0-0.288-0.359-0.911-0.8-1.383s-0.8-1.046-0.8-1.275s-0.15-0.417-0.332-0.417c-0.184,0-0.588-0.495-0.9-1.1
		s-1.063-1.577-1.668-2.16c-0.604-0.584-1.1-1.277-1.1-1.54c0-0.263-0.54-0.983-1.2-1.6c-0.659-0.617-1.2-1.333-1.2-1.592
		c0-0.259-0.72-1.162-1.6-2.008s-1.6-1.731-1.6-1.969c0-0.237-0.18-0.431-0.4-0.431s-0.4-0.214-0.4-0.475
		c0-0.512-14.65-15.125-15.164-15.125c-0.17,0-1.021-0.675-1.895-1.5c-1.928-1.822-2.744-2.478-5.448-4.366
		c-1.151-0.804-2.153-1.613-2.226-1.798c-0.074-0.185-0.439-0.336-0.813-0.336s-0.938-0.36-1.255-0.8c-0.317-0.44-0.856-0.8-1.2-0.8
		c-0.343,0-0.883-0.36-1.199-0.8c-0.317-0.44-0.814-0.8-1.105-0.8s-0.915-0.36-1.387-0.8c-0.473-0.44-1.096-0.8-1.383-0.8
		c-0.289,0-0.525-0.18-0.525-0.4c0-0.22-0.27-0.4-0.6-0.4s-0.601-0.18-0.601-0.4s-0.278-0.4-0.616-0.4c-0.34,0-1.004-0.36-1.476-0.8
		c-0.472-0.44-1.095-0.8-1.383-0.8c-0.289,0-0.525-0.18-0.525-0.4c0-0.22-0.36-0.4-0.8-0.4s-0.8-0.18-0.8-0.4
		c0-0.22-0.36-0.4-0.8-0.4c-0.44,0-0.801-0.18-0.801-0.4s-0.359-0.4-0.8-0.4s-0.8-0.18-0.8-0.4c0-0.22-0.359-0.4-0.8-0.4
		s-0.8-0.18-0.8-0.4c0-0.22-0.36-0.4-0.801-0.4c-0.439,0-0.8-0.18-0.8-0.4c0-0.22-0.265-0.4-0.59-0.4
		c-0.323,0-1.742-0.528-3.149-1.172c-1.408-0.645-3.213-1.295-4.011-1.445c-0.797-0.15-1.45-0.432-1.45-0.628
		c0-0.195-0.539-0.355-1.199-0.355s-1.2-0.18-1.2-0.4c0-0.22-0.54-0.4-1.2-0.4s-1.2-0.18-1.2-0.4c0-0.22-0.54-0.4-1.2-0.4
		s-1.199-0.18-1.199-0.4c0-0.22-0.541-0.4-1.2-0.4c-0.66,0-1.2-0.18-1.2-0.4c0-0.235-1.4-0.4-3.4-0.4s-3.399,0.165-3.399,0.4
		c0,0.22-0.29,0.4-0.644,0.4c-0.912,0-4.156,3.402-4.156,4.358c0,0.437-0.18,0.906-0.4,1.042c-0.494,0.306-0.527,3.559-0.047,4.505
		c0.195,0.382,0.6,1.235,0.9,1.895c0.864,1.899,3.137,3.8,4.541,3.8c0.334,0,0.605,0.18,0.605,0.4c0,0.22,0.452,0.4,1.005,0.4
		c0.554,0,1.318,0.158,1.7,0.351c0.382,0.193,1.415,0.565,2.295,0.826c0.88,0.262,1.96,0.627,2.4,0.812
		c2.298,0.966,4.302,1.611,5.008,1.611c0.436,0,0.792,0.18,0.792,0.4c0,0.22,0.36,0.4,0.8,0.4s0.8,0.18,0.8,0.4
		c0,0.22,0.349,0.4,0.776,0.4c0.427,0,0.888,0.18,1.023,0.4c0.137,0.22,0.688,0.4,1.225,0.4s0.976,0.18,0.976,0.4s0.36,0.4,0.8,0.4
		c0.44,0,0.801,0.18,0.801,0.4c0,0.22,0.359,0.4,0.8,0.4s0.8,0.18,0.8,0.4c0,0.22,0.27,0.4,0.6,0.4s0.601,0.159,0.601,0.353
		c0,0.195,0.315,0.454,0.7,0.576c0.936,0.296,3.065,1.595,3.232,1.971c0.074,0.165,0.439,0.3,0.813,0.3s0.938,0.36,1.255,0.8
		s0.897,0.8,1.288,0.8c0.392,0,0.712,0.18,0.712,0.4c0,0.22,0.225,0.4,0.5,0.4c0.274,0.001,1.022,0.451,1.661,1
		c0.64,0.55,1.287,1,1.438,1c0.152,0,0.8,0.45,1.438,1c0.639,0.549,1.305,0.999,1.479,1c0.175,0,0.769,0.45,1.318,1
		c0.55,0.55,1.187,1,1.414,1c0.227,0,1.104,0.72,1.95,1.6c0.846,0.88,1.73,1.6,1.968,1.6c0.522,0,12.419,11.898,13.946,13.947
		c0.596,0.799,1.578,1.93,2.185,2.513c0.604,0.584,1.101,1.232,1.101,1.441s0.541,0.945,1.2,1.636c0.66,0.691,1.2,1.411,1.2,1.6
		s0.54,0.909,1.2,1.6c0.659,0.691,1.2,1.488,1.2,1.771c0,0.283,0.359,0.775,0.8,1.092s0.8,0.814,0.8,1.105s0.359,0.915,0.8,1.387
		s0.8,1.095,0.8,1.383c0,0.289,0.18,0.525,0.4,0.525s0.4,0.255,0.4,0.567c0,0.311,0.154,0.626,0.344,0.7
		c0.415,0.161,4.855,9.17,4.855,9.852c0,0.265,0.18,0.481,0.4,0.481s0.4,0.36,0.4,0.8c0,0.44,0.18,0.8,0.399,0.8s0.4,0.36,0.4,0.8
		c0,0.44,0.18,0.8,0.399,0.8c0.221,0,0.4,0.45,0.4,1c0,0.55,0.18,1,0.4,1c0.22,0,0.399,0.36,0.399,0.8s0.181,0.8,0.4,0.8
		s0.399,0.54,0.399,1.2c0,0.66,0.18,1.2,0.4,1.2s0.4,0.439,0.4,0.976c0,0.537,0.18,1.088,0.399,1.224c0.22,0.136,0.4,0.676,0.4,1.2
		s0.18,1.064,0.399,1.2c0.221,0.136,0.4,0.676,0.4,1.2s0.18,1.064,0.4,1.2c0.22,0.136,0.399,0.777,0.399,1.424
		s0.181,1.176,0.4,1.176s0.399,0.63,0.399,1.4s0.18,1.4,0.4,1.4s0.4,0.72,0.4,1.6c0,0.88,0.18,1.6,0.399,1.6s0.4,0.9,0.4,2
		c0,1.1,0.18,2,0.399,2c0.223,0,0.4,1.067,0.4,2.4s0.178,2.4,0.4,2.4c0.23,0,0.399,1.267,0.399,3s0.169,3,0.4,3
		c0.257,0,0.399,3.933,0.399,11s-0.143,11-0.399,11c-0.233,0-0.4,1.333-0.4,3.2c0,1.867-0.167,3.2-0.399,3.2
		c-0.223,0-0.4,1.067-0.4,2.4s-0.178,2.4-0.4,2.4c-0.22,0-0.399,0.81-0.399,1.8s-0.181,1.8-0.4,1.8s-0.399,0.709-0.399,1.576
		s-0.18,1.688-0.4,1.824c-0.221,0.136-0.4,0.867-0.4,1.624c0,0.757-0.18,1.376-0.399,1.376s-0.4,0.619-0.4,1.376
		c0,0.757-0.18,1.488-0.399,1.624c-0.221,0.136-0.4,0.777-0.4,1.424s-0.18,1.176-0.4,1.176c-0.22,0-0.399,0.45-0.399,1
		c0,0.55-0.181,1-0.4,1s-0.399,0.439-0.399,0.976c0,0.537-0.18,1.088-0.4,1.224s-0.4,0.597-0.4,1.024
		c0,0.427-0.18,0.776-0.399,0.776s-0.4,0.439-0.4,0.976c0,0.537-0.18,1.088-0.399,1.224c-0.221,0.136-0.4,0.597-0.4,1.024
		c0,0.427-0.18,0.776-0.4,0.776c-0.22,0-0.399,0.36-0.399,0.8s-0.181,0.8-0.4,0.8s-0.399,0.259-0.399,0.576
		s-0.709,1.972-1.576,3.677c-0.868,1.705-1.471,3.273-1.34,3.485c0.132,0.212,0.058,0.273-0.164,0.136
		c-0.422-0.26-1.32,1.338-1.32,2.345c0,0.319-0.18,0.581-0.4,0.581c-0.22,0-0.399,0.27-0.399,0.6s-0.181,0.6-0.4,0.6
		s-0.399,0.271-0.399,0.601s-0.18,0.601-0.4,0.601s-0.4,0.319-0.4,0.711s-0.359,0.972-0.8,1.288c-0.44,0.317-0.8,0.857-0.8,1.2
		s-0.359,0.884-0.8,1.2s-0.8,0.857-0.8,1.2s-0.36,0.883-0.801,1.2c-0.439,0.316-0.8,0.805-0.8,1.084s-0.54,1.024-1.2,1.656
		c-0.66,0.631-1.199,1.279-1.199,1.442s-0.502,0.772-1.115,1.356c-0.614,0.584-1.544,1.67-2.067,2.416
		c-2.202,3.137-13.063,14.045-13.985,14.045c-0.185,0-1.078,0.72-1.984,1.6c-0.907,0.88-1.748,1.6-1.87,1.6s-0.797,0.539-1.5,1.198
		s-1.431,1.199-1.618,1.2c-0.186,0.001-0.843,0.542-1.46,1.202c-0.616,0.659-1.368,1.2-1.672,1.2c-0.303,0-0.812,0.359-1.128,0.8
		s-0.814,0.8-1.105,0.8s-0.914,0.359-1.387,0.8c-0.472,0.44-1.095,0.8-1.383,0.8c-0.289,0-0.525,0.18-0.525,0.4
		s-0.293,0.4-0.652,0.4s-0.944,0.334-1.301,0.742c-0.355,0.408-1.008,0.856-1.448,0.996c-1.442,0.455-9.798,8.965-9.798,9.979
		c0,0.278-0.36,0.765-0.801,1.082c-0.439,0.317-0.8,0.813-0.8,1.104s-0.36,0.916-0.8,1.387c-0.439,0.473-0.8,1.096-0.8,1.384
		c0,0.289-0.181,0.524-0.4,0.524s-0.399,0.45-0.399,1c0,0.551-0.18,1-0.4,1s-0.4,0.35-0.4,0.776s-0.18,0.888-0.399,1.024
		c-0.22,0.136-0.4,0.687-0.4,1.224s-0.18,0.976-0.399,0.976c-0.221,0-0.4,0.529-0.4,1.176c0,0.647-0.18,1.289-0.4,1.425
		c-0.22,0.136-0.399,0.866-0.399,1.624v1.376h-16.8H208.6v-27v-27h1.176c0.647,0,1.289,0.18,1.425,0.399
		c0.332,0.537,10.6,0.537,10.6,0c0-0.236,1.468-0.399,3.601-0.399s3.6-0.163,3.6-0.4c0-0.22,0.9-0.399,2-0.399s2-0.18,2-0.4
		s0.709-0.4,1.576-0.4s1.688-0.18,1.824-0.399c0.136-0.22,0.776-0.4,1.424-0.4c0.646,0,1.176-0.18,1.176-0.399
		c0-0.221,0.54-0.4,1.2-0.4c0.659,0,1.2-0.18,1.2-0.4c0-0.22,0.539-0.399,1.199-0.399s1.2-0.181,1.2-0.4s0.349-0.399,0.776-0.399
		c0.427,0,0.888-0.18,1.023-0.4c0.137-0.221,0.688-0.4,1.225-0.4s0.976-0.156,0.976-0.35c0-0.191,0.534-0.457,1.187-0.587
		c0.652-0.131,2.381-0.963,3.841-1.851c1.46-0.887,2.815-1.612,3.014-1.612c0.197,0,0.359-0.181,0.359-0.4s0.235-0.399,0.524-0.399
		s0.912-0.36,1.383-0.801c0.473-0.439,1.049-0.8,1.279-0.8c0.231,0,0.985-0.54,1.676-1.2c0.691-0.66,1.424-1.2,1.629-1.2
		c0.203,0,1.063-0.719,1.908-1.6c0.846-0.88,1.689-1.6,1.873-1.6c0.547,0,10.127-10.167,10.127-10.747c0-0.184,0.541-0.899,1.2-1.59
		c0.66-0.691,1.2-1.488,1.2-1.771c0-0.283,0.359-0.775,0.8-1.092s0.8-0.857,0.8-1.2c0-0.343,0.36-0.883,0.801-1.2
		c0.439-0.317,0.8-0.897,0.8-1.288c0-0.392,0.18-0.712,0.399-0.712c0.221,0,0.4-0.345,0.4-0.767c0-0.421,0.145-0.826,0.318-0.9
		c0.369-0.153,3.682-6.857,3.682-7.448c0-0.217,0.27-0.909,0.598-1.539c0.328-0.63,0.598-1.63,0.601-2.222
		c0.001-0.592,0.182-1.188,0.401-1.324c0.221-0.136,0.4-0.867,0.4-1.624c0-0.757,0.18-1.376,0.4-1.376
		c0.22,0,0.399-0.619,0.399-1.376c0-0.757,0.181-1.488,0.4-1.624c0.22-0.136,0.399-1.047,0.399-2.024s0.18-1.776,0.4-1.776
		c0.229,0,0.4-1.2,0.4-2.8c0-1.6,0.17-2.8,0.399-2.8c0.253,0,0.4-2.867,0.4-7.8c0-4.933-0.147-7.8-0.4-7.8
		c-0.228,0-0.399-1.192-0.399-2.776c0-1.527-0.18-2.888-0.4-3.024c-0.221-0.136-0.4-1.137-0.4-2.224s-0.18-1.976-0.399-1.976
		s-0.4-0.36-0.4-0.8s-0.136-0.8-0.302-0.8c-0.167,0-0.542-0.54-0.834-1.2c-0.292-0.66-0.786-1.2-1.098-1.2s-0.566-0.18-0.566-0.4
		s-0.359-0.4-0.8-0.4s-0.8-0.18-0.8-0.4c0-0.22-0.619-0.4-1.377-0.4c-0.756,0-1.487-0.18-1.623-0.4c-0.137-0.22-1.127-0.4-2.2-0.4
		c-1.074,0-2.063-0.18-2.2-0.4c-0.154-0.25-4.204-0.4-10.824-0.4c-6.783,0-10.576,0.143-10.576,0.4c0,0.222-1.066,0.4-2.399,0.4
		s-2.4,0.178-2.4,0.4c0,0.22-0.709,0.4-1.575,0.4c-0.867,0-1.688,0.18-1.824,0.4c-0.137,0.22-0.867,0.4-1.625,0.4
		c-0.756,0-1.375,0.18-1.375,0.4s-0.541,0.4-1.2,0.4c-0.66,0-1.2,0.18-1.2,0.4c0,0.22-0.54,0.4-1.2,0.4c-0.659,0-1.2,0.18-1.2,0.4
		c0,0.22-0.435,0.4-0.967,0.4c-0.531,0-1.057,0.225-1.168,0.5s-0.216-0.074-0.232-0.776c-0.019-0.702,0.147-1.388,0.367-1.524
		c0.221-0.136,0.4-1.587,0.4-3.224c0-1.717,0.169-2.976,0.4-2.976c0.252,0,0.399-2.792,0.399-7.576c0-4.62-0.155-7.673-0.399-7.824
		c-0.221-0.136-0.4-1.407-0.4-2.824s-0.154-2.576-0.342-2.576c-0.189,0-0.467-1.484-0.618-3.297c-0.151-1.814-0.447-3.47-0.657-3.68
		c-0.211-0.211-0.383-0.789-0.383-1.284c0-0.496-0.202-1.405-0.45-2.02c-0.247-0.616-0.628-1.569-0.846-2.119
		c-0.22-0.55-0.556-1.313-0.751-1.695c-0.194-0.382-0.354-1.057-0.354-1.5s-0.18-0.805-0.399-0.805s-0.4-0.36-0.4-0.8
		s-0.18-0.8-0.399-0.8c-0.221,0-0.4-0.36-0.4-0.8s-0.18-0.8-0.4-0.8c-0.22,0-0.399-0.36-0.399-0.8c0-0.44-0.181-0.8-0.4-0.8
		s-0.399-0.36-0.399-0.8c0-0.44-0.18-0.8-0.4-0.8s-0.4-0.36-0.4-0.8s-0.18-0.8-0.399-0.8s-0.4-0.278-0.4-0.617
		c0-0.339-0.36-1.003-0.8-1.475s-0.8-1.095-0.8-1.383c0-0.289-0.181-0.525-0.4-0.525s-0.399-0.27-0.399-0.6s-0.18-0.6-0.4-0.6
		s-0.4-0.23-0.4-0.512c0-0.281-0.359-0.771-0.8-1.088s-0.8-0.735-0.8-0.928c0-0.193-0.54-0.855-1.2-1.472
		c-0.659-0.617-1.202-1.274-1.204-1.46c-0.014-0.862-8.433-9.74-9.236-9.74c-0.213,0-1.002-0.615-1.752-1.367
		c-0.752-0.751-1.736-1.484-2.188-1.627c-0.451-0.143-0.82-0.393-0.82-0.556s-0.72-0.614-1.6-1.002c-0.88-0.388-1.6-0.873-1.6-1.077
		s-0.271-0.371-0.601-0.371c-0.329,0-0.6-0.18-0.6-0.4s-0.529-0.4-1.177-0.4c-0.646,0-1.287-0.18-1.424-0.4
		c-0.136-0.22-0.867-0.4-1.624-0.4c-0.757,0-1.376,0.18-1.376,0.4c0,0.22-0.63,0.4-1.4,0.4s-1.4,0.18-1.4,0.4s-0.27,0.4-0.6,0.4
		c-0.33,0-0.6,0.18-0.6,0.4c0,0.22-0.36,0.4-0.8,0.4c-0.44,0-0.8,0.151-0.8,0.336c0,0.184-0.405,0.521-0.9,0.749
		c-2.172,0.996-15.5,13.503-15.5,14.544c0,0.248-0.54,0.954-1.2,1.571c-0.66,0.617-1.2,1.304-1.2,1.527
		c0,0.224-0.153,0.466-0.34,0.54c-0.492,0.192-2.46,3.422-2.46,4.037c0,0.286-0.36,0.779-0.8,1.096s-0.8,0.897-0.8,1.288
		c0,0.392-0.18,0.712-0.4,0.712c-0.22,0-0.4,0.36-0.4,0.8s-0.18,0.8-0.4,0.8c-0.22,0-0.4,0.36-0.4,0.8s-0.18,0.8-0.4,0.8
		c-0.22,0-0.4,0.36-0.4,0.8s-0.18,0.8-0.4,0.8s-0.4,0.36-0.4,0.8c0,0.44-0.18,0.8-0.4,0.8c-0.22,0-0.4,0.362-0.4,0.805
		c0,0.443-0.159,1.118-0.353,1.5c-0.195,0.382-0.576,1.235-0.847,1.895c-0.271,0.66-0.652,1.513-0.847,1.895
		c-0.194,0.382-0.353,1.237-0.353,1.9s-0.18,1.205-0.4,1.205s-0.4,0.529-0.4,1.176s-0.18,1.288-0.4,1.424
		c-0.22,0.136-0.4,1.047-0.4,2.024c0,0.977-0.18,1.776-0.4,1.776c-0.222,0-0.4,1.067-0.4,2.4s-0.178,2.4-0.4,2.4
		c-0.256,0-0.4,3.6-0.4,10s0.144,10,0.4,10c0.222,0,0.4,1.067,0.4,2.4s0.178,2.4,0.4,2.4c0.22,0,0.4,0.36,0.4,0.8s-0.18,0.8-0.4,0.8
		c-0.22,0-0.4-0.18-0.4-0.4c0-0.22-0.36-0.4-0.8-0.4c-0.44,0-0.8-0.18-0.8-0.4c0-0.22-0.54-0.4-1.2-0.4c-0.66,0-1.2-0.18-1.2-0.4
		c0-0.22-0.54-0.4-1.2-0.4c-0.66,0-1.2-0.18-1.2-0.4s-0.63-0.4-1.4-0.4s-1.4-0.18-1.4-0.4c0-0.22-0.709-0.4-1.576-0.4
		c-0.867,0-1.688-0.18-1.824-0.4c-0.136-0.22-1.306-0.4-2.6-0.4c-1.294,0-2.464-0.18-2.6-0.4c-0.155-0.25-4.137-0.4-10.624-0.4
		c-6.651,0-10.376,0.144-10.376,0.4c0,0.222-1.067,0.4-2.4,0.4s-2.4,0.178-2.4,0.4c0,0.22-0.72,0.4-1.6,0.4
		c-0.88,0-1.6,0.18-1.6,0.4c0,0.22-0.225,0.4-0.5,0.4c-1.602,0.002-4.3,4.133-4.3,6.584c0,0.779-0.18,1.416-0.4,1.416
		c-0.222,0-0.4,1.059-0.4,2.376c0,1.307-0.18,2.488-0.4,2.624c-0.545,0.337-0.545,19,0,19c0.226,0,0.4,1.133,0.4,2.6
		c0,1.467,0.174,2.6,0.4,2.6c0.22,0,0.4,0.709,0.4,1.576s0.18,1.688,0.4,1.824c0.22,0.136,0.4,0.867,0.4,1.624
		c0,0.757,0.18,1.376,0.4,1.376c0.22,0,0.4,0.529,0.4,1.176s0.18,1.288,0.4,1.424c0.22,0.136,0.4,0.687,0.4,1.224
		s0.18,0.976,0.4,0.976c0.22,0,0.4,0.54,0.4,1.2c0,0.66,0.18,1.2,0.4,1.2s0.4,0.349,0.4,0.776c0,0.427,0.18,0.888,0.4,1.024
		c0.22,0.136,0.4,0.597,0.4,1.024c0,0.427,0.18,0.776,0.4,0.776c0.22,0,0.4,0.36,0.4,0.8c0,0.44,0.18,0.8,0.4,0.8
		c0.22,0,0.4,0.36,0.4,0.8s0.18,0.8,0.4,0.8c0.22,0,0.4,0.32,0.4,0.712c0,0.391,0.36,0.971,0.8,1.288
		c0.44,0.317,0.8,0.897,0.8,1.288c0,0.392,0.18,0.712,0.4,0.712c0.22,0,0.4,0.32,0.4,0.712c0,0.391,0.36,0.971,0.8,1.288
		c0.44,0.317,0.8,0.882,0.8,1.255s0.135,0.738,0.3,0.812c0.165,0.073,0.797,0.897,1.404,1.83
		c1.88,2.892,12.273,13.703,13.172,13.703c0.222,0,0.907,0.54,1.524,1.2s1.319,1.2,1.56,1.2c0.242,0,0.44,0.138,0.44,0.306
		s0.72,0.75,1.6,1.294s1.6,1.126,1.6,1.294s0.36,0.307,0.8,0.307s0.8,0.158,0.8,0.352c0,0.449,7.223,4.048,8.124,4.048
		c0.372,0,0.676,0.181,0.676,0.4s0.36,0.399,0.8,0.399s0.8,0.18,0.8,0.4s0.45,0.4,1,0.4c0.55,0,1,0.18,1,0.399s0.54,0.4,1.2,0.4
		c0.66,0,1.2,0.18,1.2,0.399c0,0.221,0.54,0.4,1.2,0.4c0.66,0,1.2,0.18,1.2,0.4c0,0.22,0.54,0.399,1.2,0.399
		c0.66,0,1.2,0.181,1.2,0.4s0.709,0.399,1.576,0.399c0.867,0,1.688,0.18,1.824,0.4c0.136,0.221,1.227,0.4,2.424,0.4
		c1.197,0,2.176,0.18,2.176,0.399c0,0.235,1.4,0.4,3.4,0.4s3.4,0.165,3.4,0.399c0,0.246,1.933,0.4,5,0.4c3.067,0,5-0.154,5-0.4
		c0-0.22,0.72-0.399,1.6-0.399h1.6v27v27h-16.8h-16.8v-1.2c0-0.66-0.18-1.2-0.4-1.2c-0.22,0-0.4-0.528-0.4-1.176
		s-0.18-1.288-0.4-1.424c-0.22-0.136-0.4-0.599-0.4-1.029c0-0.43-0.165-1.094-0.366-1.476c-0.842-1.598-1.634-3.659-1.634-4.256
		c0-0.352-0.159-0.64-0.353-0.64c-0.195,0-0.454-0.315-0.576-0.7c-0.288-0.908-1.483-2.853-2.371-3.857
		c-0.385-0.436-0.7-0.945-0.7-1.131c0-0.664-7.903-8.174-9.14-8.687c-0.693-0.286-1.26-0.68-1.26-0.874
		c0-0.193-0.317-0.351-0.704-0.351c-0.387,0-0.928-0.36-1.203-0.8c-0.275-0.44-0.768-0.801-1.096-0.801
		c-0.329,0-0.597-0.18-0.597-0.399s-0.27-0.4-0.6-0.4s-0.6-0.18-0.6-0.399c0-0.221-0.27-0.4-0.6-0.4s-0.6-0.15-0.6-0.332
		c0-0.184-0.495-0.587-1.1-0.898c-0.605-0.31-1.391-0.881-1.747-1.267c-0.356-0.387-0.869-0.703-1.139-0.703
		c-0.271,0-0.997-0.54-1.614-1.2c-0.617-0.66-1.319-1.199-1.56-1.199c-0.242,0-1.181-0.721-2.088-1.601
		c-0.907-0.88-1.794-1.6-1.971-1.6c-0.444,0-15.581-15.035-15.581-15.478c0-0.195-0.72-1.15-1.6-2.123
		c-0.88-0.972-1.6-1.901-1.6-2.065s-0.45-0.748-1-1.298c-0.55-0.551-1-1.238-1-1.53c0-0.291-0.36-0.789-0.8-1.106
		c-0.44-0.316-0.8-0.856-0.8-1.199c0-0.344-0.36-0.883-0.8-1.2s-0.8-0.857-0.8-1.2s-0.36-0.883-0.8-1.2
		c-0.44-0.316-0.8-0.896-0.8-1.287c0-0.393-0.18-0.713-0.4-0.713c-0.22,0-0.4-0.236-0.4-0.525c0-0.287-0.36-0.91-0.8-1.382
		s-0.8-1.136-0.8-1.475s-0.18-0.617-0.4-0.617c-0.22,0-0.4-0.36-0.4-0.8s-0.18-0.8-0.4-0.8c-0.22,0-0.4-0.27-0.4-0.6
		s-0.18-0.6-0.4-0.6c-0.22,0-0.4-0.36-0.4-0.8c0-0.44-0.18-0.8-0.4-0.8c-0.22,0-0.4-0.36-0.4-0.8s-0.18-0.8-0.4-0.8
		s-0.4-0.36-0.4-0.8s-0.18-0.8-0.4-0.8c-0.22,0-0.4-0.36-0.4-0.8s-0.18-0.8-0.4-0.8c-0.22,0-0.4-0.54-0.4-1.2
		c0-0.66-0.16-1.2-0.355-1.2c-0.196,0-0.482-0.672-0.636-1.493c-0.154-0.821-0.624-2.205-1.045-3.075
		c-0.42-0.87-0.764-1.908-0.764-2.307c0-0.399-0.18-0.725-0.4-0.725c-0.22,0-0.4-0.529-0.4-1.176s-0.18-1.288-0.4-1.424
		s-0.4-0.766-0.4-1.4c0-0.634-0.18-1.264-0.4-1.4c-0.22-0.136-0.4-0.777-0.4-1.424s-0.18-1.176-0.4-1.176
		c-0.22,0-0.4-0.709-0.4-1.576c0-0.867-0.18-1.688-0.4-1.824c-0.22-0.136-0.4-0.946-0.4-1.8s-0.18-1.664-0.4-1.8
		c-0.22-0.136-0.4-1.126-0.4-2.2c0-1.074-0.18-2.064-0.4-2.2c-0.22-0.136-0.4-1.482-0.4-2.99c0-1.509-0.183-2.804-0.406-2.879
		c-0.559-0.186-0.559-26.476,0-26.662c0.223-0.075,0.406-1.28,0.406-2.679c0-1.398,0.18-2.654,0.4-2.79
		c0.22-0.136,0.4-1.126,0.4-2.2s0.18-2.064,0.4-2.2c0.22-0.136,0.4-0.957,0.4-1.824c0-0.867,0.18-1.576,0.4-1.576
		c0.22,0,0.4-0.72,0.4-1.6c0-0.88,0.18-1.6,0.4-1.6c0.22,0,0.4-0.619,0.4-1.376c0-0.757,0.18-1.488,0.4-1.624
		c0.22-0.136,0.4-0.599,0.4-1.029c0-0.43,0.162-1.094,0.359-1.476c0.197-0.382,0.771-2.045,1.274-3.695
		c0.504-1.65,1.046-3.18,1.206-3.4c0.159-0.22,0.416-1.075,0.57-1.9c0.154-0.825,0.44-1.5,0.636-1.5
		c0.195,0,0.355-0.349,0.355-0.776c0-0.427,0.18-0.888,0.4-1.024c0.22-0.136,0.4-0.597,0.4-1.024s0.18-0.776,0.4-0.776
		c0.22,0,0.4-0.45,0.4-1c0-0.55,0.18-1,0.4-1s0.4-0.36,0.4-0.8c0-0.44,0.18-0.8,0.4-0.8c0.22,0,0.4-0.36,0.4-0.8
		c0-0.44,0.18-0.8,0.4-0.8c0.22,0,0.4-0.278,0.4-0.617c0-0.339,0.36-1.003,0.8-1.475c0.44-0.472,0.8-1.095,0.8-1.383
		c0-0.289,0.18-0.525,0.4-0.525s0.4-0.36,0.4-0.8s0.18-0.8,0.4-0.8c0.22,0,0.4-0.294,0.4-0.653s0.316-0.944,0.703-1.3
		c0.386-0.356,0.955-1.139,1.264-1.74c0.308-0.602,0.892-1.449,1.297-1.884c0.405-0.434,0.736-0.932,0.736-1.106
		c0.001-0.174,0.451-0.84,1-1.479c0.55-0.639,1-1.29,1-1.446c0-0.156,0.537-0.893,1.194-1.638c0.656-0.745,1.196-1.593,1.2-1.885
		c0.003-0.293,0.726-1.223,1.606-2.069c0.88-0.846,1.6-1.821,1.6-2.169c0-0.347,0.163-0.631,0.363-0.631
		c0.463,0,13.637-13.188,13.637-13.652c0-0.191,0.284-0.348,0.631-0.348c0.348,0,1.323-0.72,2.169-1.6
		c0.846-0.88,1.776-1.603,2.069-1.606c0.292-0.004,1.14-0.544,1.885-1.2c0.745-0.657,1.502-1.194,1.682-1.194
		c0.18,0,0.778-0.45,1.328-1c0.55-0.55,1.195-1,1.435-1c0.239,0,0.79-0.331,1.224-0.736c0.435-0.405,1.282-0.989,1.884-1.297
		c0.601-0.309,1.384-0.878,1.74-1.264c0.356-0.387,0.941-0.703,1.3-0.703s0.653-0.18,0.653-0.4c0-0.22,0.36-0.4,0.8-0.4
		s0.8-0.18,0.8-0.4s0.236-0.4,0.525-0.4c0.288,0,0.911-0.36,1.383-0.8c0.472-0.44,1.136-0.8,1.475-0.8c0.339,0,0.617-0.18,0.617-0.4
		c0-0.22,0.36-0.4,0.8-0.4c0.44,0,0.8-0.18,0.8-0.4c0-0.22,0.36-0.4,0.8-0.4c0.44,0,0.8-0.18,0.8-0.4s0.272-0.4,0.605-0.4
		s0.918-0.16,1.3-0.356c2.108-1.081,4.439-2.051,5.495-2.287c0.66-0.147,1.38-0.389,1.6-0.538c0.22-0.148,2.29-0.862,4.6-1.586
		c2.31-0.723,4.513-1.477,4.895-1.674c0.382-0.198,0.969-0.359,1.305-0.359c1.366,0,5-3.043,5-4.187c0-0.337,0.18-0.613,0.4-0.613
		c0.235,0,0.4-1.4,0.4-3.4s-0.165-3.4-0.4-3.4c-0.22,0-0.4-0.278-0.4-0.618s-0.45-1.068-1-1.618c-0.55-0.55-1-1.172-1-1.382
		s-0.36-0.382-0.8-0.382s-0.8-0.18-0.8-0.4c0-0.22-0.619-0.4-1.376-0.4c-0.757,0-1.488-0.18-1.624-0.4
		c-0.136-0.22-0.676-0.4-1.2-0.4S164.536,3.899,164.4,4.119 M201,59.362c0,0.196,0.314,0.365,0.7,0.375
		c0.385,0.011,1.329,0.739,2.1,1.62c0.771,0.88,2.345,2.578,3.5,3.772c1.155,1.195,2.101,2.33,2.101,2.522
		c0,0.192,0.494,0.874,1.1,1.516c0.605,0.641,1.355,1.658,1.668,2.259s0.717,1.093,0.9,1.093c0.182,0,0.332,0.27,0.332,0.6
		s0.18,0.6,0.399,0.6s0.4,0.27,0.4,0.6s0.18,0.6,0.399,0.6c0.221,0,0.4,0.27,0.4,0.6s0.18,0.6,0.4,0.6c0.22,0,0.399,0.36,0.399,0.8
		c0,0.44,0.181,0.8,0.4,0.8s0.399,0.36,0.399,0.8s0.18,0.8,0.4,0.8s0.4,0.36,0.4,0.8s0.18,0.8,0.399,0.8s0.4,0.439,0.4,0.976
		c0,0.537,0.18,1.088,0.399,1.224c0.221,0.136,0.4,0.597,0.4,1.024c0,0.427,0.18,0.776,0.4,0.776c0.22,0,0.399,0.54,0.399,1.2
		s0.181,1.2,0.4,1.2s0.399,0.63,0.399,1.4s0.166,1.4,0.371,1.4c0.202,0,0.497,1.631,0.653,3.625c0.155,1.994,0.483,3.839,0.729,4.1
		c0.625,0.665,0.61,12.7-0.016,13.366c-0.254,0.269-0.59,2.204-0.748,4.3c-0.156,2.095-0.443,3.809-0.638,3.809
		c-0.193,0-0.353,0.54-0.353,1.2c0,0.66-0.18,1.2-0.399,1.2s-0.4,0.54-0.4,1.2c0,0.66-0.18,1.2-0.399,1.2c-0.221,0-0.4,0.45-0.4,1
		s-0.18,1-0.4,1c-0.22,0-0.399,0.36-0.399,0.8c0,0.44-0.181,0.8-0.4,0.8s-0.399,0.36-0.399,0.8s-0.18,0.8-0.4,0.8s-0.4,0.36-0.4,0.8
		s-0.18,0.8-0.399,0.8s-0.4,0.36-0.4,0.8s-0.18,0.8-0.399,0.8c-0.221,0-0.4,0.36-0.4,0.8c0,0.44-0.18,0.8-0.4,0.8
		c-0.22,0-0.399,0.236-0.399,0.525c0,0.288-0.36,0.911-0.8,1.383c-0.44,0.472-0.801,1.011-0.801,1.197s-0.621,1.018-1.383,1.849
		c-0.761,0.83-1.492,1.855-1.627,2.278c-0.744,2.343-0.99-0.103-0.99-9.832c0-6.8-0.143-10.6-0.399-10.6c-0.22,0-0.4-0.36-0.4-0.8
		s-0.18-0.8-0.399-0.8c-0.221,0-0.4-0.294-0.4-0.653c0-0.731-1.925-2.546-2.7-2.547c-0.274,0-0.5-0.18-0.5-0.4
		c0-0.239-1.532-0.4-3.8-0.4c-2.267,0-3.8,0.161-3.8,0.4c0,0.22-0.288,0.4-0.64,0.4c-0.351,0-1.171,0.57-1.822,1.266
		c-2.224,2.381-2.338,3.083-2.338,14.383c0,5.693-0.098,10.351-0.218,10.351c-0.401,0-2.182-1.958-2.182-2.399
		c0-0.239-0.188-0.652-0.417-0.918c-0.23-0.266-1.032-1.473-1.783-2.683s-1.553-2.417-1.783-2.683
		c-0.229-0.266-0.417-0.761-0.417-1.1c0-0.339-0.18-0.617-0.4-0.617c-0.22,0-0.4-0.36-0.4-0.8c0-0.44-0.18-0.8-0.4-0.8
		c-0.22,0-0.4-0.36-0.4-0.8c0-0.44-0.18-0.8-0.4-0.8c-0.22,0-0.4-0.349-0.4-0.776s-0.18-0.888-0.4-1.024
		c-0.22-0.136-0.4-0.597-0.4-1.024c0-0.427-0.18-0.776-0.4-0.776s-0.4-0.54-0.4-1.2c0-0.66-0.18-1.2-0.4-1.2
		c-0.22,0-0.4-0.54-0.4-1.2c0-0.66-0.18-1.2-0.4-1.2c-0.22,0-0.4-0.72-0.4-1.6c0-0.88-0.18-1.6-0.4-1.6c-0.22,0-0.4-0.99-0.4-2.2
		s-0.18-2.2-0.4-2.2c-0.253,0-0.4-2.933-0.4-8s0.147-8,0.4-8c0.22,0,0.4-0.889,0.4-1.976s0.18-2.088,0.4-2.224
		c0.22-0.136,0.4-0.856,0.4-1.6c0-0.744,0.18-1.464,0.4-1.6c0.22-0.136,0.4-0.777,0.4-1.424s0.18-1.176,0.4-1.176
		c0.22,0,0.4-0.54,0.4-1.2c0-0.66,0.18-1.2,0.4-1.2s0.4-0.36,0.4-0.8c0-0.44,0.147-0.8,0.328-0.8c0.18,0,0.572-0.9,0.872-2
		c0.3-1.1,0.692-2,0.872-2c0.181,0,0.328-0.184,0.328-0.408c0-0.224,0.491-1.169,1.092-2.1c1.627-2.522,1.841-2.869,2.651-4.302
		c0.408-0.723,1.083-1.681,1.5-2.128c0.416-0.447,0.757-0.961,0.757-1.142c0-0.45,8.95-9.368,9.644-9.609
		C200.135,58.59,201,58.885,201,59.362 M141.6,132.919c0.136,0.22,1.047,0.4,2.024,0.4s1.776,0.18,1.776,0.4
		c0,0.22,0.72,0.4,1.6,0.4s1.6,0.18,1.6,0.4c0,0.22,0.54,0.4,1.2,0.4c0.66,0,1.2,0.18,1.2,0.4c0,0.22,0.54,0.4,1.2,0.4
		c0.66,0,1.2,0.18,1.2,0.4s0.272,0.4,0.605,0.4s0.918,0.168,1.3,0.374c0.382,0.205,1.28,0.609,1.995,0.897
		c0.715,0.289,1.3,0.66,1.3,0.827c0,0.166,0.36,0.302,0.8,0.302s0.8,0.18,0.8,0.4c0,0.22,0.36,0.4,0.8,0.4s0.8,0.153,0.8,0.339
		c0,0.187,0.72,0.664,1.6,1.061s1.6,0.874,1.6,1.061c0,0.186,0.32,0.339,0.712,0.339c0.391,0,0.971,0.36,1.288,0.8
		c0.317,0.44,0.793,0.8,1.058,0.8c0.709,0,10.942,10.439,10.942,11.162c0,0.176,0.54,0.884,1.2,1.575
		c0.66,0.691,1.2,1.437,1.2,1.659s0.18,0.404,0.4,0.404c0.22,0,0.4,0.236,0.4,0.525c0,0.288,0.36,0.911,0.8,1.383
		s0.8,1.136,0.8,1.475c0,0.339,0.18,0.617,0.4,0.617c0.22,0,0.4,0.36,0.4,0.8s0.18,0.8,0.4,0.8s0.4,0.36,0.4,0.8
		c0,0.44,0.18,0.8,0.4,0.8c0.22,0,0.4,0.36,0.4,0.8c0,0.44,0.18,0.8,0.4,0.8c0.22,0,0.4,0.36,0.4,0.8s0.18,0.8,0.4,0.8
		c0.22,0,0.4,0.456,0.4,1.013c0,0.557,0.27,1.659,0.6,2.449c0.33,0.789,0.6,1.851,0.6,2.358c0,0.508,0.244,1.167,0.543,1.466
		c0.322,0.322,0.469,1.048,0.362,1.781c-0.1,0.681,0.015,1.36,0.257,1.509c0.391,0.242,0.659,3.424,0.288,3.424
		c-0.083,0-2.965-2.79-6.405-6.2c-3.441-3.41-6.523-6.2-6.85-6.2c-0.327,0-0.595-0.18-0.595-0.4c0-0.22-0.705-0.4-1.567-0.4
		c-0.89,0-1.645-0.216-1.747-0.5c-0.145-0.4-0.351-0.4-1.028,0c-0.466,0.275-1.451,0.5-2.189,0.5c-1.482,0-5.069,2.944-5.069,4.16
		c0,0.352-0.18,0.64-0.4,0.64c-0.235,0-0.4,1.4-0.4,3.4s0.165,3.4,0.4,3.4c0.22,0,0.4,0.279,0.4,0.621
		c0,0.342,3.524,4.137,7.831,8.435c7.311,7.295,8.637,8.851,6.63,7.776c-0.445-0.238-1.99-0.433-3.435-0.433
		c-1.484,0-2.626-0.174-2.626-0.399c0-0.221-0.799-0.4-1.776-0.4s-1.888-0.18-2.024-0.4c-0.136-0.22-0.766-0.4-1.4-0.4
		c-0.634,0-1.264-0.18-1.4-0.4c-0.136-0.22-0.599-0.4-1.029-0.4c-0.755,0-1.145-0.144-3.066-1.138
		c-0.492-0.254-1.257-0.462-1.7-0.462c-0.443,0-0.805-0.201-0.805-0.447c0-0.245-0.348-0.354-0.774-0.244
		c-0.426,0.111-0.861-0.024-0.968-0.302c-0.106-0.277-0.686-0.628-1.287-0.779c-0.602-0.151-1.864-0.804-2.804-1.451
		c-0.941-0.647-1.864-1.177-2.051-1.177s-0.599-0.36-0.916-0.8c-0.317-0.44-0.825-0.8-1.128-0.8c-0.303,0-1.055-0.54-1.672-1.2
		c-0.617-0.66-1.321-1.2-1.565-1.2c-0.488,0-8.831-8.205-8.841-8.695c-0.004-0.168-0.544-0.914-1.2-1.659
		c-0.657-0.745-1.194-1.482-1.194-1.638c0-0.156-0.45-0.807-1-1.446c-0.549-0.639-0.999-1.387-1-1.662c0-0.275-0.18-0.5-0.4-0.5
		c-0.22,0-0.4-0.345-0.4-0.767c0-0.421-0.135-0.826-0.3-0.9c-0.424-0.188-2.9-5.132-2.9-5.789c0-0.299-0.18-0.544-0.4-0.544
		c-0.22,0-0.4-0.349-0.4-0.776c0-0.427-0.18-0.888-0.4-1.024c-0.22-0.136-0.4-0.597-0.4-1.024c0-0.427-0.18-0.776-0.4-0.776
		c-0.22,0-0.4-0.72-0.4-1.6c0-0.88-0.18-1.6-0.4-1.6s-0.4-0.619-0.4-1.376c0-0.757-0.18-1.488-0.4-1.624
		c-0.22-0.136-0.4-1.137-0.4-2.224s-0.18-1.976-0.4-1.976c-0.253,0-0.4-2.867-0.4-7.8v-7.8h8.176
		C138.196,132.519,141.448,132.673,141.6,132.919 M274.5,133.602c0.615,1.325,0.702,12.345,0.1,12.717
		c-0.22,0.136-0.399,1.306-0.399,2.6s-0.161,2.452-0.358,2.574c-0.376,0.233-0.854,2.74-0.935,4.91
		c-0.027,0.707-0.269,1.369-0.538,1.472c-0.27,0.104-0.613,0.92-0.764,1.814c-0.151,0.894-0.439,1.727-0.641,1.852
		c-0.201,0.124-0.365,0.665-0.365,1.202s-0.18,0.976-0.399,0.976s-0.4,0.36-0.4,0.8s-0.18,0.8-0.399,0.8c-0.221,0-0.4,0.36-0.4,0.8
		s-0.18,0.8-0.4,0.8c-0.22,0-0.399,0.32-0.399,0.712c0,0.391-0.36,0.971-0.8,1.288c-0.44,0.317-0.801,0.897-0.801,1.288
		c0,0.392-0.18,0.712-0.399,0.712s-0.4,0.236-0.4,0.525c0,0.288-0.315,0.879-0.7,1.313c-0.385,0.435-1.328,1.594-2.094,2.576
		c-0.768,0.982-1.667,2.126-2,2.543c-1.839,2.297-9.456,9.443-10.066,9.443c-0.244,0-0.736,0.316-1.092,0.703
		c-0.356,0.386-1.143,0.957-1.748,1.267c-0.604,0.311-1.1,0.715-1.1,0.898c0,0.182-0.359,0.332-0.8,0.332s-0.8,0.136-0.8,0.302
		c0,0.167-0.9,0.716-2,1.22c-1.101,0.505-2,1.072-2,1.26c0,0.189-0.34,0.254-0.756,0.146c-0.414-0.109-0.875-0.002-1.022,0.237
		c-0.147,0.239-0.619,0.435-1.046,0.435c-0.428,0-0.776,0.18-0.776,0.4c0,0.22-0.438,0.4-0.976,0.4s-1.088,0.18-1.225,0.4
		c-0.136,0.22-0.676,0.4-1.199,0.4c-0.524,0-1.064,0.18-1.2,0.4s-0.767,0.4-1.4,0.4s-1.264,0.18-1.399,0.4
		c-0.137,0.22-1.047,0.4-2.024,0.4s-1.776,0.18-1.776,0.4c0,0.23-1.256,0.399-2.967,0.399c-2.011,0-3.023,0.161-3.145,0.5
		c-0.098,0.274-0.312,0.377-0.473,0.226c-0.414-0.383,1.197-2.093,10.484-11.115c2.255-2.191,4.1-4.259,4.1-4.597
		c0-0.338,0.18-0.614,0.4-0.614s0.4-0.36,0.4-0.8s0.18-0.8,0.399-0.8c0.226,0,0.4-1.133,0.4-2.6c0-1.43-0.157-2.6-0.351-2.6
		c-0.191,0-0.451-0.51-0.576-1.133c-0.268-1.338-2.321-3.667-3.233-3.667c-0.353,0-0.64-0.18-0.64-0.4c0-0.22-0.705-0.4-1.567-0.4
		c-0.89,0-1.646-0.216-1.747-0.5c-0.145-0.4-0.352-0.4-1.027,0c-0.467,0.275-1.48,0.5-2.254,0.5c-0.772,0-1.404,0.18-1.404,0.4
		c0,0.22-0.174,0.4-0.387,0.4c-0.418,0-3.31,2.675-9.839,9.1c-2.291,2.255-4.294,4.1-4.45,4.1s-0.068-0.216,0.195-0.48
		s0.48-1.333,0.48-2.376s0.18-2.008,0.399-2.144s0.4-0.856,0.4-1.6c0-0.744,0.18-1.464,0.399-1.6c0.221-0.136,0.4-0.766,0.4-1.4
		c0-0.634,0.18-1.264,0.4-1.4c0.22-0.136,0.399-0.687,0.399-1.224c0-0.537,0.181-0.976,0.4-0.976s0.399-0.349,0.399-0.776
		c0-0.427,0.18-0.888,0.4-1.024s0.4-0.687,0.4-1.224c0-0.537,0.18-0.976,0.399-0.976s0.4-0.36,0.4-0.8s0.18-0.8,0.399-0.8
		c0.221,0,0.4-0.36,0.4-0.8s0.18-0.8,0.4-0.8c0.22,0,0.399-0.36,0.399-0.8c0-0.44,0.168-0.8,0.373-0.8s0.487-0.359,0.626-0.798
		c0.139-0.438,0.477-1.023,0.749-1.3c0.272-0.276,1.255-1.622,2.183-2.992c0.927-1.369,2.09-2.899,2.586-3.4
		c0.496-0.5,1.344-1.54,1.884-2.31c1.245-1.773,2.237-2.765,4-3.993c0.771-0.537,1.877-1.478,2.46-2.092
		c0.584-0.613,1.259-1.115,1.5-1.115c0.242,0,0.439-0.18,0.439-0.4c0-0.22,0.23-0.4,0.512-0.4s0.771-0.36,1.089-0.8
		s0.875-0.8,1.239-0.8c0.365,0,0.887-0.27,1.16-0.6c0.274-0.33,0.746-0.6,1.049-0.6c0.304,0,0.552-0.18,0.552-0.4
		c0-0.22,0.36-0.4,0.8-0.4s0.8-0.18,0.8-0.4c0-0.22,0.36-0.4,0.8-0.4c0.44,0,0.801-0.18,0.801-0.4c0-0.22,0.359-0.4,0.8-0.4
		s0.8-0.18,0.8-0.4c0-0.22,0.359-0.4,0.8-0.4s0.8-0.18,0.8-0.4c0-0.22,0.439-0.4,0.977-0.4s1.088-0.18,1.224-0.4
		s0.597-0.4,1.024-0.4c0.427,0,0.775-0.18,0.775-0.4c0-0.22,0.631-0.4,1.4-0.4s1.4-0.18,1.4-0.4c0-0.22,0.619-0.4,1.375-0.4
		c0.758,0,1.488-0.18,1.625-0.4c0.136-0.22,1.137-0.4,2.224-0.4s1.976-0.18,1.976-0.4c0-0.253,2.832-0.399,7.7-0.397l7.7,0.003
		L274.5,133.602 M241.4,297.119v10.6H200h-41.4v-10.6v-10.6H200h41.4V297.119 M241.4,334.047v9.129l-1.137,1.271
		c-0.623,0.699-1.434,1.271-1.8,1.271c-0.364,0-0.664,0.18-0.664,0.4c0,0.264-12.792,0.4-37.576,0.4
		c-24.62,0-37.662-0.139-37.824-0.4c-0.136-0.221-0.609-0.4-1.052-0.4c-0.866,0-1.948-0.873-1.948-1.57c0-0.236-0.18-0.43-0.4-0.43
		c-0.255,0-0.4-3.399-0.4-9.399v-9.4H200h41.4V334.047 M227.4,364.119c0,0.221-0.18,0.4-0.4,0.4s-0.4,0.233-0.4,0.52
		c0,0.736-0.94,2.673-1.3,2.678c-0.165,0.002-0.3,0.362-0.3,0.803c0,0.439-0.18,0.8-0.4,0.8c-0.22,0-0.399,0.278-0.399,0.618
		s-0.429,1.048-0.954,1.572c-0.525,0.525-1.2,1.508-1.5,2.187c-0.301,0.678-0.861,1.332-1.246,1.455
		c-0.385,0.122-0.7,0.378-0.7,0.567c0,0.19-0.315,0.45-0.7,0.577c-0.385,0.128-1.301,0.763-2.037,1.412
		c-0.734,0.649-1.68,1.289-2.1,1.423c-0.419,0.133-0.763,0.41-0.763,0.615s-0.36,0.373-0.8,0.373c-0.44,0-0.801,0.18-0.801,0.4
		c0,0.22-0.359,0.399-0.8,0.399s-0.8,0.181-0.8,0.4s-0.439,0.399-0.977,0.399s-1.088,0.18-1.224,0.4s-0.651,0.4-1.144,0.4
		c-0.493,0-1.082,0.186-1.309,0.412c-0.246,0.246-2.813,0.412-6.375,0.412c-3.741,0-6.015-0.154-6.101-0.412
		c-0.076-0.227-0.486-0.412-0.911-0.412c-1.1,0-3.96-0.938-3.96-1.297c0-0.168-0.36-0.304-0.8-0.304c-0.44,0-0.8-0.136-0.8-0.302
		c0-0.167-0.585-0.563-1.3-0.878c-0.715-0.317-1.649-0.899-2.075-1.298c-0.427-0.397-0.93-0.723-1.119-0.723
		c-0.188,0-0.759-0.404-1.268-0.899c-0.509-0.495-1.666-1.53-2.573-2.3c-0.906-0.771-1.651-1.649-1.656-1.953
		c-0.005-0.305-0.325-0.844-0.712-1.2c-0.386-0.356-0.957-1.142-1.267-1.747c-0.311-0.605-0.715-1.1-0.898-1.1
		c-0.182,0-0.332-0.36-0.332-0.801c0-0.439-0.18-0.8-0.4-0.8c-0.22,0-0.4-0.438-0.4-0.976s-0.18-1.088-0.4-1.225
		c-1.44-0.89,1.528-1,27-1C218,363.719,227.4,363.855,227.4,364.119"/>
	<path id="path1" fill="#18AC1C" d="M222.701,99.519c0.004,0.88,0.086,1.193,0.182,0.695c0.096-0.497,0.092-1.217-0.008-1.6
		C222.775,98.232,222.695,98.639,222.701,99.519 M222.701,109.519c0.004,0.88,0.086,1.193,0.182,0.695
		c0.096-0.497,0.092-1.217-0.008-1.6C222.775,108.232,222.695,108.639,222.701,109.519"/>
	<path id="path2" fill="#18AC1C" d="M222.701,99.519c0.004,0.88,0.086,1.193,0.182,0.695c0.096-0.497,0.092-1.217-0.008-1.6
		C222.775,98.232,222.695,98.639,222.701,99.519 M222.701,109.519c0.004,0.88,0.086,1.193,0.182,0.695
		c0.096-0.497,0.092-1.217-0.008-1.6C222.775,108.232,222.695,108.639,222.701,109.519"/>
	<path id="path3" fill="#18AC1C" d="M222.701,99.519c0.004,0.88,0.086,1.193,0.182,0.695c0.096-0.497,0.092-1.217-0.008-1.6
		C222.775,98.232,222.695,98.639,222.701,99.519 M222.701,109.519c0.004,0.88,0.086,1.193,0.182,0.695
		c0.096-0.497,0.092-1.217-0.008-1.6C222.775,108.232,222.695,108.639,222.701,109.519"/>
	<path id="path4" fill="#18AC1C" d="M222.701,99.519c0.004,0.88,0.086,1.193,0.182,0.695c0.096-0.497,0.092-1.217-0.008-1.6
		C222.775,98.232,222.695,98.639,222.701,99.519 M222.701,109.519c0.004,0.88,0.086,1.193,0.182,0.695
		c0.096-0.497,0.092-1.217-0.008-1.6C222.775,108.232,222.695,108.639,222.701,109.519"/>
</g>
</svg>
