<svg id="svg" version="1.1" xmlns="http://www.w3.org/2000/svg" xmlns:xlink="http://www.w3.org/1999/xlink" width="400" height="400" viewBox="0, 0, 400,400"><g id="svgg"><path id="path0" d="M179.202 0.276 C 177.333 0.364,175.632 0.608,175.422 0.818 C 175.212 1.028,173.827 1.200,172.344 1.200 C 170.861 1.200,169.536 1.380,169.400 1.600 C 169.264 1.820,168.184 2.000,167.000 2.000 C 165.816 2.000,164.736 2.180,164.600 2.400 C 164.464 2.620,163.564 2.800,162.600 2.800 C 161.636 2.800,160.736 2.980,160.600 3.200 C 160.464 3.420,159.553 3.600,158.576 3.600 C 157.599 3.600,156.800 3.780,156.800 4.000 C 156.800 4.220,156.080 4.400,155.200 4.400 C 154.320 4.400,153.600 4.580,153.600 4.800 C 153.600 5.020,152.880 5.200,152.000 5.200 C 151.120 5.200,150.400 5.380,150.400 5.600 C 150.400 5.820,149.680 6.000,148.800 6.000 C 147.360 6.000,147.200 6.100,147.200 7.000 C 147.200 7.550,147.380 8.000,147.600 8.000 C 147.820 8.000,148.000 8.619,148.000 9.376 C 148.000 10.133,148.180 10.864,148.400 11.000 C 148.620 11.136,148.800 11.766,148.800 12.400 C 148.800 13.034,148.980 13.664,149.200 13.800 C 149.420 13.936,149.600 14.667,149.600 15.424 C 149.600 16.181,149.780 16.800,150.000 16.800 C 150.220 16.800,150.400 17.520,150.400 18.400 C 150.400 19.280,150.580 20.000,150.800 20.000 C 151.020 20.000,151.200 20.630,151.200 21.400 C 151.200 22.170,151.380 22.800,151.600 22.800 C 151.820 22.800,152.000 23.340,152.000 24.000 C 152.000 24.660,152.180 25.200,152.400 25.200 C 152.620 25.200,152.800 25.920,152.800 26.800 C 152.800 27.680,152.980 28.400,153.200 28.400 C 153.420 28.400,153.600 28.760,153.600 29.200 C 153.600 30.079,156.890 30.426,157.400 29.600 C 157.536 29.380,158.267 29.200,159.024 29.200 C 159.781 29.200,160.400 29.020,160.400 28.800 C 160.400 28.580,161.109 28.400,161.976 28.400 C 162.843 28.400,163.664 28.220,163.800 28.000 C 163.936 27.780,164.926 27.600,166.000 27.600 C 167.074 27.600,168.064 27.420,168.200 27.200 C 168.336 26.980,169.236 26.800,170.200 26.800 C 171.164 26.800,172.064 26.620,172.200 26.400 C 172.336 26.180,173.592 26.000,174.990 26.000 C 176.389 26.000,177.593 25.833,177.667 25.629 C 178.049 24.563,222.776 24.528,223.131 25.594 C 223.206 25.817,224.332 26.000,225.633 26.000 C 226.944 26.000,228.000 26.178,228.000 26.400 C 228.000 26.620,228.990 26.800,230.200 26.800 C 231.410 26.800,232.400 26.980,232.400 27.200 C 232.400 27.420,233.300 27.600,234.400 27.600 C 235.500 27.600,236.400 27.780,236.400 28.000 C 236.400 28.220,237.109 28.400,237.976 28.400 C 238.843 28.400,239.664 28.580,239.800 28.800 C 239.936 29.020,240.667 29.200,241.424 29.200 C 242.181 29.200,242.800 29.380,242.800 29.600 C 242.800 29.820,243.419 30.000,244.176 30.000 C 244.933 30.000,245.664 30.180,245.800 30.400 C 245.936 30.620,246.667 30.800,247.424 30.800 C 248.181 30.800,248.800 30.980,248.800 31.200 C 248.800 31.420,249.340 31.600,250.000 31.600 C 250.660 31.600,251.200 31.780,251.200 32.000 C 251.200 32.220,251.740 32.400,252.400 32.400 C 253.060 32.400,253.600 32.580,253.600 32.800 C 253.600 33.020,254.140 33.200,254.800 33.200 C 255.460 33.200,256.000 33.380,256.000 33.600 C 256.000 33.820,256.540 34.000,257.200 34.000 C 257.860 34.000,258.400 34.180,258.400 34.400 C 258.400 34.620,258.850 34.800,259.400 34.800 C 259.950 34.800,260.400 34.980,260.400 35.200 C 260.400 35.420,260.839 35.600,261.376 35.600 C 261.913 35.600,262.464 35.780,262.600 36.000 C 262.736 36.220,263.197 36.400,263.624 36.400 C 264.051 36.400,264.400 36.580,264.400 36.800 C 264.400 37.020,264.839 37.200,265.376 37.200 C 265.913 37.200,266.464 37.380,266.600 37.600 C 266.736 37.820,267.197 38.000,267.624 38.000 C 268.051 38.000,268.400 38.180,268.400 38.400 C 268.400 38.620,268.636 38.800,268.925 38.800 C 269.398 38.800,272.047 39.909,273.613 40.764 C 273.950 40.948,274.805 41.225,275.513 41.381 C 276.221 41.536,276.800 41.829,276.800 42.032 C 276.800 42.234,277.160 42.400,277.600 42.400 C 278.040 42.400,278.400 42.580,278.400 42.800 C 278.400 43.020,278.760 43.200,279.200 43.200 C 279.640 43.200,280.000 43.380,280.000 43.600 C 280.000 43.820,280.360 44.000,280.800 44.000 C 281.240 44.000,281.600 44.180,281.600 44.400 C 281.600 44.620,281.870 44.800,282.200 44.800 C 282.530 44.800,282.800 44.980,282.800 45.200 C 282.800 45.420,283.070 45.600,283.400 45.600 C 283.730 45.600,284.000 45.780,284.000 46.000 C 284.000 46.220,284.360 46.400,284.800 46.400 C 285.240 46.400,285.600 46.580,285.600 46.800 C 285.600 47.020,285.960 47.200,286.400 47.200 C 286.840 47.200,287.200 47.380,287.200 47.600 C 287.200 47.820,287.520 48.000,287.912 48.000 C 288.303 48.000,288.883 48.360,289.200 48.800 C 289.517 49.240,290.097 49.600,290.488 49.600 C 290.880 49.600,291.200 49.780,291.200 50.000 C 291.200 50.220,291.442 50.400,291.738 50.400 C 292.034 50.400,292.602 50.760,293.000 51.200 C 293.398 51.640,293.966 52.000,294.262 52.000 C 294.558 52.000,294.800 52.150,294.800 52.332 C 294.800 52.515,295.295 52.920,295.900 53.232 C 296.505 53.545,297.349 54.115,297.775 54.500 C 298.202 54.885,298.787 55.200,299.075 55.200 C 299.364 55.200,299.600 55.350,299.600 55.532 C 299.600 55.715,300.095 56.120,300.700 56.432 C 301.305 56.745,302.248 57.405,302.796 57.900 C 303.344 58.395,304.036 58.800,304.335 58.800 C 304.634 58.800,305.383 59.340,306.000 60.000 C 306.617 60.660,307.293 61.200,307.504 61.200 C 307.901 61.200,309.958 62.954,313.015 65.900 C 313.985 66.835,314.945 67.600,315.148 67.600 C 315.352 67.600,316.867 68.905,318.515 70.500 C 320.163 72.095,322.477 74.329,323.656 75.464 C 327.046 78.727,331.382 83.368,332.422 84.846 C 332.946 85.591,334.055 86.861,334.887 87.669 C 335.719 88.476,336.400 89.269,336.400 89.431 C 336.400 89.592,337.120 90.409,338.000 91.246 C 338.880 92.083,339.600 92.979,339.600 93.237 C 339.600 93.495,339.933 93.997,340.341 94.353 C 340.748 94.709,341.402 95.621,341.793 96.380 C 342.184 97.140,342.750 98.008,343.052 98.309 C 343.353 98.610,343.600 99.016,343.600 99.210 C 343.600 99.405,344.050 100.014,344.600 100.564 C 345.150 101.114,345.600 101.842,345.600 102.182 C 345.600 102.522,345.750 102.800,345.932 102.800 C 346.115 102.800,346.520 103.295,346.832 103.900 C 347.145 104.505,347.715 105.349,348.100 105.775 C 348.485 106.201,349.024 107.056,349.297 107.675 C 349.571 108.294,349.931 108.800,350.098 108.800 C 350.264 108.800,350.400 109.036,350.400 109.325 C 350.400 109.613,350.760 110.236,351.200 110.708 C 351.640 111.180,352.000 111.844,352.000 112.183 C 352.000 112.522,352.180 112.800,352.400 112.800 C 352.620 112.800,352.800 113.078,352.800 113.417 C 352.800 113.756,353.160 114.420,353.600 114.892 C 354.040 115.364,354.400 115.987,354.400 116.275 C 354.400 116.564,354.580 116.800,354.800 116.800 C 355.020 116.800,355.200 117.160,355.200 117.600 C 355.200 118.040,355.380 118.400,355.600 118.400 C 355.820 118.400,356.000 118.760,356.000 119.200 C 356.000 119.640,356.180 120.000,356.400 120.000 C 356.620 120.000,356.800 120.360,356.800 120.800 C 356.800 121.240,356.980 121.600,357.200 121.600 C 357.420 121.600,357.600 121.960,357.600 122.400 C 357.600 122.840,357.760 123.200,357.955 123.200 C 358.151 123.200,358.429 123.830,358.574 124.600 C 358.728 125.421,359.072 126.000,359.406 126.000 C 359.730 126.000,359.882 126.242,359.759 126.561 C 359.641 126.870,359.917 127.894,360.372 128.837 C 360.827 129.779,361.200 130.786,361.200 131.075 C 361.200 131.364,361.380 131.600,361.600 131.600 C 361.820 131.600,362.000 132.039,362.000 132.576 C 362.000 133.113,362.180 133.664,362.400 133.800 C 362.620 133.936,362.800 134.397,362.800 134.824 C 362.800 135.251,362.980 135.600,363.200 135.600 C 363.420 135.600,363.600 135.949,363.600 136.376 C 363.600 136.803,363.780 137.264,364.000 137.400 C 364.220 137.536,364.400 138.087,364.400 138.624 C 364.400 139.161,364.580 139.600,364.800 139.600 C 365.020 139.600,365.200 140.050,365.200 140.600 C 365.200 141.150,365.380 141.600,365.600 141.600 C 365.820 141.600,366.000 142.140,366.000 142.800 C 366.000 143.460,366.180 144.000,366.400 144.000 C 366.620 144.000,366.800 144.540,366.800 145.200 C 366.800 145.860,366.980 146.400,367.200 146.400 C 367.420 146.400,367.600 146.940,367.600 147.600 C 367.600 148.260,367.780 148.800,368.000 148.800 C 368.220 148.800,368.400 149.419,368.400 150.176 C 368.400 150.933,368.580 151.664,368.800 151.800 C 369.020 151.936,369.200 152.577,369.200 153.224 C 369.200 153.871,369.380 154.400,369.600 154.400 C 369.820 154.400,370.000 155.030,370.000 155.800 C 370.000 156.570,370.180 157.200,370.400 157.200 C 370.620 157.200,370.800 157.920,370.800 158.800 C 370.800 159.680,370.980 160.400,371.200 160.400 C 371.420 160.400,371.600 161.199,371.600 162.176 C 371.600 163.153,371.780 164.064,372.000 164.200 C 372.220 164.336,372.400 165.146,372.400 166.000 C 372.400 166.854,372.580 167.664,372.800 167.800 C 373.020 167.936,373.200 169.027,373.200 170.224 C 373.200 171.421,373.380 172.400,373.600 172.400 C 373.825 172.400,374.000 173.522,374.000 174.967 C 374.000 176.378,374.166 177.593,374.369 177.667 C 375.504 178.076,375.507 221.020,374.372 222.180 C 374.167 222.389,374.000 223.604,374.000 224.880 C 374.000 226.160,373.821 227.200,373.600 227.200 C 373.380 227.200,373.200 228.190,373.200 229.400 C 373.200 230.610,373.020 231.600,372.800 231.600 C 372.580 231.600,372.400 232.500,372.400 233.600 C 372.400 234.700,372.220 235.600,372.000 235.600 C 371.780 235.600,371.600 236.500,371.600 237.600 C 371.600 238.700,371.420 239.600,371.200 239.600 C 370.980 239.600,370.800 240.320,370.800 241.200 C 370.800 242.080,370.620 242.800,370.400 242.800 C 370.180 242.800,370.000 243.430,370.000 244.200 C 370.000 244.970,369.820 245.600,369.600 245.600 C 369.380 245.600,369.200 246.129,369.200 246.776 C 369.200 247.423,369.020 248.064,368.800 248.200 C 368.580 248.336,368.400 249.067,368.400 249.824 C 368.400 250.581,368.220 251.200,368.000 251.200 C 367.780 251.200,367.600 251.740,367.600 252.400 C 367.600 253.060,367.420 253.600,367.200 253.600 C 366.980 253.600,366.800 254.140,366.800 254.800 C 366.800 255.460,366.620 256.000,366.400 256.000 C 366.180 256.000,366.000 256.540,366.000 257.200 C 366.000 257.860,365.820 258.400,365.600 258.400 C 365.380 258.400,365.200 258.850,365.200 259.400 C 365.200 259.950,365.020 260.400,364.800 260.400 C 364.580 260.400,364.400 260.749,364.400 261.176 C 364.400 261.603,364.220 262.064,364.000 262.200 C 363.780 262.336,363.600 262.887,363.600 263.424 C 363.600 263.961,363.420 264.400,363.200 264.400 C 362.980 264.400,362.800 264.749,362.800 265.176 C 362.800 265.603,362.620 266.064,362.400 266.200 C 362.180 266.336,362.000 266.887,362.000 267.424 C 362.000 267.961,361.820 268.400,361.600 268.400 C 361.380 268.400,361.200 268.760,361.200 269.200 C 361.200 269.640,361.020 270.000,360.800 270.000 C 360.580 270.000,360.400 270.265,360.400 270.588 C 360.400 270.912,359.950 272.160,359.400 273.363 C 358.850 274.565,358.400 275.830,358.400 276.174 C 358.400 276.518,358.220 276.800,358.000 276.800 C 357.780 276.800,357.600 277.160,357.600 277.600 C 357.600 278.040,357.420 278.400,357.200 278.400 C 356.980 278.400,356.800 278.745,356.800 279.167 C 356.800 279.588,356.665 279.993,356.500 280.067 C 356.124 280.234,354.825 282.364,354.529 283.300 C 354.407 283.685,354.148 284.000,353.953 284.000 C 353.759 284.000,353.600 284.360,353.600 284.800 C 353.600 285.240,353.420 285.600,353.200 285.600 C 352.980 285.600,352.800 285.960,352.800 286.400 C 352.800 286.840,352.620 287.200,352.400 287.200 C 352.180 287.200,352.000 287.520,352.000 287.912 C 352.000 288.303,351.640 288.883,351.200 289.200 C 350.760 289.517,350.400 290.097,350.400 290.488 C 350.400 290.880,350.220 291.200,350.000 291.200 C 349.780 291.200,349.600 291.470,349.600 291.800 C 349.600 292.130,349.450 292.400,349.268 292.400 C 349.085 292.400,348.680 292.895,348.368 293.500 C 348.055 294.105,347.485 294.949,347.100 295.375 C 346.715 295.802,346.400 296.304,346.400 296.492 C 346.400 296.680,346.040 297.220,345.600 297.692 C 345.160 298.164,344.800 298.787,344.800 299.075 C 344.800 299.364,344.632 299.600,344.427 299.600 C 344.222 299.600,343.946 299.939,343.815 300.352 C 343.604 301.016,343.179 301.619,341.607 303.483 C 341.383 303.749,341.200 304.172,341.200 304.423 C 341.200 304.674,340.660 305.383,340.000 306.000 C 339.340 306.617,338.800 307.317,338.800 307.557 C 338.800 307.797,338.260 308.509,337.600 309.140 C 336.940 309.771,336.400 310.414,336.400 310.569 C 336.400 310.725,335.500 311.729,334.400 312.800 C 333.300 313.871,332.400 314.923,332.400 315.137 C 332.400 315.970,316.850 331.600,316.022 331.600 C 315.828 331.600,314.573 332.680,313.232 334.000 C 311.892 335.320,310.631 336.400,310.431 336.400 C 310.230 336.400,309.976 336.625,309.865 336.900 C 309.754 337.175,309.649 337.006,309.632 336.524 C 309.614 336.042,309.780 335.536,310.000 335.400 C 310.220 335.264,310.400 333.734,310.400 332.000 C 310.400 330.266,310.580 328.736,310.800 328.600 C 311.020 328.464,311.200 327.013,311.200 325.376 C 311.200 323.659,311.369 322.400,311.600 322.400 C 311.833 322.400,312.000 321.067,312.000 319.200 C 312.000 317.333,312.167 316.000,312.400 316.000 C 312.633 316.000,312.800 314.667,312.800 312.800 C 312.800 310.933,312.967 309.600,313.200 309.600 C 313.431 309.600,313.600 308.341,313.600 306.624 C 313.600 304.987,313.780 303.536,314.000 303.400 C 314.220 303.264,314.400 301.813,314.400 300.176 C 314.400 298.459,314.569 297.200,314.800 297.200 C 315.259 297.200,315.358 292.407,314.900 292.387 C 314.735 292.380,312.710 292.116,310.400 291.800 C 308.090 291.484,305.075 291.220,303.700 291.213 C 302.308 291.206,301.200 291.023,301.200 290.800 C 301.200 290.567,299.867 290.400,298.000 290.400 C 296.133 290.400,294.800 290.233,294.800 290.000 C 294.800 289.780,293.810 289.600,292.600 289.600 L 290.400 289.600 290.400 291.976 C 290.400 293.283,290.220 294.464,290.000 294.600 C 289.780 294.736,289.600 296.277,289.600 298.024 C 289.600 299.875,289.433 301.200,289.200 301.200 C 288.967 301.200,288.800 302.533,288.800 304.400 C 288.800 306.267,288.633 307.600,288.400 307.600 C 288.169 307.600,288.000 308.867,288.000 310.600 C 288.000 312.333,287.831 313.600,287.600 313.600 C 287.367 313.600,287.200 314.933,287.200 316.800 C 287.200 318.667,287.033 320.000,286.800 320.000 C 286.567 320.000,286.400 321.333,286.400 323.200 C 286.400 325.067,286.233 326.400,286.000 326.400 C 285.767 326.400,285.600 327.725,285.600 329.576 C 285.600 331.323,285.420 332.864,285.200 333.000 C 284.980 333.136,284.800 334.677,284.800 336.424 C 284.800 338.275,284.633 339.600,284.400 339.600 C 284.169 339.600,284.000 340.867,284.000 342.600 C 284.000 344.333,283.831 345.600,283.600 345.600 C 283.367 345.600,283.200 346.933,283.200 348.800 C 283.200 350.667,283.033 352.000,282.800 352.000 C 282.567 352.000,282.400 353.333,282.400 355.200 C 282.400 357.067,282.233 358.400,282.000 358.400 C 281.770 358.400,281.600 359.640,281.600 361.320 C 281.600 362.926,281.434 364.411,281.230 364.620 C 281.027 364.829,280.766 366.350,280.650 368.000 C 280.535 369.650,280.386 371.608,280.320 372.351 C 280.162 374.125,281.919 374.613,289.899 375.012 C 293.035 375.168,295.600 375.455,295.600 375.648 C 295.600 375.842,297.040 376.000,298.800 376.000 C 300.667 376.000,302.000 376.167,302.000 376.400 C 302.000 376.633,303.333 376.800,305.200 376.800 C 307.067 376.800,308.400 376.967,308.400 377.200 C 308.400 377.431,309.667 377.600,311.400 377.600 C 313.133 377.600,314.400 377.769,314.400 378.000 C 314.400 378.233,315.733 378.400,317.600 378.400 C 319.467 378.400,320.800 378.567,320.800 378.800 C 320.800 379.033,322.133 379.200,324.000 379.200 C 325.867 379.200,327.200 379.367,327.200 379.600 C 327.200 379.835,328.600 380.000,330.600 380.000 C 332.600 380.000,334.000 380.165,334.000 380.400 C 334.000 380.633,335.333 380.800,337.200 380.800 C 339.067 380.800,340.400 380.967,340.400 381.200 C 340.400 381.431,341.667 381.600,343.400 381.600 C 345.133 381.600,346.400 381.769,346.400 382.000 C 346.400 382.233,347.733 382.400,349.600 382.400 C 351.467 382.400,352.800 382.567,352.800 382.800 C 352.800 383.033,354.133 383.200,356.000 383.200 C 357.867 383.200,359.200 383.367,359.200 383.600 C 359.200 384.241,363.966 384.091,364.629 383.429 C 365.023 383.034,365.200 381.920,365.200 379.829 C 365.200 378.076,365.369 376.800,365.600 376.800 C 365.831 376.800,366.000 375.541,366.000 373.824 C 366.000 372.187,366.180 370.736,366.400 370.600 C 366.620 370.464,366.800 369.024,366.800 367.400 C 366.800 365.776,366.980 364.336,367.200 364.200 C 367.420 364.064,367.600 362.903,367.600 361.620 C 367.600 358.814,367.948 358.964,360.500 358.568 C 357.585 358.414,355.200 358.133,355.200 357.944 C 355.200 357.755,353.760 357.600,352.000 357.600 C 350.133 357.600,348.800 357.433,348.800 357.200 C 348.800 356.967,347.467 356.800,345.600 356.800 C 343.733 356.800,342.400 356.633,342.400 356.400 C 342.400 356.167,341.067 356.000,339.200 356.000 C 337.333 356.000,336.000 355.833,336.000 355.600 C 336.000 355.365,334.600 355.200,332.600 355.200 C 328.116 355.200,328.068 354.245,332.400 351.198 C 333.170 350.656,335.561 348.410,337.713 346.207 C 339.865 344.003,341.810 342.020,342.034 341.800 C 348.356 335.608,351.200 332.686,351.200 332.381 C 351.200 332.174,352.100 331.085,353.200 329.961 C 354.300 328.838,355.200 327.757,355.200 327.560 C 355.200 327.362,355.920 326.459,356.800 325.552 C 357.680 324.645,358.400 323.753,358.400 323.570 C 358.400 323.386,358.850 322.786,359.400 322.236 C 359.950 321.686,360.400 321.048,360.400 320.818 C 360.400 320.588,360.580 320.400,360.800 320.400 C 361.020 320.400,361.200 320.170,361.200 319.888 C 361.200 319.607,361.560 319.117,362.000 318.800 C 362.440 318.483,362.800 317.991,362.800 317.708 C 362.800 317.425,363.340 316.628,364.000 315.937 C 364.660 315.246,365.200 314.478,365.200 314.229 C 365.200 313.980,365.560 313.517,366.000 313.200 C 366.440 312.883,366.800 312.303,366.800 311.912 C 366.800 311.520,366.950 311.200,367.132 311.200 C 367.315 311.200,367.720 310.705,368.032 310.100 C 368.345 309.495,368.886 308.682,369.236 308.293 C 369.586 307.905,370.126 307.095,370.435 306.493 C 370.745 305.892,371.089 305.310,371.199 305.200 C 371.310 305.090,371.642 304.570,371.938 304.045 C 372.233 303.520,372.840 302.440,373.286 301.645 C 373.732 300.850,374.345 299.845,374.648 299.411 C 374.952 298.977,375.200 298.302,375.200 297.911 C 375.200 297.520,375.380 297.200,375.600 297.200 C 375.820 297.200,376.000 296.840,376.000 296.400 C 376.000 295.960,376.180 295.600,376.400 295.600 C 376.620 295.600,376.800 295.240,376.800 294.800 C 376.800 294.360,376.980 294.000,377.200 294.000 C 377.420 294.000,377.600 293.640,377.600 293.200 C 377.600 292.760,377.780 292.400,378.000 292.400 C 378.220 292.400,378.400 292.130,378.400 291.800 C 378.400 291.470,378.580 291.200,378.800 291.200 C 379.020 291.200,379.200 290.840,379.200 290.400 C 379.200 289.960,379.380 289.600,379.600 289.600 C 379.820 289.600,380.000 289.240,380.000 288.800 C 380.000 288.360,380.180 288.000,380.400 288.000 C 380.620 288.000,380.800 287.640,380.800 287.200 C 380.800 286.760,380.980 286.400,381.200 286.400 C 381.420 286.400,381.600 286.040,381.600 285.600 C 381.600 285.160,381.780 284.800,382.000 284.800 C 382.220 284.800,382.400 284.440,382.400 284.000 C 382.400 283.560,382.580 283.200,382.800 283.200 C 383.020 283.200,383.200 282.840,383.200 282.400 C 383.200 281.960,383.380 281.600,383.600 281.600 C 383.820 281.600,384.000 281.060,384.000 280.400 C 384.000 279.740,384.180 279.200,384.400 279.200 C 384.620 279.200,384.800 278.840,384.800 278.400 C 384.800 277.960,384.980 277.600,385.200 277.600 C 385.420 277.600,385.600 277.328,385.600 276.995 C 385.600 276.662,385.759 276.077,385.953 275.695 C 386.148 275.313,386.508 274.505,386.753 273.900 C 386.999 273.295,387.401 272.305,387.647 271.700 C 387.892 271.095,388.252 270.287,388.447 269.905 C 388.641 269.523,388.800 268.859,388.800 268.429 C 388.800 267.999,388.980 267.536,389.200 267.400 C 389.420 267.264,389.600 266.724,389.600 266.200 C 389.600 265.676,389.780 265.136,390.000 265.000 C 390.220 264.864,390.400 264.313,390.400 263.776 C 390.400 263.239,390.562 262.800,390.761 262.800 C 390.959 262.800,391.247 261.720,391.400 260.400 C 391.553 259.080,391.841 258.000,392.039 258.000 C 392.238 258.000,392.400 257.460,392.400 256.800 C 392.400 256.140,392.580 255.600,392.800 255.600 C 393.020 255.600,393.200 254.970,393.200 254.200 C 393.200 253.430,393.380 252.800,393.600 252.800 C 393.820 252.800,394.000 252.080,394.000 251.200 C 394.000 250.320,394.180 249.600,394.400 249.600 C 394.620 249.600,394.800 248.880,394.800 248.000 C 394.800 247.120,394.980 246.400,395.200 246.400 C 395.420 246.400,395.600 245.680,395.600 244.800 C 395.600 243.920,395.780 243.200,396.000 243.200 C 396.220 243.200,396.400 242.300,396.400 241.200 C 396.400 240.100,396.580 239.200,396.800 239.200 C 397.020 239.200,397.200 238.311,397.200 237.224 C 397.200 236.137,397.380 235.136,397.600 235.000 C 397.820 234.864,398.000 233.683,398.000 232.376 C 398.000 231.059,398.178 230.000,398.400 230.000 C 398.628 230.000,398.800 228.811,398.800 227.233 C 398.800 225.376,398.964 224.412,399.300 224.300 C 399.999 224.067,400.035 176.116,399.337 175.684 C 399.082 175.527,398.774 174.139,398.652 172.599 C 398.263 167.687,397.936 165.410,397.563 165.020 C 397.363 164.811,397.200 163.787,397.200 162.744 C 397.200 161.701,397.020 160.736,396.800 160.600 C 396.580 160.464,396.400 159.553,396.400 158.576 C 396.400 157.599,396.220 156.800,396.000 156.800 C 395.780 156.800,395.600 156.080,395.600 155.200 C 395.600 154.320,395.420 153.600,395.200 153.600 C 394.980 153.600,394.800 152.880,394.800 152.000 C 394.800 151.120,394.620 150.400,394.400 150.400 C 394.180 150.400,394.000 149.680,394.000 148.800 C 394.000 147.920,393.820 147.200,393.600 147.200 C 393.380 147.200,393.200 146.570,393.200 145.800 C 393.200 145.030,393.020 144.400,392.800 144.400 C 392.580 144.400,392.400 143.860,392.400 143.200 C 392.400 142.540,392.238 142.000,392.039 142.000 C 391.841 142.000,391.553 140.920,391.400 139.600 C 391.247 138.280,390.959 137.200,390.761 137.200 C 390.562 137.200,390.400 136.660,390.400 136.000 C 390.400 135.340,390.220 134.800,390.000 134.800 C 389.780 134.800,389.600 134.260,389.600 133.600 C 389.600 132.940,389.420 132.400,389.200 132.400 C 388.980 132.400,388.800 131.961,388.800 131.424 C 388.800 130.887,388.620 130.336,388.400 130.200 C 388.180 130.064,388.000 129.609,388.000 129.189 C 388.000 128.768,387.640 127.783,387.200 127.000 C 386.760 126.217,386.400 125.221,386.400 124.788 C 386.400 124.355,386.220 124.000,386.000 124.000 C 385.780 124.000,385.600 123.640,385.600 123.200 C 385.600 122.760,385.420 122.400,385.200 122.400 C 384.980 122.400,384.800 121.860,384.800 121.200 C 384.800 120.540,384.620 120.000,384.400 120.000 C 384.180 120.000,384.000 119.640,384.000 119.200 C 384.000 118.760,383.820 118.400,383.600 118.400 C 383.380 118.400,383.200 118.040,383.200 117.600 C 383.200 117.160,383.020 116.800,382.800 116.800 C 382.580 116.800,382.400 116.451,382.400 116.024 C 382.400 115.597,382.220 115.136,382.000 115.000 C 381.780 114.864,381.600 114.403,381.600 113.976 C 381.600 113.549,381.420 113.200,381.200 113.200 C 380.980 113.200,380.800 112.840,380.800 112.400 C 380.800 111.960,380.620 111.600,380.400 111.600 C 380.180 111.600,380.000 111.240,380.000 110.800 C 380.000 110.360,379.820 110.000,379.600 110.000 C 379.380 110.000,379.200 109.640,379.200 109.200 C 379.200 108.760,379.020 108.400,378.800 108.400 C 378.580 108.400,378.400 108.040,378.400 107.600 C 378.400 107.160,378.220 106.800,378.000 106.800 C 377.780 106.800,377.600 106.564,377.600 106.275 C 377.600 105.987,377.240 105.364,376.800 104.892 C 376.360 104.420,376.000 103.756,376.000 103.417 C 376.000 103.078,375.820 102.800,375.600 102.800 C 375.380 102.800,375.200 102.509,375.200 102.154 C 375.200 101.438,373.174 97.477,372.700 97.267 C 372.535 97.193,372.400 96.956,372.400 96.739 C 372.400 96.522,371.860 95.559,371.200 94.600 C 370.540 93.641,370.000 92.703,370.000 92.516 C 370.000 92.329,369.640 91.917,369.200 91.600 C 368.760 91.283,368.400 90.743,368.400 90.400 C 368.400 90.057,368.040 89.517,367.600 89.200 C 367.160 88.883,366.800 88.343,366.800 88.000 C 366.800 87.657,366.440 87.117,366.000 86.800 C 365.560 86.483,365.200 85.943,365.200 85.600 C 365.200 85.257,364.840 84.717,364.400 84.400 C 363.960 84.083,363.600 83.620,363.600 83.371 C 363.600 83.122,363.060 82.354,362.400 81.663 C 361.740 80.972,361.200 80.208,361.200 79.964 C 361.200 79.720,360.660 79.017,360.000 78.400 C 359.340 77.783,358.800 77.089,358.800 76.858 C 358.800 76.626,358.391 76.023,357.891 75.518 C 357.392 75.013,356.542 73.970,356.004 73.200 C 355.466 72.430,354.345 71.139,353.513 70.331 C 352.681 69.524,352.000 68.677,352.000 68.450 C 352.000 68.118,349.027 65.060,342.035 58.200 C 341.811 57.980,339.647 55.775,337.226 53.300 C 334.806 50.825,332.664 48.800,332.466 48.800 C 332.269 48.800,331.077 47.810,329.818 46.600 C 328.558 45.390,327.383 44.400,327.206 44.400 C 327.029 44.400,326.329 43.905,325.651 43.300 C 323.588 41.461,323.247 41.200,322.905 41.200 C 322.724 41.200,322.317 40.840,322.000 40.400 C 321.683 39.960,321.193 39.600,320.912 39.600 C 320.630 39.600,320.400 39.420,320.400 39.200 C 320.400 38.980,320.170 38.800,319.888 38.800 C 319.607 38.800,319.117 38.440,318.800 38.000 C 318.483 37.560,318.038 37.200,317.812 37.199 C 317.585 37.199,316.770 36.659,316.000 36.000 C 315.230 35.341,314.415 34.801,314.188 34.801 C 313.962 34.800,313.517 34.440,313.200 34.000 C 312.883 33.560,312.343 33.200,312.000 33.200 C 311.657 33.200,311.117 32.840,310.800 32.400 C 310.483 31.960,309.986 31.600,309.695 31.600 C 309.404 31.600,308.811 31.269,308.377 30.864 C 307.942 30.459,307.095 29.874,306.493 29.565 C 305.892 29.255,305.310 28.887,305.200 28.747 C 304.729 28.148,301.916 26.805,301.574 27.016 C 301.368 27.143,301.200 27.001,301.200 26.701 C 301.200 26.178,298.638 24.800,297.666 24.800 C 297.410 24.800,297.200 24.620,297.200 24.400 C 297.200 24.180,296.840 24.000,296.400 24.000 C 295.960 24.000,295.600 23.820,295.600 23.600 C 295.600 23.380,295.240 23.200,294.800 23.200 C 294.360 23.200,294.000 23.020,294.000 22.800 C 294.000 22.580,293.764 22.400,293.475 22.400 C 293.187 22.400,292.564 22.040,292.092 21.600 C 291.620 21.160,290.956 20.800,290.617 20.800 C 290.278 20.800,290.000 20.620,290.000 20.400 C 290.000 20.180,289.735 20.000,289.412 20.000 C 289.089 20.000,288.183 19.640,287.400 19.200 C 286.617 18.760,285.711 18.400,285.388 18.400 C 285.065 18.400,284.800 18.220,284.800 18.000 C 284.800 17.780,284.440 17.600,284.000 17.600 C 283.560 17.600,283.200 17.420,283.200 17.200 C 283.200 16.980,282.840 16.800,282.400 16.800 C 281.960 16.800,281.600 16.620,281.600 16.400 C 281.600 16.180,281.251 16.000,280.824 16.000 C 280.397 16.000,279.936 15.820,279.800 15.600 C 279.664 15.380,279.113 15.200,278.576 15.200 C 278.039 15.200,277.600 15.020,277.600 14.800 C 277.600 14.580,277.240 14.400,276.800 14.400 C 276.360 14.400,276.000 14.220,276.000 14.000 C 276.000 13.780,275.645 13.600,275.212 13.600 C 274.779 13.600,273.783 13.240,273.000 12.800 C 272.217 12.360,271.221 12.000,270.788 12.000 C 270.355 12.000,270.000 11.820,270.000 11.600 C 270.000 11.380,269.638 11.200,269.195 11.200 C 268.752 11.200,268.077 11.024,267.695 10.809 C 266.368 10.062,260.776 8.400,259.592 8.400 C 258.936 8.400,258.400 8.220,258.400 8.000 C 258.400 7.780,257.860 7.600,257.200 7.600 C 256.540 7.600,256.000 7.420,256.000 7.200 C 256.000 6.980,255.370 6.800,254.600 6.800 C 253.830 6.800,253.200 6.620,253.200 6.400 C 253.200 6.180,252.570 6.000,251.800 6.000 C 251.030 6.000,250.400 5.820,250.400 5.600 C 250.400 5.380,249.680 5.200,248.800 5.200 C 247.920 5.200,247.200 5.020,247.200 4.800 C 247.200 4.580,246.300 4.400,245.200 4.400 C 244.100 4.400,243.200 4.220,243.200 4.000 C 243.200 3.780,242.480 3.600,241.600 3.600 C 240.720 3.600,240.000 3.420,240.000 3.200 C 240.000 2.980,239.010 2.800,237.800 2.800 C 236.590 2.800,235.600 2.620,235.600 2.400 C 235.600 2.180,234.621 2.000,233.424 2.000 C 232.227 2.000,231.136 1.820,231.000 1.600 C 230.864 1.380,229.518 1.200,228.010 1.200 C 226.199 1.200,225.211 1.033,225.103 0.709 C 224.941 0.224,187.794 -0.127,179.202 0.276 M35.300 16.598 C 34.994 16.945,34.800 18.339,34.800 20.183 C 34.800 21.928,34.631 23.200,34.400 23.200 C 34.169 23.200,34.000 24.459,34.000 26.176 C 34.000 27.813,33.820 29.264,33.600 29.400 C 33.380 29.536,33.200 30.976,33.200 32.600 C 33.200 34.224,33.020 35.664,32.800 35.800 C 32.580 35.936,32.400 37.104,32.400 38.397 C 32.400 41.236,32.015 41.067,39.310 41.433 C 42.341 41.585,44.916 41.864,45.034 42.055 C 45.151 42.245,46.767 42.400,48.624 42.400 C 50.608 42.400,52.000 42.565,52.000 42.800 C 52.000 43.033,53.333 43.200,55.200 43.200 C 57.067 43.200,58.400 43.367,58.400 43.600 C 58.400 43.831,59.667 44.000,61.400 44.000 C 63.133 44.000,64.400 44.169,64.400 44.400 C 64.400 44.633,65.733 44.800,67.600 44.800 C 70.220 44.800,70.800 44.912,70.800 45.418 C 70.800 46.130,69.610 47.388,67.600 48.802 C 66.830 49.344,64.439 51.590,62.287 53.793 C 60.135 55.997,58.190 57.980,57.966 58.200 C 51.554 64.480,48.800 67.320,48.800 67.652 C 48.800 67.878,48.119 68.724,47.287 69.531 C 46.455 70.339,45.334 71.630,44.796 72.400 C 44.258 73.170,43.408 74.213,42.909 74.718 C 42.409 75.223,42.000 75.781,42.000 75.959 C 42.000 76.136,41.460 76.846,40.800 77.537 C 40.140 78.228,39.600 78.974,39.600 79.196 C 39.600 79.418,39.420 79.600,39.200 79.600 C 38.980 79.600,38.800 79.830,38.800 80.112 C 38.800 80.393,38.440 80.883,38.000 81.200 C 37.560 81.517,37.200 82.057,37.200 82.400 C 37.200 82.743,36.840 83.283,36.400 83.600 C 35.960 83.917,35.600 84.380,35.600 84.629 C 35.600 84.878,35.060 85.646,34.400 86.337 C 33.740 87.028,33.200 87.864,33.200 88.196 C 33.200 88.528,33.050 88.800,32.868 88.800 C 32.685 88.800,32.280 89.295,31.968 89.900 C 31.655 90.505,31.085 91.349,30.700 91.775 C 30.315 92.201,29.776 93.056,29.503 93.675 C 29.229 94.294,28.869 94.800,28.702 94.800 C 28.536 94.800,28.400 94.997,28.400 95.238 C 28.400 95.479,28.029 96.198,27.575 96.836 C 27.121 97.473,26.861 98.176,26.998 98.397 C 27.135 98.619,27.012 98.805,26.724 98.810 C 26.211 98.820,24.800 101.403,24.800 102.331 C 24.800 102.589,24.620 102.800,24.400 102.800 C 24.180 102.800,24.000 103.160,24.000 103.600 C 24.000 104.040,23.820 104.400,23.600 104.400 C 23.380 104.400,23.200 104.760,23.200 105.200 C 23.200 105.640,23.020 106.000,22.800 106.000 C 22.580 106.000,22.400 106.360,22.400 106.800 C 22.400 107.240,22.220 107.600,22.000 107.600 C 21.780 107.600,21.600 107.870,21.600 108.200 C 21.600 108.530,21.420 108.800,21.200 108.800 C 20.980 108.800,20.800 109.160,20.800 109.600 C 20.800 110.040,20.620 110.400,20.400 110.400 C 20.180 110.400,20.000 110.760,20.000 111.200 C 20.000 111.640,19.820 112.000,19.600 112.000 C 19.380 112.000,19.200 112.360,19.200 112.800 C 19.200 113.240,19.020 113.600,18.800 113.600 C 18.580 113.600,18.400 113.960,18.400 114.400 C 18.400 114.840,18.220 115.200,18.000 115.200 C 17.780 115.200,17.600 115.560,17.600 116.000 C 17.600 116.440,17.420 116.800,17.200 116.800 C 16.980 116.800,16.800 117.160,16.800 117.600 C 16.800 118.040,16.620 118.400,16.400 118.400 C 16.180 118.400,16.000 118.940,16.000 119.600 C 16.000 120.260,15.820 120.800,15.600 120.800 C 15.380 120.800,15.200 121.160,15.200 121.600 C 15.200 122.040,15.020 122.400,14.800 122.400 C 14.580 122.400,14.400 122.760,14.400 123.200 C 14.400 123.640,14.220 124.000,14.000 124.000 C 13.780 124.000,13.600 124.362,13.600 124.805 C 13.600 125.248,13.441 125.923,13.247 126.305 C 13.052 126.687,12.671 127.540,12.400 128.200 C 12.129 128.860,11.748 129.713,11.553 130.095 C 11.359 130.477,11.200 131.141,11.200 131.571 C 11.200 132.001,11.020 132.464,10.800 132.600 C 10.580 132.736,10.400 133.287,10.400 133.824 C 10.400 134.361,10.200 134.800,9.955 134.800 C 9.689 134.800,9.579 135.277,9.683 135.985 C 9.788 136.701,9.661 137.245,9.360 137.360 C 9.087 137.465,8.739 138.552,8.586 139.775 C 8.433 140.999,8.149 142.000,7.954 142.000 C 7.759 142.000,7.600 142.540,7.600 143.200 C 7.600 143.860,7.420 144.400,7.200 144.400 C 6.980 144.400,6.800 145.030,6.800 145.800 C 6.800 146.570,6.620 147.200,6.400 147.200 C 6.180 147.200,6.000 147.920,6.000 148.800 C 6.000 149.680,5.820 150.400,5.600 150.400 C 5.380 150.400,5.200 151.120,5.200 152.000 C 5.200 152.880,5.020 153.600,4.800 153.600 C 4.580 153.600,4.400 154.320,4.400 155.200 C 4.400 156.080,4.220 156.800,4.000 156.800 C 3.780 156.800,3.600 157.700,3.600 158.800 C 3.600 159.900,3.420 160.800,3.200 160.800 C 2.980 160.800,2.800 161.689,2.800 162.776 C 2.800 163.863,2.620 164.864,2.400 165.000 C 2.180 165.136,2.000 166.317,2.000 167.624 C 2.000 168.941,1.822 170.000,1.600 170.000 C 1.372 170.000,1.200 171.189,1.200 172.767 C 1.200 174.624,1.036 175.588,0.700 175.700 C -0.032 175.944,-0.032 224.056,0.700 224.300 C 1.040 224.413,1.200 225.411,1.200 227.410 C 1.200 229.028,1.380 230.464,1.600 230.600 C 1.820 230.736,2.000 231.726,2.000 232.800 C 2.000 233.874,2.180 234.864,2.400 235.000 C 2.620 235.136,2.800 236.126,2.800 237.200 C 2.800 238.274,2.980 239.264,3.200 239.400 C 3.420 239.536,3.600 240.447,3.600 241.424 C 3.600 242.401,3.780 243.200,4.000 243.200 C 4.220 243.200,4.400 243.920,4.400 244.800 C 4.400 245.680,4.580 246.400,4.800 246.400 C 5.020 246.400,5.200 247.120,5.200 248.000 C 5.200 248.880,5.380 249.600,5.600 249.600 C 5.820 249.600,6.000 250.320,6.000 251.200 C 6.000 252.080,6.180 252.800,6.400 252.800 C 6.620 252.800,6.800 253.430,6.800 254.200 C 6.800 254.970,6.980 255.600,7.200 255.600 C 7.420 255.600,7.600 256.129,7.600 256.776 C 7.600 257.423,7.763 258.054,7.963 258.177 C 8.162 258.300,8.451 259.313,8.604 260.429 C 8.757 261.544,9.126 262.550,9.424 262.665 C 9.788 262.804,9.889 263.253,9.733 264.036 C 9.586 264.770,9.666 265.200,9.950 265.200 C 10.198 265.200,10.400 265.740,10.400 266.400 C 10.400 267.060,10.580 267.600,10.800 267.600 C 11.020 267.600,11.200 268.039,11.200 268.576 C 11.200 269.113,11.380 269.664,11.600 269.800 C 11.820 269.936,12.000 270.391,12.000 270.811 C 12.000 271.232,12.360 272.217,12.800 273.000 C 13.240 273.783,13.600 274.779,13.600 275.212 C 13.600 275.645,13.780 276.000,14.000 276.000 C 14.220 276.000,14.400 276.360,14.400 276.800 C 14.400 277.240,14.580 277.600,14.800 277.600 C 15.020 277.600,15.200 278.140,15.200 278.800 C 15.200 279.460,15.380 280.000,15.600 280.000 C 15.820 280.000,16.000 280.360,16.000 280.800 C 16.000 281.240,16.180 281.600,16.400 281.600 C 16.620 281.600,16.800 281.960,16.800 282.400 C 16.800 282.840,16.980 283.200,17.200 283.200 C 17.420 283.200,17.600 283.560,17.600 284.000 C 17.600 284.440,17.780 284.800,18.000 284.800 C 18.220 284.800,18.400 285.250,18.400 285.800 C 18.400 286.350,18.580 286.800,18.800 286.800 C 19.020 286.800,19.200 287.160,19.200 287.600 C 19.200 288.040,19.380 288.400,19.600 288.400 C 19.820 288.400,20.000 288.760,20.000 289.200 C 20.000 289.640,20.180 290.000,20.400 290.000 C 20.620 290.000,20.800 290.360,20.800 290.800 C 20.800 291.240,20.980 291.600,21.200 291.600 C 21.420 291.600,21.600 291.960,21.600 292.400 C 21.600 292.840,21.780 293.200,22.000 293.200 C 22.220 293.200,22.400 293.436,22.400 293.725 C 22.400 294.013,22.760 294.636,23.200 295.108 C 23.640 295.580,24.000 296.244,24.000 296.583 C 24.000 296.922,24.180 297.200,24.400 297.200 C 24.620 297.200,24.800 297.491,24.800 297.846 C 24.800 298.562,26.826 302.523,27.300 302.733 C 27.465 302.807,27.600 303.044,27.600 303.261 C 27.600 303.478,28.140 304.441,28.800 305.400 C 29.460 306.359,30.000 307.297,30.000 307.484 C 30.000 307.671,30.360 308.083,30.800 308.400 C 31.240 308.717,31.600 309.257,31.600 309.600 C 31.600 309.943,31.960 310.483,32.400 310.800 C 32.840 311.117,33.200 311.657,33.200 312.000 C 33.200 312.343,33.560 312.883,34.000 313.200 C 34.440 313.517,34.800 314.057,34.800 314.400 C 34.800 314.743,35.160 315.283,35.600 315.600 C 36.040 315.917,36.400 316.380,36.400 316.629 C 36.400 316.878,36.940 317.646,37.600 318.337 C 38.260 319.028,38.800 319.792,38.800 320.036 C 38.800 320.280,39.340 320.983,40.000 321.600 C 40.660 322.217,41.200 322.842,41.200 322.989 C 41.200 323.137,41.425 323.508,41.700 323.815 C 42.464 324.667,42.933 325.274,44.005 326.800 C 44.546 327.570,45.757 328.970,46.695 329.911 C 47.633 330.851,48.400 331.794,48.400 332.006 C 48.400 332.218,50.515 334.471,53.100 337.014 C 55.685 339.556,57.929 341.763,58.086 341.918 C 58.244 342.073,60.353 344.225,62.774 346.700 C 65.194 349.175,67.342 351.200,67.547 351.200 C 67.751 351.200,68.838 352.100,69.961 353.200 C 71.085 354.300,72.148 355.200,72.324 355.200 C 72.500 355.200,73.331 355.830,74.172 356.600 C 75.013 357.370,75.831 358.000,75.991 358.000 C 76.151 358.000,76.846 358.540,77.537 359.200 C 78.228 359.860,78.974 360.400,79.196 360.400 C 79.418 360.400,79.600 360.580,79.600 360.800 C 79.600 361.020,79.830 361.200,80.112 361.200 C 80.393 361.200,80.883 361.560,81.200 362.000 C 81.517 362.440,82.009 362.800,82.292 362.800 C 82.575 362.800,83.372 363.340,84.063 364.000 C 84.754 364.660,85.522 365.200,85.771 365.200 C 86.020 365.200,86.483 365.560,86.800 366.000 C 87.117 366.440,87.657 366.800,88.000 366.800 C 88.343 366.800,88.883 367.160,89.200 367.600 C 89.517 368.040,90.014 368.400,90.305 368.400 C 90.596 368.400,91.189 368.731,91.623 369.136 C 92.058 369.541,92.905 370.126,93.507 370.435 C 94.108 370.745,94.690 371.102,94.800 371.229 C 94.910 371.356,95.810 371.896,96.800 372.430 C 97.790 372.963,98.690 373.510,98.800 373.644 C 99.176 374.103,101.559 375.200,102.180 375.200 C 102.521 375.200,102.800 375.380,102.800 375.600 C 102.800 375.820,103.160 376.000,103.600 376.000 C 104.040 376.000,104.400 376.180,104.400 376.400 C 104.400 376.620,104.760 376.800,105.200 376.800 C 105.640 376.800,106.000 376.980,106.000 377.200 C 106.000 377.420,106.360 377.600,106.800 377.600 C 107.240 377.600,107.600 377.780,107.600 378.000 C 107.600 378.220,107.855 378.400,108.167 378.400 C 108.478 378.400,108.793 378.535,108.867 378.700 C 109.059 379.132,112.372 380.800,113.038 380.800 C 113.347 380.800,113.600 380.980,113.600 381.200 C 113.600 381.420,113.960 381.600,114.400 381.600 C 114.840 381.600,115.200 381.780,115.200 382.000 C 115.200 382.220,115.560 382.400,116.000 382.400 C 116.440 382.400,116.800 382.580,116.800 382.800 C 116.800 383.020,117.160 383.200,117.600 383.200 C 118.040 383.200,118.400 383.347,118.400 383.528 C 118.400 383.708,119.300 384.100,120.400 384.400 C 121.500 384.700,122.400 385.092,122.400 385.272 C 122.400 385.453,122.760 385.600,123.200 385.600 C 123.640 385.600,124.000 385.780,124.000 386.000 C 124.000 386.220,124.355 386.400,124.788 386.400 C 125.221 386.400,126.217 386.760,127.000 387.200 C 127.783 387.640,128.768 388.000,129.189 388.000 C 129.609 388.000,130.064 388.180,130.200 388.400 C 130.336 388.620,130.872 388.800,131.390 388.800 C 131.909 388.800,132.393 388.935,132.467 389.101 C 132.668 389.555,137.665 391.169,139.758 391.456 C 140.771 391.595,141.600 391.864,141.600 392.054 C 141.600 392.244,142.129 392.400,142.776 392.400 C 143.423 392.400,144.064 392.580,144.200 392.800 C 144.336 393.020,144.966 393.200,145.600 393.200 C 146.234 393.200,146.864 393.380,147.000 393.600 C 147.136 393.820,147.766 394.000,148.400 394.000 C 149.034 394.000,149.664 394.180,149.800 394.400 C 149.936 394.620,150.667 394.800,151.424 394.800 C 152.181 394.800,152.800 394.980,152.800 395.200 C 152.800 395.420,153.700 395.600,154.800 395.600 C 155.900 395.600,156.800 395.780,156.800 396.000 C 156.800 396.220,157.520 396.400,158.400 396.400 C 159.280 396.400,160.000 396.580,160.000 396.800 C 160.000 397.020,160.990 397.200,162.200 397.200 C 163.410 397.200,164.400 397.380,164.400 397.600 C 164.400 397.822,165.467 398.000,166.800 398.000 C 168.133 398.000,169.200 398.178,169.200 398.400 C 169.200 398.628,170.389 398.800,171.967 398.800 C 173.824 398.800,174.788 398.964,174.900 399.300 C 175.138 400.014,223.022 400.030,224.439 399.317 C 224.968 399.051,226.525 398.736,227.900 398.617 C 233.872 398.099,235.200 397.908,235.200 397.564 C 235.200 397.364,236.089 397.200,237.176 397.200 C 238.263 397.200,239.264 397.020,239.400 396.800 C 239.536 396.580,240.447 396.400,241.424 396.400 C 242.401 396.400,243.200 396.220,243.200 396.000 C 243.200 395.780,243.920 395.600,244.800 395.600 C 245.680 395.600,246.400 395.420,246.400 395.200 C 246.400 394.980,247.120 394.800,248.000 394.800 C 248.880 394.800,249.600 394.620,249.600 394.400 C 249.600 394.180,250.320 394.000,251.200 394.000 C 252.640 394.000,252.800 393.900,252.800 393.000 C 252.800 392.450,252.620 392.000,252.400 392.000 C 252.180 392.000,252.000 391.381,252.000 390.624 C 252.000 389.867,251.820 389.136,251.600 389.000 C 251.380 388.864,251.200 388.234,251.200 387.600 C 251.200 386.966,251.020 386.336,250.800 386.200 C 250.580 386.064,250.400 385.333,250.400 384.576 C 250.400 383.819,250.220 383.200,250.000 383.200 C 249.780 383.200,249.600 382.480,249.600 381.600 C 249.600 380.720,249.420 380.000,249.200 380.000 C 248.980 380.000,248.800 379.370,248.800 378.600 C 248.800 377.830,248.620 377.200,248.400 377.200 C 248.180 377.200,248.000 376.660,248.000 376.000 C 248.000 375.340,247.820 374.800,247.600 374.800 C 247.380 374.800,247.200 374.080,247.200 373.200 C 247.200 372.320,247.020 371.600,246.800 371.600 C 246.580 371.600,246.400 371.240,246.400 370.800 C 246.400 370.119,246.133 370.000,244.600 370.000 C 243.610 370.000,242.800 370.180,242.800 370.400 C 242.800 370.620,242.080 370.800,241.200 370.800 C 240.320 370.800,239.600 370.980,239.600 371.200 C 239.600 371.420,238.801 371.600,237.824 371.600 C 236.847 371.600,235.936 371.780,235.800 372.000 C 235.664 372.220,234.663 372.400,233.576 372.400 C 232.489 372.400,231.600 372.580,231.600 372.800 C 231.600 373.020,230.700 373.200,229.600 373.200 C 228.500 373.200,227.600 373.380,227.600 373.600 C 227.600 373.825,226.478 374.000,225.033 374.000 C 223.622 374.000,222.407 374.159,222.333 374.354 C 221.854 375.628,177.351 375.624,176.867 374.350 C 176.793 374.158,175.668 374.000,174.367 374.000 C 173.056 374.000,172.000 373.822,172.000 373.600 C 172.000 373.380,171.010 373.200,169.800 373.200 C 168.590 373.200,167.600 373.020,167.600 372.800 C 167.600 372.580,166.700 372.400,165.600 372.400 C 164.500 372.400,163.600 372.220,163.600 372.000 C 163.600 371.780,162.880 371.600,162.000 371.600 C 161.120 371.600,160.400 371.420,160.400 371.200 C 160.400 370.980,159.680 370.800,158.800 370.800 C 157.920 370.800,157.200 370.620,157.200 370.400 C 157.200 370.180,156.581 370.000,155.824 370.000 C 155.067 370.000,154.336 369.820,154.200 369.600 C 154.064 369.380,153.333 369.200,152.576 369.200 C 151.819 369.200,151.200 369.020,151.200 368.800 C 151.200 368.580,150.660 368.400,150.000 368.400 C 149.340 368.400,148.800 368.220,148.800 368.000 C 148.800 367.780,148.260 367.600,147.600 367.600 C 146.940 367.600,146.400 367.420,146.400 367.200 C 146.400 366.980,145.860 366.800,145.200 366.800 C 144.540 366.800,144.000 366.620,144.000 366.400 C 144.000 366.180,143.460 366.000,142.800 366.000 C 142.140 366.000,141.600 365.820,141.600 365.600 C 141.600 365.380,141.150 365.200,140.600 365.200 C 140.050 365.200,139.600 365.020,139.600 364.800 C 139.600 364.580,139.161 364.400,138.624 364.400 C 138.087 364.400,137.536 364.220,137.400 364.000 C 137.264 363.780,136.803 363.600,136.376 363.600 C 135.949 363.600,135.600 363.453,135.600 363.272 C 135.600 363.092,134.700 362.700,133.600 362.400 C 132.500 362.100,131.600 361.708,131.600 361.528 C 131.600 361.347,131.358 361.200,131.061 361.200 C 130.765 361.200,130.000 360.947,129.361 360.638 C 126.455 359.233,124.394 358.400,123.822 358.400 C 123.480 358.400,123.200 358.220,123.200 358.000 C 123.200 357.780,122.840 357.600,122.400 357.600 C 121.960 357.600,121.600 357.420,121.600 357.200 C 121.600 356.980,121.240 356.800,120.800 356.800 C 120.360 356.800,120.000 356.620,120.000 356.400 C 120.000 356.180,119.722 356.000,119.383 356.000 C 119.044 356.000,118.380 355.640,117.908 355.200 C 117.436 354.760,116.813 354.400,116.525 354.400 C 116.236 354.400,116.000 354.220,116.000 354.000 C 116.000 353.780,115.640 353.600,115.200 353.600 C 114.760 353.600,114.400 353.420,114.400 353.200 C 114.400 352.980,114.040 352.800,113.600 352.800 C 113.160 352.800,112.800 352.620,112.800 352.400 C 112.800 352.180,112.480 352.000,112.088 352.000 C 111.697 352.000,111.117 351.640,110.800 351.200 C 110.483 350.760,109.903 350.400,109.512 350.400 C 109.120 350.400,108.800 350.220,108.800 350.000 C 108.800 349.780,108.530 349.600,108.200 349.600 C 107.870 349.600,107.600 349.450,107.600 349.268 C 107.600 349.085,107.105 348.680,106.500 348.368 C 105.895 348.055,105.051 347.485,104.625 347.100 C 104.198 346.715,103.613 346.400,103.325 346.400 C 103.036 346.400,102.800 346.250,102.800 346.068 C 102.800 345.885,102.305 345.480,101.700 345.168 C 101.095 344.855,100.246 344.281,99.814 343.890 C 99.382 343.500,98.797 343.269,98.514 343.378 C 98.231 343.486,98.000 343.323,98.000 343.014 C 98.000 342.706,97.640 342.340,97.200 342.200 C 96.760 342.060,96.400 341.778,96.400 341.573 C 96.400 341.368,96.112 341.200,95.760 341.200 C 95.409 341.200,94.617 340.660,94.000 340.000 C 93.383 339.340,92.699 338.800,92.480 338.800 C 92.260 338.800,91.452 338.215,90.685 337.500 C 86.058 333.189,85.153 332.400,84.835 332.400 C 84.641 332.400,83.127 331.095,81.471 329.500 C 79.815 327.905,77.681 325.857,76.730 324.948 C 73.783 322.134,68.533 316.511,67.556 315.123 C 67.044 314.395,65.945 313.139,65.113 312.331 C 64.281 311.524,63.600 310.744,63.600 310.600 C 63.600 310.456,62.880 309.646,62.000 308.800 C 61.120 307.954,60.400 307.060,60.400 306.813 C 60.400 306.566,59.950 305.914,59.400 305.364 C 58.850 304.814,58.400 304.147,58.400 303.882 C 58.399 303.617,57.949 302.877,57.400 302.238 C 56.850 301.599,56.400 300.932,56.400 300.756 C 56.400 300.580,55.950 299.986,55.400 299.436 C 54.850 298.886,54.400 298.241,54.400 298.001 C 54.400 297.762,54.040 297.180,53.600 296.708 C 53.160 296.236,52.800 295.613,52.800 295.325 C 52.800 295.036,52.620 294.800,52.400 294.800 C 52.180 294.800,52.000 294.612,52.000 294.383 C 52.000 294.154,51.640 293.580,51.200 293.108 C 50.760 292.636,50.400 292.013,50.400 291.725 C 50.400 291.436,50.220 291.200,50.000 291.200 C 49.780 291.200,49.600 290.964,49.600 290.675 C 49.600 290.387,49.240 289.764,48.800 289.292 C 48.360 288.820,48.000 288.156,48.000 287.817 C 48.000 287.478,47.820 287.200,47.600 287.200 C 47.380 287.200,47.200 286.922,47.200 286.583 C 47.200 286.244,46.840 285.580,46.400 285.108 C 45.960 284.636,45.600 284.013,45.600 283.725 C 45.600 283.436,45.420 283.200,45.200 283.200 C 44.980 283.200,44.800 282.840,44.800 282.400 C 44.800 281.960,44.620 281.600,44.400 281.600 C 44.180 281.600,44.000 281.240,44.000 280.800 C 44.000 280.360,43.820 280.000,43.600 280.000 C 43.380 280.000,43.200 279.640,43.200 279.200 C 43.200 278.760,43.020 278.400,42.800 278.400 C 42.580 278.400,42.400 278.040,42.400 277.600 C 42.400 277.160,42.234 276.800,42.032 276.800 C 41.829 276.800,41.547 276.268,41.404 275.617 C 41.161 274.513,40.070 271.900,39.185 270.305 C 38.973 269.923,38.800 269.338,38.800 269.005 C 38.800 268.672,38.620 268.400,38.400 268.400 C 38.180 268.400,38.000 267.961,38.000 267.424 C 38.000 266.887,37.820 266.336,37.600 266.200 C 37.380 266.064,37.200 265.603,37.200 265.176 C 37.200 264.749,37.020 264.400,36.800 264.400 C 36.580 264.400,36.400 263.950,36.400 263.400 C 36.400 262.850,36.220 262.400,36.000 262.400 C 35.780 262.400,35.600 261.950,35.600 261.400 C 35.600 260.850,35.420 260.400,35.200 260.400 C 34.980 260.400,34.800 259.950,34.800 259.400 C 34.800 258.850,34.620 258.400,34.400 258.400 C 34.180 258.400,34.000 257.860,34.000 257.200 C 34.000 256.540,33.820 256.000,33.600 256.000 C 33.380 256.000,33.200 255.460,33.200 254.800 C 33.200 254.140,33.020 253.600,32.800 253.600 C 32.580 253.600,32.400 253.060,32.400 252.400 C 32.400 251.740,32.220 251.200,32.000 251.200 C 31.780 251.200,31.600 250.581,31.600 249.824 C 31.600 249.067,31.420 248.336,31.200 248.200 C 30.980 248.064,30.800 247.423,30.800 246.776 C 30.800 246.129,30.620 245.600,30.400 245.600 C 30.180 245.600,30.000 244.970,30.000 244.200 C 30.000 243.430,29.820 242.800,29.600 242.800 C 29.380 242.800,29.200 242.080,29.200 241.200 C 29.200 240.320,29.020 239.600,28.800 239.600 C 28.580 239.600,28.400 238.700,28.400 237.600 C 28.400 236.500,28.220 235.600,28.000 235.600 C 27.780 235.600,27.600 234.891,27.600 234.024 C 27.600 233.157,27.420 232.336,27.200 232.200 C 26.980 232.064,26.800 230.973,26.800 229.776 C 26.800 228.579,26.620 227.600,26.400 227.600 C 26.175 227.600,26.000 226.478,26.000 225.033 C 26.000 223.336,25.831 222.410,25.500 222.300 C 24.769 222.056,24.769 177.944,25.500 177.700 C 25.824 177.592,26.000 176.709,26.000 175.190 C 26.000 173.902,26.180 172.736,26.400 172.600 C 26.620 172.464,26.800 171.474,26.800 170.400 C 26.800 169.326,26.980 168.336,27.200 168.200 C 27.420 168.064,27.600 167.153,27.600 166.176 C 27.600 165.199,27.780 164.400,28.000 164.400 C 28.220 164.400,28.400 163.500,28.400 162.400 C 28.400 161.300,28.580 160.400,28.800 160.400 C 29.020 160.400,29.200 159.680,29.200 158.800 C 29.200 157.920,29.380 157.200,29.600 157.200 C 29.820 157.200,30.000 156.570,30.000 155.800 C 30.000 155.030,30.180 154.400,30.400 154.400 C 30.620 154.400,30.800 153.871,30.800 153.224 C 30.800 152.577,30.980 151.936,31.200 151.800 C 31.420 151.664,31.600 150.933,31.600 150.176 C 31.600 149.419,31.780 148.800,32.000 148.800 C 32.220 148.800,32.400 148.260,32.400 147.600 C 32.400 146.940,32.580 146.400,32.800 146.400 C 33.020 146.400,33.200 145.860,33.200 145.200 C 33.200 144.540,33.380 144.000,33.600 144.000 C 33.820 144.000,34.000 143.460,34.000 142.800 C 34.000 142.140,34.180 141.600,34.400 141.600 C 34.620 141.600,34.800 141.150,34.800 140.600 C 34.800 140.050,34.980 139.600,35.200 139.600 C 35.420 139.600,35.600 139.251,35.600 138.824 C 35.600 138.397,35.780 137.936,36.000 137.800 C 36.220 137.664,36.400 137.113,36.400 136.576 C 36.400 136.039,36.580 135.600,36.800 135.600 C 37.020 135.600,37.200 135.251,37.200 134.824 C 37.200 134.397,37.380 133.936,37.600 133.800 C 37.820 133.664,38.000 133.113,38.000 132.576 C 38.000 132.039,38.180 131.600,38.400 131.600 C 38.620 131.600,38.800 131.240,38.800 130.800 C 38.800 130.360,38.980 130.000,39.200 130.000 C 39.420 130.000,39.600 129.735,39.600 129.412 C 39.600 129.088,40.050 127.840,40.600 126.637 C 41.150 125.435,41.600 124.170,41.600 123.826 C 41.600 123.482,41.780 123.200,42.000 123.200 C 42.220 123.200,42.400 122.840,42.400 122.400 C 42.400 121.960,42.580 121.600,42.800 121.600 C 43.020 121.600,43.200 121.240,43.200 120.800 C 43.200 120.360,43.380 120.000,43.600 120.000 C 43.820 120.000,44.000 119.640,44.000 119.200 C 44.000 118.760,44.180 118.400,44.400 118.400 C 44.620 118.400,44.800 118.130,44.800 117.800 C 44.800 117.470,44.980 117.200,45.200 117.200 C 45.420 117.200,45.600 116.930,45.600 116.600 C 45.600 116.270,45.780 116.000,46.000 116.000 C 46.220 116.000,46.400 115.640,46.400 115.200 C 46.400 114.760,46.580 114.400,46.800 114.400 C 47.020 114.400,47.200 114.040,47.200 113.600 C 47.200 113.160,47.380 112.800,47.600 112.800 C 47.820 112.800,48.000 112.480,48.000 112.088 C 48.000 111.697,48.360 111.117,48.800 110.800 C 49.240 110.483,49.600 109.903,49.600 109.512 C 49.600 109.120,49.780 108.800,50.000 108.800 C 50.220 108.800,50.400 108.612,50.400 108.383 C 50.400 108.154,50.760 107.580,51.200 107.108 C 51.640 106.636,52.000 106.013,52.000 105.725 C 52.000 105.436,52.180 105.200,52.400 105.200 C 52.620 105.200,52.800 104.975,52.801 104.700 C 52.801 104.425,53.341 103.570,54.000 102.800 C 54.659 102.030,55.199 101.175,55.199 100.900 C 55.200 100.625,55.368 100.400,55.573 100.400 C 55.778 100.400,56.055 100.056,56.188 99.637 C 56.322 99.217,56.961 98.272,57.609 97.537 C 58.257 96.801,58.790 95.957,58.794 95.660 C 58.797 95.364,59.340 94.617,60.000 94.000 C 60.660 93.383,61.200 92.670,61.200 92.414 C 61.200 92.158,61.740 91.494,62.400 90.939 C 63.060 90.383,63.600 89.753,63.600 89.538 C 63.600 89.324,64.500 88.271,65.600 87.200 C 66.700 86.129,67.600 85.086,67.600 84.883 C 67.600 84.576,73.250 78.430,75.868 75.889 C 81.656 70.269,83.675 68.400,83.956 68.400 C 84.141 68.400,85.288 67.455,86.504 66.300 C 90.154 62.833,90.400 62.662,90.400 63.580 C 90.400 64.005,90.220 64.464,90.000 64.600 C 89.780 64.736,89.600 66.266,89.600 68.000 C 89.600 69.734,89.420 71.264,89.200 71.400 C 88.980 71.536,88.800 72.987,88.800 74.624 C 88.800 76.341,88.631 77.600,88.400 77.600 C 88.167 77.600,88.000 78.933,88.000 80.800 C 88.000 82.667,87.833 84.000,87.600 84.000 C 87.367 84.000,87.200 85.333,87.200 87.200 C 87.200 89.067,87.033 90.400,86.800 90.400 C 86.569 90.400,86.400 91.659,86.400 93.376 C 86.400 95.013,86.220 96.464,86.000 96.600 C 85.780 96.736,85.600 98.187,85.600 99.824 C 85.600 101.541,85.431 102.800,85.200 102.800 C 84.979 102.800,84.800 103.838,84.800 105.113 L 84.800 107.425 86.500 107.903 C 87.435 108.166,90.585 108.501,93.500 108.647 C 96.415 108.793,98.800 109.067,98.800 109.256 C 98.800 109.445,100.240 109.600,102.000 109.600 C 103.867 109.600,105.200 109.767,105.200 110.000 C 105.200 110.220,106.190 110.400,107.400 110.400 L 109.600 110.400 109.600 108.024 C 109.600 106.717,109.780 105.536,110.000 105.400 C 110.220 105.264,110.400 103.723,110.400 101.976 C 110.400 100.125,110.567 98.800,110.800 98.800 C 111.033 98.800,111.200 97.467,111.200 95.600 C 111.200 93.733,111.367 92.400,111.600 92.400 C 111.831 92.400,112.000 91.133,112.000 89.400 C 112.000 87.667,112.169 86.400,112.400 86.400 C 112.633 86.400,112.800 85.067,112.800 83.200 C 112.800 81.333,112.967 80.000,113.200 80.000 C 113.433 80.000,113.600 78.667,113.600 76.800 C 113.600 74.933,113.767 73.600,114.000 73.600 C 114.233 73.600,114.400 72.275,114.400 70.424 C 114.400 68.677,114.580 67.136,114.800 67.000 C 115.020 66.864,115.200 65.323,115.200 63.576 C 115.200 61.725,115.367 60.400,115.600 60.400 C 115.831 60.400,116.000 59.133,116.000 57.400 C 116.000 55.667,116.169 54.400,116.400 54.400 C 116.633 54.400,116.800 53.067,116.800 51.200 C 116.800 49.333,116.967 48.000,117.200 48.000 C 117.433 48.000,117.600 46.667,117.600 44.800 C 117.600 42.933,117.767 41.600,118.000 41.600 C 118.230 41.600,118.400 40.360,118.400 38.680 C 118.400 37.074,118.566 35.589,118.770 35.380 C 118.973 35.171,119.234 33.650,119.350 32.000 C 119.465 30.350,119.614 28.386,119.680 27.635 C 119.833 25.896,118.021 25.391,110.100 24.967 C 107.185 24.811,104.800 24.530,104.800 24.342 C 104.800 24.154,103.461 24.000,101.824 24.000 C 100.187 24.000,98.736 23.820,98.600 23.600 C 98.464 23.380,96.833 23.200,94.976 23.200 C 92.992 23.200,91.600 23.035,91.600 22.800 C 91.600 22.569,90.333 22.400,88.600 22.400 C 86.867 22.400,85.600 22.231,85.600 22.000 C 85.600 21.767,84.267 21.600,82.400 21.600 C 80.533 21.600,79.200 21.433,79.200 21.200 C 79.200 20.969,77.941 20.800,76.224 20.800 C 74.587 20.800,73.136 20.620,73.000 20.400 C 72.864 20.180,71.424 20.000,69.800 20.000 C 68.176 20.000,66.736 19.820,66.600 19.600 C 66.464 19.380,65.024 19.200,63.400 19.200 C 61.776 19.200,60.336 19.020,60.200 18.800 C 60.064 18.580,58.624 18.400,57.000 18.400 C 55.376 18.400,53.936 18.220,53.800 18.000 C 53.664 17.780,52.123 17.600,50.376 17.600 C 48.525 17.600,47.200 17.433,47.200 17.200 C 47.200 16.967,45.867 16.800,44.000 16.800 C 42.133 16.800,40.800 16.633,40.800 16.400 C 40.800 15.758,35.884 15.935,35.300 16.598 M203.100 23.891 C 202.275 23.978,200.925 23.978,200.100 23.891 C 199.275 23.805,199.950 23.734,201.600 23.734 C 203.250 23.734,203.925 23.805,203.100 23.891 M195.600 76.257 C 194.170 77.049,192.596 77.900,192.103 78.148 C 191.610 78.397,191.205 78.735,191.203 78.900 C 191.201 79.065,190.880 79.200,190.488 79.200 C 190.097 79.200,189.517 79.560,189.200 80.000 C 188.883 80.440,188.303 80.800,187.912 80.800 C 187.520 80.800,187.200 80.950,187.200 81.132 C 187.200 81.315,186.705 81.720,186.100 82.032 C 185.495 82.345,184.651 82.915,184.225 83.300 C 183.798 83.685,183.253 84.000,183.013 84.000 C 182.773 84.000,182.317 84.360,182.000 84.800 C 181.683 85.240,181.143 85.600,180.800 85.600 C 180.457 85.600,179.917 85.960,179.600 86.400 C 179.283 86.840,178.793 87.200,178.512 87.200 C 178.230 87.200,178.000 87.380,178.000 87.600 C 178.000 87.820,177.770 88.000,177.488 88.000 C 177.207 88.000,176.717 88.360,176.400 88.800 C 176.083 89.240,175.665 89.600,175.472 89.600 C 175.279 89.600,174.617 90.140,174.000 90.800 C 173.383 91.460,172.674 92.000,172.423 92.000 C 171.914 92.000,171.385 92.401,169.392 94.300 C 168.641 95.015,167.859 95.600,167.654 95.600 C 167.449 95.600,166.362 96.500,165.239 97.600 C 164.115 98.700,163.071 99.600,162.918 99.600 C 162.764 99.600,160.650 101.578,158.220 103.996 C 155.789 106.414,151.685 110.479,149.100 113.030 C 146.515 115.581,144.400 117.814,144.400 117.992 C 144.400 118.284,143.553 119.317,141.209 121.886 C 140.764 122.373,140.400 122.936,140.400 123.137 C 140.400 123.339,139.680 124.245,138.800 125.152 C 137.920 126.059,137.200 126.908,137.200 127.040 C 137.200 127.171,136.660 127.783,136.000 128.400 C 135.340 129.017,134.800 129.674,134.799 129.860 C 134.799 130.047,134.259 130.830,133.600 131.600 C 132.941 132.370,132.401 133.185,132.401 133.412 C 132.400 133.638,132.040 134.083,131.600 134.400 C 131.160 134.717,130.800 135.257,130.800 135.600 C 130.800 135.943,130.440 136.483,130.000 136.800 C 129.560 137.117,129.200 137.697,129.200 138.088 C 129.200 138.480,129.050 138.800,128.868 138.800 C 128.685 138.800,128.280 139.295,127.968 139.900 C 127.656 140.505,127.300 141.090,127.177 141.200 C 126.788 141.546,124.800 145.283,124.800 145.667 C 124.800 145.869,124.440 146.420,124.000 146.892 C 123.560 147.364,123.200 147.987,123.200 148.275 C 123.200 148.564,123.020 148.800,122.800 148.800 C 122.580 148.800,122.400 149.160,122.400 149.600 C 122.400 150.040,122.220 150.400,122.000 150.400 C 121.780 150.400,121.600 150.760,121.600 151.200 C 121.600 151.640,121.420 152.000,121.200 152.000 C 120.980 152.000,120.800 152.360,120.800 152.800 C 120.800 153.240,120.620 153.600,120.400 153.600 C 120.180 153.600,120.000 153.960,120.000 154.400 C 120.000 154.840,119.820 155.200,119.600 155.200 C 119.380 155.200,119.200 155.560,119.200 156.000 C 119.200 156.440,119.020 156.800,118.800 156.800 C 118.580 156.800,118.400 157.160,118.400 157.600 C 118.400 158.040,118.220 158.400,118.000 158.400 C 117.780 158.400,117.600 158.760,117.600 159.200 C 117.600 159.640,117.420 160.000,117.200 160.000 C 116.980 160.000,116.800 160.450,116.800 161.000 C 116.800 161.550,116.620 162.000,116.400 162.000 C 116.180 162.000,116.000 162.360,116.000 162.800 C 116.000 163.240,115.820 163.600,115.600 163.600 C 115.380 163.600,115.200 164.140,115.200 164.800 C 115.200 165.460,115.020 166.000,114.800 166.000 C 114.580 166.000,114.400 166.360,114.400 166.800 C 114.400 167.240,114.220 167.600,114.000 167.600 C 113.780 167.600,113.600 168.140,113.600 168.800 C 113.600 169.460,113.420 170.000,113.200 170.000 C 112.980 170.000,112.800 170.540,112.800 171.200 C 112.800 171.860,112.620 172.400,112.400 172.400 C 112.180 172.400,112.000 172.940,112.000 173.600 C 112.000 174.260,111.820 174.800,111.600 174.800 C 111.380 174.800,111.200 175.239,111.200 175.776 C 111.200 176.313,111.020 176.864,110.800 177.000 C 110.580 177.136,110.400 177.766,110.400 178.400 C 110.400 179.034,110.203 179.675,109.962 179.824 C 109.720 179.973,109.599 180.609,109.691 181.238 C 109.783 181.866,109.693 182.436,109.492 182.503 C 109.034 182.655,108.441 185.638,108.417 187.900 C 108.408 188.835,108.220 189.600,108.000 189.600 C 107.780 189.600,107.600 190.500,107.600 191.600 C 107.600 192.700,107.420 193.600,107.200 193.600 C 106.974 193.600,106.800 194.733,106.800 196.200 C 106.800 197.667,106.626 198.800,106.400 198.800 C 106.160 198.800,106.000 200.400,106.000 202.800 C 106.000 205.200,105.840 206.800,105.600 206.800 C 105.345 206.800,105.200 210.133,105.200 216.000 C 105.200 221.867,105.345 225.200,105.600 225.200 C 105.835 225.200,106.000 226.592,106.000 228.576 C 106.000 230.433,106.180 232.064,106.400 232.200 C 106.620 232.336,106.800 233.337,106.800 234.424 C 106.800 235.511,106.980 236.400,107.200 236.400 C 107.420 236.400,107.600 237.109,107.600 237.976 C 107.600 238.843,107.756 239.649,107.947 239.767 C 108.138 239.885,108.419 240.931,108.572 242.091 C 108.872 244.377,111.203 251.716,111.697 251.933 C 111.864 252.007,112.000 252.324,112.000 252.639 C 112.000 252.953,112.160 253.523,112.356 253.905 C 112.552 254.287,113.137 255.500,113.656 256.600 C 114.175 257.700,114.735 258.660,114.900 258.733 C 115.065 258.807,115.200 259.212,115.200 259.633 C 115.200 260.055,115.380 260.400,115.600 260.400 C 115.820 260.400,116.000 260.760,116.000 261.200 C 116.000 261.640,116.180 262.000,116.400 262.000 C 116.620 262.000,116.800 262.278,116.800 262.617 C 116.800 262.956,117.160 263.620,117.600 264.092 C 118.040 264.564,118.400 265.187,118.400 265.475 C 118.400 265.764,118.580 266.000,118.800 266.000 C 119.020 266.000,119.200 266.320,119.200 266.712 C 119.200 267.103,119.560 267.683,120.000 268.000 C 120.440 268.317,120.800 268.857,120.800 269.200 C 120.800 269.543,121.160 270.083,121.600 270.400 C 122.040 270.717,122.400 271.215,122.400 271.506 C 122.400 271.798,122.805 272.443,123.300 272.941 C 123.795 273.438,124.650 274.509,125.200 275.320 C 125.750 276.131,126.455 276.796,126.767 276.797 C 127.078 276.799,127.219 276.915,127.078 277.055 C 126.530 277.603,137.339 289.200,138.399 289.200 C 138.573 289.200,139.271 289.695,139.949 290.300 C 142.012 292.139,142.353 292.400,142.695 292.400 C 142.876 292.400,143.283 292.760,143.600 293.200 C 143.917 293.640,144.407 294.000,144.688 294.000 C 144.970 294.000,145.200 294.180,145.200 294.400 C 145.200 294.620,145.388 294.800,145.617 294.800 C 145.846 294.800,146.420 295.160,146.892 295.600 C 147.364 296.040,147.987 296.400,148.275 296.400 C 148.564 296.400,148.800 296.580,148.800 296.800 C 148.800 297.020,149.036 297.200,149.325 297.200 C 149.613 297.200,150.236 297.560,150.708 298.000 C 151.180 298.440,151.844 298.800,152.183 298.800 C 152.522 298.800,152.800 298.980,152.800 299.200 C 152.800 299.420,153.160 299.600,153.600 299.600 C 154.040 299.600,154.400 299.780,154.400 300.000 C 154.400 300.220,154.572 300.400,154.782 300.400 C 154.993 300.400,156.081 300.940,157.200 301.600 C 158.319 302.260,159.497 302.800,159.818 302.800 C 160.138 302.800,160.400 302.980,160.400 303.200 C 160.400 303.420,160.760 303.600,161.200 303.600 C 161.640 303.600,162.000 303.780,162.000 304.000 C 162.000 304.220,162.349 304.400,162.776 304.400 C 163.203 304.400,163.664 304.580,163.800 304.800 C 163.936 305.020,164.487 305.200,165.024 305.200 C 165.561 305.200,166.000 305.380,166.000 305.600 C 166.000 305.820,166.420 306.000,166.933 306.000 C 167.447 306.000,167.990 306.123,168.141 306.274 C 168.567 306.701,171.308 307.587,172.220 307.594 C 172.671 307.597,173.219 307.779,173.438 307.998 C 173.656 308.216,174.952 308.512,176.318 308.654 C 177.683 308.797,178.800 309.068,178.800 309.257 C 178.800 309.446,179.599 309.600,180.576 309.600 C 181.553 309.600,182.464 309.780,182.600 310.000 C 182.736 310.220,184.007 310.400,185.424 310.400 C 186.875 310.400,188.000 310.575,188.000 310.800 C 188.000 311.058,192.267 311.200,200.000 311.200 C 207.733 311.200,212.000 311.058,212.000 310.800 C 212.000 310.575,213.125 310.400,214.576 310.400 C 215.993 310.400,217.264 310.220,217.400 310.000 C 217.536 309.780,218.447 309.600,219.424 309.600 C 220.401 309.600,221.200 309.443,221.200 309.252 C 221.200 309.060,222.460 308.779,224.000 308.627 C 225.540 308.476,226.800 308.182,226.800 307.976 C 226.800 307.769,227.181 307.600,227.647 307.600 C 228.697 307.600,233.751 305.912,233.933 305.501 C 234.007 305.335,234.491 305.200,235.010 305.200 C 235.528 305.200,236.064 305.020,236.200 304.800 C 236.336 304.580,236.797 304.400,237.224 304.400 C 237.651 304.400,238.000 304.220,238.000 304.000 C 238.000 303.780,238.360 303.600,238.800 303.600 C 239.240 303.600,239.600 303.420,239.600 303.200 C 239.600 302.980,239.859 302.800,240.175 302.800 C 240.868 302.800,245.344 300.405,245.533 299.933 C 245.607 299.750,246.012 299.600,246.433 299.600 C 246.855 299.600,247.200 299.420,247.200 299.200 C 247.200 298.980,247.478 298.800,247.817 298.800 C 248.156 298.800,248.820 298.440,249.292 298.000 C 249.764 297.560,250.387 297.200,250.675 297.200 C 250.964 297.200,251.200 297.020,251.200 296.800 C 251.200 296.580,251.436 296.400,251.725 296.400 C 252.013 296.400,252.636 296.040,253.108 295.600 C 253.580 295.160,254.154 294.800,254.383 294.800 C 254.612 294.800,254.800 294.620,254.800 294.400 C 254.800 294.180,255.030 294.000,255.312 294.000 C 255.593 294.000,256.083 293.640,256.400 293.200 C 256.717 292.760,257.124 292.400,257.305 292.400 C 257.647 292.400,257.988 292.139,260.051 290.300 C 260.729 289.695,261.427 289.200,261.601 289.200 C 262.081 289.200,271.281 280.001,272.402 278.400 C 272.941 277.630,273.792 276.587,274.291 276.082 C 274.791 275.577,275.200 275.019,275.200 274.841 C 275.200 274.664,275.740 273.954,276.400 273.263 C 277.060 272.572,277.600 271.775,277.600 271.492 C 277.600 271.209,277.960 270.717,278.400 270.400 C 278.840 270.083,279.200 269.543,279.200 269.200 C 279.200 268.857,279.560 268.317,280.000 268.000 C 280.440 267.683,280.800 267.103,280.800 266.712 C 280.800 266.320,280.980 266.000,281.200 266.000 C 281.420 266.000,281.600 265.764,281.600 265.475 C 281.600 265.187,281.960 264.564,282.400 264.092 C 282.840 263.620,283.200 262.956,283.200 262.617 C 283.200 262.278,283.380 262.000,283.600 262.000 C 283.820 262.000,284.000 261.640,284.000 261.200 C 284.000 260.760,284.180 260.400,284.400 260.400 C 284.620 260.400,284.800 260.055,284.800 259.633 C 284.800 259.212,284.935 258.807,285.100 258.733 C 285.265 258.660,285.825 257.700,286.344 256.600 C 286.863 255.500,287.448 254.287,287.644 253.905 C 287.840 253.523,288.000 252.938,288.000 252.605 C 288.000 252.272,288.180 252.000,288.400 252.000 C 288.620 252.000,288.800 251.638,288.800 251.195 C 288.800 250.752,288.971 250.077,289.181 249.695 C 289.935 248.321,291.168 244.159,291.434 242.091 C 291.583 240.931,291.862 239.885,292.053 239.767 C 292.244 239.649,292.400 238.843,292.400 237.976 C 292.400 237.109,292.580 236.400,292.800 236.400 C 293.020 236.400,293.200 235.511,293.200 234.424 C 293.200 233.337,293.380 232.336,293.600 232.200 C 293.820 232.064,294.000 230.433,294.000 228.576 C 294.000 226.592,294.165 225.200,294.400 225.200 C 294.655 225.200,294.800 221.867,294.800 216.000 C 294.800 210.133,294.655 206.800,294.400 206.800 C 294.160 206.800,294.000 205.200,294.000 202.800 C 294.000 200.400,293.840 198.800,293.600 198.800 C 293.374 198.800,293.200 197.667,293.200 196.200 C 293.200 194.733,293.026 193.600,292.800 193.600 C 292.580 193.600,292.400 192.700,292.400 191.600 C 292.400 190.500,292.220 189.600,292.000 189.600 C 291.780 189.600,291.592 188.835,291.583 187.900 C 291.565 186.161,291.211 184.235,290.389 181.400 C 290.134 180.520,289.832 179.213,289.719 178.496 C 289.605 177.779,289.351 177.094,289.156 176.973 C 288.960 176.852,288.800 176.313,288.800 175.776 C 288.800 175.239,288.620 174.800,288.400 174.800 C 288.180 174.800,288.000 174.260,288.000 173.600 C 288.000 172.940,287.820 172.400,287.600 172.400 C 287.380 172.400,287.200 171.860,287.200 171.200 C 287.200 170.540,287.020 170.000,286.800 170.000 C 286.580 170.000,286.400 169.460,286.400 168.800 C 286.400 168.140,286.220 167.600,286.000 167.600 C 285.780 167.600,285.600 167.251,285.600 166.824 C 285.600 166.397,285.420 165.936,285.200 165.800 C 284.980 165.664,284.800 165.113,284.800 164.576 C 284.800 164.039,284.620 163.600,284.400 163.600 C 284.180 163.600,284.000 163.240,284.000 162.800 C 284.000 162.360,283.820 162.000,283.600 162.000 C 283.380 162.000,283.200 161.550,283.200 161.000 C 283.200 160.450,283.020 160.000,282.800 160.000 C 282.580 160.000,282.400 159.640,282.400 159.200 C 282.400 158.760,282.220 158.400,282.000 158.400 C 281.780 158.400,281.600 158.040,281.600 157.600 C 281.600 157.160,281.420 156.800,281.200 156.800 C 280.980 156.800,280.800 156.440,280.800 156.000 C 280.800 155.560,280.620 155.200,280.400 155.200 C 280.180 155.200,280.000 154.840,280.000 154.400 C 280.000 153.960,279.820 153.600,279.600 153.600 C 279.380 153.600,279.200 153.240,279.200 152.800 C 279.200 152.360,279.020 152.000,278.800 152.000 C 278.580 152.000,278.400 151.640,278.400 151.200 C 278.400 150.760,278.220 150.400,278.000 150.400 C 277.780 150.400,277.600 150.040,277.600 149.600 C 277.600 149.160,277.420 148.800,277.200 148.800 C 276.980 148.800,276.800 148.480,276.800 148.088 C 276.800 147.697,276.440 147.117,276.000 146.800 C 275.560 146.483,275.200 145.980,275.200 145.683 C 275.200 145.187,273.329 141.664,272.819 141.200 C 272.698 141.090,272.344 140.505,272.032 139.900 C 271.720 139.295,271.315 138.800,271.132 138.800 C 270.950 138.800,270.800 138.480,270.800 138.088 C 270.800 137.697,270.440 137.117,270.000 136.800 C 269.560 136.483,269.200 135.943,269.200 135.600 C 269.200 135.257,268.840 134.717,268.400 134.400 C 267.960 134.083,267.600 133.620,267.600 133.371 C 267.600 133.122,267.060 132.354,266.400 131.663 C 265.740 130.972,265.200 130.208,265.200 129.964 C 265.200 129.720,264.660 129.017,264.000 128.400 C 263.340 127.783,262.800 127.171,262.800 127.040 C 262.800 126.908,262.080 126.059,261.200 125.152 C 260.320 124.245,259.600 123.338,259.600 123.135 C 259.600 122.721,259.253 122.280,257.100 119.955 C 256.275 119.064,255.600 118.185,255.600 118.002 C 255.600 117.818,253.485 115.581,250.900 113.030 C 248.315 110.479,244.211 106.414,241.780 103.996 C 239.350 101.578,237.236 99.600,237.082 99.600 C 236.929 99.600,235.885 98.700,234.761 97.600 C 233.638 96.500,232.551 95.600,232.346 95.600 C 232.141 95.600,231.359 95.015,230.608 94.300 C 228.692 92.475,228.087 92.000,227.676 92.000 C 227.480 92.000,226.754 91.460,226.063 90.800 C 225.372 90.140,224.665 89.600,224.492 89.600 C 224.319 89.600,223.917 89.240,223.600 88.800 C 223.283 88.360,222.793 88.000,222.512 88.000 C 222.230 88.000,222.000 87.820,222.000 87.600 C 222.000 87.380,221.770 87.200,221.488 87.200 C 221.207 87.200,220.717 86.840,220.400 86.400 C 220.083 85.960,219.543 85.600,219.200 85.600 C 218.857 85.600,218.317 85.240,218.000 84.800 C 217.683 84.360,217.227 84.000,216.987 84.000 C 216.747 84.000,216.202 83.685,215.775 83.300 C 215.349 82.915,214.505 82.345,213.900 82.032 C 213.295 81.720,212.800 81.315,212.800 81.132 C 212.800 80.950,212.480 80.800,212.088 80.800 C 211.697 80.800,211.117 80.440,210.800 80.000 C 210.483 79.560,209.903 79.200,209.512 79.200 C 209.120 79.200,208.799 79.065,208.797 78.900 C 208.795 78.735,208.390 78.397,207.897 78.148 C 207.404 77.900,205.830 77.049,204.400 76.257 C 202.496 75.203,201.318 74.818,200.000 74.818 C 198.682 74.818,197.504 75.203,195.600 76.257 M188.000 131.600 C 188.000 144.400,187.861 151.200,187.600 151.200 C 187.380 151.200,187.200 151.050,187.200 150.868 C 187.200 150.685,186.705 150.280,186.100 149.968 C 185.495 149.655,184.523 148.905,183.940 148.300 C 183.356 147.695,182.716 147.200,182.518 147.200 C 182.319 147.200,181.469 146.570,180.628 145.800 C 179.787 145.030,178.961 144.400,178.792 144.400 C 178.623 144.400,177.907 143.860,177.200 143.200 C 176.493 142.540,175.781 142.000,175.617 142.000 C 175.453 142.000,174.754 141.460,174.063 140.800 C 173.372 140.140,172.626 139.600,172.404 139.600 C 172.182 139.600,172.000 139.420,172.000 139.200 C 172.000 138.980,171.802 138.800,171.560 138.800 C 171.319 138.800,170.617 138.260,170.000 137.600 C 169.383 136.940,168.719 136.400,168.524 136.400 C 168.328 136.400,167.392 135.698,166.443 134.839 L 164.719 133.279 171.800 126.239 C 175.695 122.368,179.042 119.200,179.238 119.200 C 179.434 119.200,180.692 118.120,182.032 116.800 C 183.373 115.480,184.679 114.395,184.935 114.388 C 185.191 114.381,185.850 113.847,186.400 113.200 C 186.950 112.553,187.535 112.019,187.700 112.012 C 187.865 112.005,188.000 120.820,188.000 131.600 M214.048 113.600 C 214.955 114.480,215.854 115.200,216.046 115.200 C 216.238 115.200,217.492 116.280,218.832 117.600 C 220.173 118.920,221.430 120.000,221.626 120.000 C 221.822 120.000,224.972 122.990,228.626 126.644 L 235.270 133.288 233.551 134.844 C 232.606 135.700,231.672 136.400,231.476 136.400 C 231.281 136.400,230.617 136.940,230.000 137.600 C 229.383 138.260,228.681 138.800,228.440 138.800 C 228.198 138.800,228.000 138.980,228.000 139.200 C 228.000 139.420,227.818 139.600,227.596 139.600 C 227.374 139.600,226.628 140.140,225.937 140.800 C 225.246 141.460,224.547 142.000,224.383 142.000 C 224.219 142.000,223.507 142.540,222.800 143.200 C 222.093 143.860,221.360 144.400,221.171 144.400 C 220.982 144.400,220.197 145.030,219.427 145.800 C 218.657 146.570,217.823 147.200,217.574 147.200 C 217.325 147.200,216.617 147.740,216.000 148.400 C 215.383 149.060,214.681 149.600,214.440 149.600 C 214.198 149.600,214.000 149.780,214.000 150.000 C 214.000 150.220,213.730 150.400,213.400 150.400 C 213.070 150.400,212.800 150.580,212.800 150.800 C 212.800 151.020,212.620 151.200,212.400 151.200 C 212.139 151.200,212.000 144.400,212.000 131.600 C 212.000 120.820,212.090 112.000,212.200 112.000 C 212.309 112.000,213.141 112.720,214.048 113.600 M150.000 154.400 C 150.317 154.840,150.809 155.200,151.092 155.200 C 151.375 155.200,152.191 155.758,152.904 156.440 C 153.617 157.123,154.738 157.959,155.395 158.300 C 156.052 158.640,157.069 159.432,157.655 160.059 C 158.242 160.687,158.830 161.200,158.964 161.200 C 159.098 161.200,159.772 161.740,160.463 162.400 C 161.154 163.060,161.890 163.600,162.099 163.600 C 162.308 163.600,162.983 164.140,163.600 164.800 C 164.217 165.460,164.919 166.000,165.160 166.000 C 165.402 166.000,165.600 166.180,165.600 166.400 C 165.600 166.620,165.782 166.800,166.004 166.800 C 166.226 166.800,166.972 167.340,167.663 168.000 C 168.354 168.660,169.078 169.200,169.273 169.200 C 169.467 169.200,170.257 169.830,171.027 170.600 C 171.797 171.370,172.582 172.000,172.771 172.000 C 172.960 172.000,173.693 172.540,174.400 173.200 C 175.107 173.860,175.819 174.400,175.983 174.400 C 176.147 174.400,176.846 174.940,177.537 175.600 C 178.228 176.260,178.974 176.800,179.196 176.800 C 179.418 176.800,179.600 176.980,179.600 177.200 C 179.600 177.420,179.798 177.600,180.040 177.600 C 180.281 177.600,180.983 178.140,181.600 178.800 C 182.217 179.460,182.919 180.000,183.160 180.000 C 183.402 180.000,184.341 180.720,185.248 181.600 C 186.155 182.480,187.145 183.200,187.448 183.200 C 187.910 183.200,188.000 186.466,188.000 203.200 C 188.000 214.200,187.908 223.200,187.795 223.200 C 187.310 223.200,185.741 222.118,184.750 221.100 C 184.161 220.495,183.503 220.000,183.288 220.000 C 183.073 220.000,182.155 219.280,181.248 218.400 C 180.341 217.520,179.413 216.800,179.186 216.800 C 178.959 216.800,178.161 216.215,177.412 215.500 C 176.663 214.785,175.216 213.570,174.196 212.800 C 173.176 212.030,171.860 210.984,171.271 210.477 C 170.682 209.969,169.662 209.267,169.005 208.917 C 168.348 208.567,167.331 207.768,166.745 207.141 C 166.158 206.513,165.481 206.000,165.240 206.000 C 164.998 206.000,164.059 205.280,163.152 204.400 C 162.245 203.520,161.327 202.800,161.112 202.800 C 160.897 202.800,160.217 202.260,159.600 201.600 C 158.983 200.940,158.347 200.400,158.186 200.400 C 158.026 200.400,157.603 200.076,157.247 199.681 C 156.891 199.286,155.970 198.523,155.200 197.985 C 154.430 197.448,153.278 196.512,152.641 195.904 C 152.003 195.297,151.326 194.800,151.137 194.800 C 150.948 194.800,150.233 194.265,149.550 193.612 C 148.866 192.959,147.926 192.304,147.461 192.156 C 146.996 192.008,146.135 191.373,145.548 190.744 C 144.960 190.115,144.267 189.600,144.008 189.600 C 143.749 189.600,142.846 188.880,142.000 188.000 C 141.154 187.120,140.357 186.400,140.228 186.400 C 140.098 186.400,139.428 185.860,138.737 185.200 C 138.046 184.540,137.315 184.000,137.112 184.000 C 136.024 184.000,135.139 181.932,136.000 181.400 C 136.220 181.264,136.400 180.713,136.400 180.176 C 136.400 179.639,136.580 179.200,136.800 179.200 C 137.020 179.200,137.200 178.660,137.200 178.000 C 137.200 177.340,137.380 176.800,137.600 176.800 C 137.820 176.800,138.000 176.535,138.000 176.210 C 138.000 175.670,139.909 171.095,140.779 169.549 C 140.980 169.191,141.268 168.246,141.417 167.449 C 141.567 166.652,141.849 166.000,142.045 166.000 C 142.240 166.000,142.400 165.640,142.400 165.200 C 142.400 164.760,142.580 164.400,142.800 164.400 C 143.020 164.400,143.200 164.080,143.200 163.688 C 143.200 163.297,143.560 162.717,144.000 162.400 C 144.440 162.083,144.800 161.503,144.800 161.112 C 144.800 160.720,144.980 160.400,145.200 160.400 C 145.420 160.400,145.600 160.040,145.600 159.600 C 145.600 159.160,145.780 158.800,146.000 158.800 C 146.220 158.800,146.400 158.530,146.400 158.200 C 146.400 157.870,146.580 157.600,146.800 157.600 C 147.020 157.600,147.200 157.330,147.200 157.000 C 147.200 156.670,147.380 156.400,147.600 156.400 C 147.820 156.400,148.000 156.130,148.000 155.800 C 148.000 155.470,148.180 155.200,148.400 155.200 C 148.620 155.200,148.800 154.840,148.800 154.400 C 148.800 153.960,148.940 153.600,149.112 153.600 C 149.283 153.600,149.683 153.960,150.000 154.400 M251.200 154.600 C 251.200 154.930,251.336 155.200,251.502 155.200 C 251.669 155.200,252.029 155.706,252.303 156.325 C 252.576 156.944,253.160 157.836,253.600 158.308 C 254.040 158.780,254.400 159.444,254.400 159.783 C 254.400 160.122,254.580 160.400,254.800 160.400 C 255.020 160.400,255.200 160.760,255.200 161.200 C 255.200 161.640,255.380 162.000,255.600 162.000 C 255.820 162.000,256.000 162.360,256.000 162.800 C 256.000 163.240,256.180 163.600,256.400 163.600 C 256.620 163.600,256.800 163.960,256.800 164.400 C 256.800 164.840,256.980 165.200,257.200 165.200 C 257.420 165.200,257.600 165.560,257.600 166.000 C 257.600 166.440,257.780 166.800,258.000 166.800 C 258.220 166.800,258.400 167.076,258.400 167.413 C 258.400 167.750,259.030 169.324,259.800 170.911 C 260.570 172.499,261.200 174.113,261.200 174.499 C 261.200 174.884,261.380 175.200,261.600 175.200 C 261.820 175.200,262.000 175.560,262.000 176.000 C 262.000 176.440,262.180 176.800,262.400 176.800 C 262.620 176.800,262.800 177.340,262.800 178.000 C 262.800 178.660,262.980 179.200,263.200 179.200 C 263.420 179.200,263.600 179.740,263.600 180.400 C 263.600 181.060,263.780 181.600,264.000 181.600 C 264.220 181.600,264.400 181.883,264.400 182.229 C 264.400 182.922,263.473 184.000,262.877 184.000 C 262.668 184.000,261.755 184.720,260.848 185.600 C 259.941 186.480,259.092 187.200,258.960 187.200 C 258.829 187.200,258.217 187.740,257.600 188.400 C 256.983 189.060,256.263 189.600,256.000 189.600 C 255.737 189.600,255.042 190.113,254.455 190.741 C 253.869 191.368,252.762 192.205,251.995 192.600 C 251.228 192.995,250.309 193.652,249.953 194.059 C 249.597 194.467,249.124 194.800,248.901 194.800 C 248.679 194.800,247.755 195.520,246.848 196.400 C 245.941 197.280,245.046 198.000,244.859 198.000 C 244.672 198.000,243.954 198.540,243.263 199.200 C 242.572 199.860,241.916 200.400,241.804 200.400 C 241.692 200.400,240.859 201.120,239.952 202.000 C 239.045 202.880,238.127 203.600,237.912 203.600 C 237.697 203.600,237.017 204.140,236.400 204.800 C 235.783 205.460,235.063 206.000,234.800 206.000 C 234.537 206.000,233.844 206.511,233.260 207.135 C 232.677 207.759,231.729 208.524,231.153 208.835 C 229.914 209.503,227.608 211.288,225.643 213.100 C 224.868 213.815,224.073 214.400,223.877 214.400 C 223.681 214.400,223.017 214.940,222.400 215.600 C 221.783 216.260,221.081 216.800,220.840 216.800 C 220.598 216.800,219.659 217.520,218.752 218.400 C 217.845 219.280,216.927 220.000,216.712 220.000 C 216.497 220.000,215.839 220.495,215.250 221.100 C 214.259 222.118,212.690 223.200,212.205 223.200 C 212.092 223.200,212.000 214.200,212.000 203.200 C 212.000 187.136,212.102 183.200,212.516 183.200 C 212.800 183.200,213.828 182.480,214.800 181.600 C 215.772 180.720,216.728 180.000,216.924 180.000 C 217.119 180.000,217.783 179.460,218.400 178.800 C 219.017 178.140,219.684 177.600,219.882 177.600 C 220.081 177.600,220.931 176.970,221.772 176.200 C 222.613 175.430,223.423 174.800,223.572 174.800 C 223.721 174.800,224.531 174.170,225.372 173.400 C 226.213 172.630,227.052 172.000,227.237 172.000 C 227.422 172.000,228.203 171.370,228.973 170.600 C 229.743 169.830,230.577 169.200,230.826 169.200 C 231.075 169.200,231.783 168.660,232.400 168.000 C 233.017 167.340,233.697 166.800,233.912 166.800 C 234.127 166.800,235.045 166.080,235.952 165.200 C 236.859 164.320,237.754 163.600,237.941 163.600 C 238.128 163.600,238.846 163.060,239.537 162.400 C 240.228 161.740,240.902 161.200,241.036 161.200 C 241.170 161.200,241.758 160.687,242.345 160.059 C 242.931 159.432,243.948 158.633,244.605 158.283 C 245.262 157.933,246.323 157.186,246.962 156.623 C 247.601 156.061,248.249 155.600,248.401 155.600 C 248.553 155.600,249.093 155.240,249.600 154.800 C 250.699 153.846,251.200 153.784,251.200 154.600 M132.752 212.800 C 133.659 213.680,134.598 214.400,134.840 214.400 C 135.081 214.400,135.783 214.940,136.400 215.600 C 137.017 216.260,137.697 216.800,137.912 216.800 C 138.127 216.800,139.045 217.520,139.952 218.400 C 140.859 219.280,141.747 220.000,141.926 220.000 C 142.104 220.000,142.768 220.540,143.400 221.200 C 144.032 221.860,144.708 222.400,144.902 222.400 C 145.095 222.400,145.916 223.028,146.727 223.797 C 147.537 224.565,148.443 225.195,148.740 225.197 C 149.036 225.198,149.783 225.740,150.400 226.400 C 151.017 227.060,151.697 227.600,151.912 227.600 C 152.127 227.600,153.045 228.320,153.952 229.200 C 154.859 230.080,155.798 230.800,156.040 230.800 C 156.281 230.800,156.983 231.340,157.600 232.000 C 158.217 232.660,158.829 233.200,158.960 233.200 C 159.092 233.200,159.941 233.920,160.848 234.800 C 161.755 235.680,162.679 236.400,162.901 236.400 C 163.124 236.400,163.597 236.724,163.953 237.119 C 164.309 237.514,165.230 238.274,166.000 238.808 C 166.770 239.341,167.848 240.187,168.396 240.689 C 168.944 241.190,169.633 241.600,169.927 241.600 C 170.222 241.600,171.154 242.320,172.000 243.200 C 172.846 244.080,173.749 244.800,174.008 244.800 C 174.267 244.800,174.983 245.340,175.600 246.000 C 176.217 246.660,176.847 247.200,177.000 247.200 C 177.153 247.200,177.783 247.740,178.400 248.400 C 179.017 249.060,179.681 249.600,179.876 249.600 C 180.072 249.600,181.028 250.320,182.000 251.200 C 182.972 252.080,183.916 252.800,184.097 252.800 C 184.278 252.800,185.057 253.430,185.827 254.200 C 186.597 254.970,187.401 255.600,187.613 255.600 C 187.855 255.600,188.000 261.211,188.000 270.600 L 188.000 285.600 187.000 285.600 C 186.450 285.600,186.000 285.420,186.000 285.200 C 186.000 284.980,185.291 284.800,184.424 284.800 C 183.557 284.800,182.736 284.620,182.600 284.400 C 182.464 284.180,181.823 284.000,181.176 284.000 C 180.529 284.000,180.000 283.820,180.000 283.600 C 180.000 283.380,179.460 283.200,178.800 283.200 C 178.140 283.200,177.600 283.020,177.600 282.800 C 177.600 282.580,177.060 282.400,176.400 282.400 C 175.740 282.400,175.200 282.220,175.200 282.000 C 175.200 281.780,174.851 281.600,174.424 281.600 C 173.997 281.600,173.536 281.420,173.400 281.200 C 173.264 280.980,172.803 280.800,172.376 280.800 C 171.949 280.800,171.600 280.620,171.600 280.400 C 171.600 280.180,171.240 280.000,170.800 280.000 C 170.360 280.000,170.000 279.820,170.000 279.600 C 170.000 279.380,169.640 279.200,169.200 279.200 C 168.760 279.200,168.400 279.020,168.400 278.800 C 168.400 278.580,168.040 278.400,167.600 278.400 C 167.160 278.400,166.800 278.220,166.800 278.000 C 166.800 277.780,166.522 277.600,166.183 277.600 C 165.844 277.600,165.349 277.417,165.083 277.194 C 163.961 276.252,161.527 274.800,161.071 274.800 C 160.799 274.800,160.317 274.440,160.000 274.000 C 159.683 273.560,159.275 273.200,159.094 273.200 C 158.912 273.200,158.344 272.795,157.832 272.300 C 156.572 271.083,155.235 270.000,154.991 270.000 C 154.708 270.000,146.400 261.660,146.400 261.376 C 146.400 261.248,146.175 260.906,145.900 260.616 C 144.935 259.600,144.000 258.389,144.000 258.156 C 144.000 258.027,143.460 257.417,142.800 256.800 C 142.140 256.183,141.600 255.404,141.600 255.068 C 141.600 254.732,141.375 254.219,141.100 253.929 C 140.625 253.426,138.649 249.829,137.184 246.800 C 136.811 246.030,136.123 244.618,135.653 243.662 C 135.184 242.706,134.800 241.581,134.800 241.162 C 134.800 240.743,134.620 240.400,134.400 240.400 C 134.180 240.400,134.000 239.961,134.000 239.424 C 134.000 238.887,133.820 238.336,133.600 238.200 C 133.380 238.064,133.200 237.423,133.200 236.776 C 133.200 236.129,133.020 235.600,132.800 235.600 C 132.580 235.600,132.400 234.981,132.400 234.224 C 132.400 233.467,132.220 232.736,132.000 232.600 C 131.780 232.464,131.600 231.643,131.600 230.776 C 131.600 229.909,131.420 229.200,131.200 229.200 C 130.974 229.200,130.800 228.067,130.800 226.600 C 130.800 225.133,130.626 224.000,130.400 224.000 C 130.150 224.000,130.000 221.600,130.000 217.600 C 130.000 210.311,130.067 210.194,132.752 212.800 M270.000 217.600 C 270.000 221.600,269.850 224.000,269.600 224.000 C 269.374 224.000,269.200 225.133,269.200 226.600 C 269.200 228.067,269.026 229.200,268.800 229.200 C 268.580 229.200,268.400 229.909,268.400 230.776 C 268.400 231.643,268.220 232.464,268.000 232.600 C 267.780 232.736,267.600 233.467,267.600 234.224 C 267.600 234.981,267.420 235.600,267.200 235.600 C 266.980 235.600,266.800 236.140,266.800 236.800 C 266.800 237.460,266.620 238.000,266.400 238.000 C 266.180 238.000,266.000 238.540,266.000 239.200 C 266.000 239.860,265.820 240.400,265.600 240.400 C 265.380 240.400,265.200 240.743,265.200 241.162 C 265.200 241.581,264.840 242.661,264.400 243.562 C 263.960 244.463,263.226 245.965,262.768 246.900 C 261.372 249.753,260.219 251.787,259.842 252.060 C 259.645 252.202,259.594 252.607,259.729 252.960 C 259.885 253.365,259.762 253.600,259.395 253.600 C 259.076 253.600,258.693 254.087,258.544 254.682 C 258.394 255.277,257.896 256.154,257.436 256.629 C 256.233 257.874,253.827 260.853,253.648 261.318 C 253.388 261.993,245.233 270.000,244.805 270.000 C 244.582 270.000,244.400 270.150,244.400 270.332 C 244.400 270.515,243.953 270.904,243.407 271.196 C 242.860 271.489,242.308 272.059,242.180 272.464 C 242.051 272.869,241.638 273.200,241.261 273.200 C 240.885 273.200,240.317 273.560,240.000 274.000 C 239.683 274.440,239.103 274.800,238.712 274.800 C 238.320 274.800,238.000 274.953,238.000 275.139 C 238.000 275.326,237.280 275.803,236.400 276.200 C 235.520 276.597,234.800 277.074,234.800 277.261 C 234.800 277.447,234.440 277.600,234.000 277.600 C 233.560 277.600,233.200 277.780,233.200 278.000 C 233.200 278.220,232.840 278.400,232.400 278.400 C 231.960 278.400,231.600 278.580,231.600 278.800 C 231.600 279.020,231.240 279.200,230.800 279.200 C 230.360 279.200,230.000 279.380,230.000 279.600 C 230.000 279.820,229.640 280.000,229.200 280.000 C 228.760 280.000,228.400 280.180,228.400 280.400 C 228.400 280.620,228.051 280.800,227.624 280.800 C 227.197 280.800,226.736 280.980,226.600 281.200 C 226.464 281.420,226.003 281.600,225.576 281.600 C 225.149 281.600,224.800 281.780,224.800 282.000 C 224.800 282.220,224.260 282.400,223.600 282.400 C 222.940 282.400,222.400 282.580,222.400 282.800 C 222.400 283.020,221.860 283.200,221.200 283.200 C 220.540 283.200,220.000 283.380,220.000 283.600 C 220.000 283.820,219.460 284.000,218.800 284.000 C 218.140 284.000,217.600 284.180,217.600 284.400 C 217.600 284.620,216.790 284.800,215.800 284.800 C 214.810 284.800,214.000 284.980,214.000 285.200 C 214.000 285.420,213.550 285.600,213.000 285.600 L 212.000 285.600 212.000 270.600 C 212.000 261.211,212.145 255.600,212.387 255.600 C 212.599 255.600,213.403 254.970,214.173 254.200 C 214.943 253.430,215.733 252.800,215.927 252.800 C 216.122 252.800,216.846 252.260,217.537 251.600 C 218.228 250.940,218.974 250.400,219.196 250.400 C 219.418 250.400,219.600 250.220,219.600 250.000 C 219.600 249.780,219.798 249.600,220.040 249.600 C 220.281 249.600,220.983 249.060,221.600 248.400 C 222.217 247.740,222.854 247.200,223.017 247.200 C 223.180 247.200,223.829 246.660,224.460 246.000 C 225.091 245.340,225.800 244.800,226.035 244.800 C 226.270 244.800,227.154 244.080,228.000 243.200 C 228.846 242.320,229.778 241.600,230.073 241.600 C 230.367 241.600,231.056 241.190,231.604 240.689 C 232.152 240.187,233.230 239.341,234.000 238.808 C 234.770 238.274,235.691 237.514,236.047 237.119 C 236.403 236.724,236.863 236.400,237.069 236.400 C 237.430 236.400,238.913 235.163,242.107 232.199 C 242.935 231.429,243.808 230.800,244.046 230.800 C 244.284 230.800,244.983 230.260,245.600 229.600 C 246.217 228.940,246.897 228.400,247.112 228.400 C 247.327 228.400,248.245 227.680,249.152 226.800 C 250.059 225.920,251.060 225.200,251.377 225.200 C 251.694 225.200,252.058 225.029,252.188 224.820 C 252.317 224.611,253.542 223.593,254.911 222.557 C 256.280 221.522,257.460 220.523,257.533 220.337 C 257.607 220.152,257.831 220.000,258.033 220.000 C 258.234 220.000,259.141 219.280,260.048 218.400 C 260.955 217.520,261.873 216.800,262.088 216.800 C 262.303 216.800,262.983 216.260,263.600 215.600 C 264.217 214.940,264.937 214.400,265.200 214.400 C 265.463 214.400,266.183 213.860,266.800 213.200 C 267.417 212.540,268.119 212.000,268.360 212.000 C 268.602 212.000,268.800 211.820,268.800 211.600 C 268.800 211.380,269.070 211.200,269.400 211.200 C 269.908 211.200,270.000 212.178,270.000 217.600 M201.500 376.291 C 200.675 376.378,199.325 376.378,198.500 376.291 C 197.675 376.205,198.350 376.134,200.000 376.134 C 201.650 376.134,202.325 376.205,201.500 376.291 " stroke="none" fill="#14ac1c" fill-rule="evenodd"></path><path id="path1" d="M200.100 23.891 C 200.925 23.978,202.275 23.978,203.100 23.891 C 203.925 23.805,203.250 23.734,201.600 23.734 C 199.950 23.734,199.275 23.805,200.100 23.891 M198.500 376.291 C 199.325 376.378,200.675 376.378,201.500 376.291 C 202.325 376.205,201.650 376.134,200.000 376.134 C 198.350 376.134,197.675 376.205,198.500 376.291 " stroke="none" fill="#18ac1c" fill-rule="evenodd"></path><path id="path2" d="M200.100 23.891 C 200.925 23.978,202.275 23.978,203.100 23.891 C 203.925 23.805,203.250 23.734,201.600 23.734 C 199.950 23.734,199.275 23.805,200.100 23.891 M198.500 376.291 C 199.325 376.378,200.675 376.378,201.500 376.291 C 202.325 376.205,201.650 376.134,200.000 376.134 C 198.350 376.134,197.675 376.205,198.500 376.291 " stroke="none" fill="#18ac1c" fill-rule="evenodd"></path><path id="path3" d="M200.100 23.891 C 200.925 23.978,202.275 23.978,203.100 23.891 C 203.925 23.805,203.250 23.734,201.600 23.734 C 199.950 23.734,199.275 23.805,200.100 23.891 M198.500 376.291 C 199.325 376.378,200.675 376.378,201.500 376.291 C 202.325 376.205,201.650 376.134,200.000 376.134 C 198.350 376.134,197.675 376.205,198.500 376.291 " stroke="none" fill="#18ac1c" fill-rule="evenodd"></path><path id="path4" d="M200.100 23.891 C 200.925 23.978,202.275 23.978,203.100 23.891 C 203.925 23.805,203.250 23.734,201.600 23.734 C 199.950 23.734,199.275 23.805,200.100 23.891 M198.500 376.291 C 199.325 376.378,200.675 376.378,201.500 376.291 C 202.325 376.205,201.650 376.134,200.000 376.134 C 198.350 376.134,197.675 376.205,198.500 376.291 " stroke="none" fill="#18ac1c" fill-rule="evenodd"></path></g></svg>